<svg id="Page_1" data-name="Page 1" xmlns="http://www.w3.org/2000/svg" viewBox="0 0 312.03 312.03">
  <defs>
    <style>
      .cls-1, .cls-4 {
        fill: #231f20;
      }

      .cls-1, .cls-2, .cls-4 {
        stroke: #231f20;
      }

      .cls-1, .cls-2, .cls-3, .cls-4, .cls-5, .cls-6, .cls-8 {
        stroke-miterlimit: 2.41;
      }

      .cls-1, .cls-2, .cls-3, .cls-4, .cls-6, .cls-8 {
        stroke-width: 0.22px;
      }

      .cls-2, .cls-3, .cls-5, .cls-6, .cls-8 {
        fill: #fff;
      }

      .cls-3, .cls-5, .cls-6 {
        stroke: #fff;
      }

      .cls-4, .cls-5, .cls-6, .cls-7 {
        fill-rule: evenodd;
      }

      .cls-5 {
        stroke-width: 0.22px;
      }

      .cls-7 {
        fill: #5e5e5e;
      }

      .cls-8 {
        stroke: #d1d3d4;
      }
    </style>
  </defs>
  <title>logo-skoda</title>
  <g id="Warstwa_1-2" data-name="Warstwa 1">
    <g>
      <circle class="cls-1" cx="156.01" cy="156.01" r="155.91"/>
      <ellipse class="cls-2" cx="156.01" cy="156.01" rx="151.53" ry="151.65"/>
      <ellipse class="cls-1" cx="156.01" cy="156.01" rx="146.35" ry="146.33"/>
      <ellipse class="cls-3" cx="158.19" cy="156.54" rx="95.21" ry="93.94"/>
      <path class="cls-4" d="M159.12,388.75l4.34-11.25c10.63-67.48,24.81-93.44,82.35-138.94l8.18-9c-32.2,7.62-56.18,29.89-73.44,54.73-19.31,31.13-25.66,61.92-21.43,104.46h0Z" transform="translate(-138.2 -203.97)"/>
      <g>
        <path class="cls-5" d="M183.57,279.73l-7.68,9.59c-3.46,7.27-2.25,11,1.45,14.63,3.18,2.73,7.5,3.23,13.18.2l5.19-3.94c2.15-1.2,4.06-1.51,5.28-.78,1,0.59,1.63,3.35.74,5.22-0.62,2.12-4.33,5.92-7.68,7.55l5.61,4.3a54,54,0,0,0,7.56-8.22c3-4.1,4-11.34-.21-14.94-2.9-3-7.22-5.16-12.61-2.59a41.83,41.83,0,0,0-6.54,5.15,3.73,3.73,0,0,1-4.64.16c-0.93-1.14-1-3.09.13-5a16.44,16.44,0,0,1,6.44-6.47l-6.22-4.91h0Z" transform="translate(-138.2 -203.97)"/>
        <polygon class="cls-5" points="30.77 85.42 36.64 84.51 39.46 81.31 39.05 74.52 36.97 76.97 37.23 81.92 32.67 83.05 30.77 85.42 30.77 85.42"/>
      </g>
      <polygon class="cls-6" points="72.47 49.67 92.08 77.53 99.24 72.81 90.43 60.17 92.08 59.85 108.72 66.49 118.08 60.6 95.94 53.42 97.92 32.84 88.67 38.74 88.45 56.2 80.3 44.63 72.47 49.67 72.47 49.67"/>
      <path class="cls-6" d="M289.76,224.39c-11.42.11-17.44,6.43-17.62,17.57,0.4,14.22,11.16,18.47,17.51,18,6.54,0.11,17-3.43,16.74-17.14,0.4-12.89-7.34-18.29-16.63-18.43h0Z" transform="translate(-138.2 -203.97)"/>
      <ellipse class="cls-1" cx="151.18" cy="38.09" rx="7.99" ry="11.14"/>
      <g>
        <path class="cls-6" d="M330.77,263.75l15.79-29.86,14,7.14c12.8,6.59,9.73,18,7.35,22-6,10.74-14.69,11.42-23.32,7.81l-13.86-7.12h0Z" transform="translate(-138.2 -203.97)"/>
        <path class="cls-4" d="M342.13,262l9.41-18,4.54,2.58c6.64,4.09,5.25,8.6,3.17,13.2-3,5.23-7.93,6.59-13.15,4.19l-4-2h0Z" transform="translate(-138.2 -203.97)"/>
      </g>
      <g>
        <polygon class="cls-6" points="236.11 86.45 272.18 79.98 277.83 89.12 255.17 116.78 250.63 109.25 255.56 103.72 248.56 92.28 240.83 93.56 236.11 86.45 236.11 86.45"/>
        <polygon class="cls-4" points="255.47 90.82 268.41 88.23 259.98 97.97 255.47 90.82 255.47 90.82"/>
      </g>
      <path class="cls-7" d="M335.53,394.75C346.6,359,349.94,313,314.88,283.39c-8.72-6-13.52-7.88-26.52-6.18l-12.71,2.42c-2.35.92-7.1,1.84-3.72,5.27l20.91,20.5c0.9,1.34-1.08,3.14-2.81,2.2L267.57,287.4c-4.59-3.68-9-1.68-13,.37-8.45,4.43-15.76,11.29-22,19.81-1.18,1.19-2.78,3.08-1.35,4.18l27.66,13.54c1.28,1.18.08,3.37-1.3,3.07l-23.79-10.32c-4.55-1.76-8.6-1.89-13.67,4.58-4,5.78-7.83,12.35-8.55,23-0.08,2.53-1.83,7.1,3.64,6.6,1.06,0.1,2.16,0,3.19.09,32.82,3,45.34,15,50.63,40.8,0.53,1.78.84,3.4-.39,3.92s-2.66-.31-4.19-0.27c-14.22-11-26.78-13.73-46-12.08-2.31.09-2.93,1.77-1.19,2.92,12.77,6.73,21.91,10.87,20.86,28.73,0,1.88.48,3.59,2.46,2.88,6.75,0.26,10.13-1.35,13.75-3.74,4.05-2.25,6.5-7,11.91-7l76.75-.12,0.8,6.51c1.46,2.78,2.13,2.62,5,2.17,7.52-1.17,22.64-7.68,22.78-14.47,0.8-7.62-15.05-13-23.6-16.73-2.41-1-3.55-.39-3.88,1.48l-1,7.46h-7.59Z" transform="translate(-138.2 -203.97)"/>
      <ellipse class="cls-8" cx="179.56" cy="169.7" rx="11.69" ry="10.63"/>
      <g>
        <polygon class="cls-6" points="77.14 259.57 99.08 244.16 106.08 248.38 100.39 274.68 94.51 271.31 95.44 265.36 87.56 259.84 82.06 263.06 77.14 259.57 77.14 259.57"/>
        <polygon class="cls-4" points="91.89 256.87 98.66 251.35 96.69 260.27 91.89 256.87 91.89 256.87"/>
        <path class="cls-6" d="M265.54,462.23L263,478.48c-0.91,7.55,5.37,11,10.16,11.18,5.85,0.31,10.76-1.59,11.69-6.45l2.71-17.62-6.18-1-2.71,17.14a4.65,4.65,0,0,1-4.76,2.68c-2.15,0-4.31-1.6-4.27-3.73l2.38-17.62-6.53-.83h0Z" transform="translate(-138.2 -203.97)"/>
        <polygon class="cls-6" points="167.88 261.23 186.54 258.54 187.27 262.76 181.38 263.59 184.28 284.43 178.42 284.94 175.31 264.76 168.61 265.59 167.88 261.23 167.88 261.23"/>
        <path class="cls-6" d="M349.7,450.25c-4.38,3.52-8.84,10.84-1.2,19,5.27,5.87,11.47,6,16.59,3,7.07-5,7.35-10.46,4-17.09-2.26-5.57-9.51-10.53-19.35-4.86h0Z" transform="translate(-138.2 -203.97)"/>
        <path class="cls-4" d="M353.42,454c2.76-1.71,7,0,9.46,3.72s2.24,8.2-.52,9.92-7,0-9.46-3.72S350.67,455.71,353.42,454Z" transform="translate(-138.2 -203.97)"/>
      </g>
    </g>
  </g>
</svg>
