<svg id="Layer_1" data-name="Layer 1" xmlns="http://www.w3.org/2000/svg" xmlns:xlink="http://www.w3.org/1999/xlink" viewBox="0 0 350 216.99">
  <defs>
    <style>
      .cls-1 {
        mask: url(#mask);
      }

      .cls-10, .cls-12, .cls-14, .cls-16, .cls-18, .cls-2, .cls-20, .cls-22, .cls-24, .cls-26, .cls-27, .cls-29, .cls-4, .cls-6, .cls-8 {
        mix-blend-mode: multiply;
      }

      .cls-2 {
        fill: url(#linear-gradient);
      }

      .cls-3 {
        mask: url(#mask-2);
      }

      .cls-4 {
        fill: url(#linear-gradient-2);
      }

      .cls-5 {
        mask: url(#mask-3);
      }

      .cls-6 {
        fill: url(#linear-gradient-3);
      }

      .cls-7 {
        mask: url(#mask-4);
      }

      .cls-8 {
        fill: url(#linear-gradient-4);
      }

      .cls-9 {
        mask: url(#mask-5);
      }

      .cls-10 {
        fill: url(#linear-gradient-5);
      }

      .cls-11 {
        mask: url(#mask-6);
      }

      .cls-12 {
        fill: url(#linear-gradient-6);
      }

      .cls-13 {
        mask: url(#mask-7);
      }

      .cls-14 {
        fill: url(#linear-gradient-7);
      }

      .cls-15 {
        mask: url(#mask-8);
      }

      .cls-16 {
        fill: url(#linear-gradient-8);
      }

      .cls-17 {
        mask: url(#mask-10);
      }

      .cls-18 {
        fill: url(#linear-gradient-10);
      }

      .cls-19 {
        mask: url(#mask-11);
      }

      .cls-20 {
        fill: url(#linear-gradient-11);
      }

      .cls-21 {
        mask: url(#mask-12);
      }

      .cls-22 {
        fill: url(#linear-gradient-12);
      }

      .cls-23 {
        mask: url(#mask-13);
      }

      .cls-24 {
        fill: url(#radial-gradient);
      }

      .cls-25 {
        mask: url(#mask-14);
      }

      .cls-26 {
        fill: url(#linear-gradient-13);
      }

      .cls-27 {
        fill: url(#linear-gradient-14);
      }

      .cls-28 {
        mask: url(#mask-16);
      }

      .cls-29 {
        fill: url(#linear-gradient-15);
      }

      .cls-30 {
        opacity: 0.7;
        fill: url(#linear-gradient-16);
      }

      .cls-30, .cls-67, .cls-71, .cls-74, .cls-76, .cls-79, .cls-81, .cls-83 {
        isolation: isolate;
      }

      .cls-31 {
        fill: url(#linear-gradient-17);
      }

      .cls-32 {
        fill: url(#linear-gradient-18);
      }

      .cls-33 {
        fill: url(#linear-gradient-19);
      }

      .cls-34 {
        fill: url(#linear-gradient-20);
      }

      .cls-35 {
        fill: url(#linear-gradient-21);
      }

      .cls-36 {
        fill: url(#linear-gradient-22);
      }

      .cls-37 {
        fill: url(#linear-gradient-23);
      }

      .cls-38 {
        fill: url(#linear-gradient-24);
      }

      .cls-39 {
        fill: url(#linear-gradient-25);
      }

      .cls-40 {
        fill: url(#linear-gradient-26);
      }

      .cls-41 {
        fill: url(#linear-gradient-27);
      }

      .cls-42 {
        fill: url(#linear-gradient-28);
      }

      .cls-43 {
        fill: url(#linear-gradient-29);
      }

      .cls-44, .cls-67, .cls-74, .cls-79 {
        opacity: 0.5;
      }

      .cls-45 {
        fill: #090909;
      }

      .cls-46 {
        fill: url(#linear-gradient-30);
      }

      .cls-47 {
        mask: url(#mask-17);
      }

      .cls-48 {
        fill: url(#linear-gradient-31);
      }

      .cls-49 {
        mask: url(#mask-18);
      }

      .cls-50 {
        fill: url(#linear-gradient-32);
      }

      .cls-51 {
        fill: url(#linear-gradient-33);
      }

      .cls-52 {
        mask: url(#mask-19);
      }

      .cls-53 {
        fill: url(#linear-gradient-35);
      }

      .cls-54 {
        mask: url(#mask-20);
      }

      .cls-55 {
        fill: url(#linear-gradient-36);
      }

      .cls-56 {
        mask: url(#mask-21);
      }

      .cls-57 {
        fill: url(#linear-gradient-37);
      }

      .cls-58 {
        opacity: 0.8;
      }

      .cls-59 {
        mask: url(#mask-22);
      }

      .cls-60 {
        fill: url(#linear-gradient-38);
      }

      .cls-61 {
        mask: url(#mask-23);
      }

      .cls-62 {
        fill: url(#linear-gradient-39);
      }

      .cls-63 {
        fill: #505050;
      }

      .cls-64 {
        fill: url(#linear-gradient-40);
      }

      .cls-65 {
        fill: url(#linear-gradient-41);
      }

      .cls-66 {
        mask: url(#mask-24);
      }

      .cls-67 {
        fill: url(#linear-gradient-42);
      }

      .cls-68 {
        mask: url(#mask-25);
      }

      .cls-69 {
        fill: url(#linear-gradient-43);
      }

      .cls-70 {
        mask: url(#mask-26);
      }

      .cls-71, .cls-76, .cls-81 {
        opacity: 0.3;
      }

      .cls-71 {
        fill: url(#linear-gradient-44);
      }

      .cls-72 {
        fill: url(#linear-gradient-45);
      }

      .cls-73 {
        mask: url(#mask-27);
      }

      .cls-74 {
        fill: url(#linear-gradient-46);
      }

      .cls-75 {
        mask: url(#mask-29);
      }

      .cls-76 {
        fill: url(#linear-gradient-48);
      }

      .cls-77 {
        fill: url(#linear-gradient-49);
      }

      .cls-78 {
        mask: url(#mask-30);
      }

      .cls-79 {
        fill: url(#linear-gradient-50);
      }

      .cls-80 {
        mask: url(#mask-31);
      }

      .cls-81 {
        fill: url(#linear-gradient-51);
      }

      .cls-82 {
        mask: url(#mask-32);
      }

      .cls-83 {
        opacity: 0.6;
        fill: url(#radial-gradient-2);
      }

      .cls-84 {
        filter: url(#luminosity-noclip-32);
      }

      .cls-85 {
        filter: url(#luminosity-noclip-31);
      }

      .cls-86 {
        filter: url(#luminosity-noclip-30);
      }

      .cls-87 {
        filter: url(#luminosity-noclip-29);
      }

      .cls-88 {
        filter: url(#luminosity-noclip-27);
      }

      .cls-89 {
        filter: url(#luminosity-noclip-26);
      }

      .cls-90 {
        filter: url(#luminosity-noclip-25);
      }

      .cls-91 {
        filter: url(#luminosity-noclip-24);
      }

      .cls-92 {
        filter: url(#luminosity-noclip-23);
      }

      .cls-93 {
        filter: url(#luminosity-noclip-22);
      }

      .cls-94 {
        filter: url(#luminosity-noclip-21);
      }

      .cls-95 {
        filter: url(#luminosity-noclip-20);
      }

      .cls-96 {
        filter: url(#luminosity-noclip-19);
      }

      .cls-97 {
        filter: url(#luminosity-noclip-18);
      }

      .cls-98 {
        filter: url(#luminosity-noclip-17);
      }

      .cls-99 {
        filter: url(#luminosity-noclip-16);
      }

      .cls-100 {
        filter: url(#luminosity-noclip-14);
      }

      .cls-101 {
        filter: url(#luminosity-noclip-13);
      }

      .cls-102 {
        filter: url(#luminosity-noclip-12);
      }

      .cls-103 {
        filter: url(#luminosity-noclip-11);
      }

      .cls-104 {
        filter: url(#luminosity-noclip-10);
      }

      .cls-105 {
        filter: url(#luminosity-noclip-8);
      }

      .cls-106 {
        filter: url(#luminosity-noclip-7);
      }

      .cls-107 {
        filter: url(#luminosity-noclip-6);
      }

      .cls-108 {
        filter: url(#luminosity-noclip-5);
      }

      .cls-109 {
        filter: url(#luminosity-noclip-4);
      }

      .cls-110 {
        filter: url(#luminosity-noclip-3);
      }

      .cls-111 {
        filter: url(#luminosity-noclip-2);
      }

      .cls-112 {
        filter: url(#luminosity-noclip);
      }
    </style>
    <filter id="luminosity-noclip" x="161.48" y="-8442" width="156.89" height="32766" filterUnits="userSpaceOnUse" color-interpolation-filters="sRGB">
      <feFlood flood-color="#fff" result="bg"/>
      <feBlend in="SourceGraphic" in2="bg"/>
    </filter>
    <mask id="mask" x="161.48" y="-8442" width="156.89" height="32766" maskUnits="userSpaceOnUse">
      <g class="cls-112"/>
    </mask>
    <linearGradient id="linear-gradient" x1="100.89" y1="-190.4" x2="390.03" y2="-188.24" gradientTransform="matrix(0.65, 0, 0, -0.65, 88.17, 138.05)" gradientUnits="userSpaceOnUse">
      <stop offset="0" stop-color="#fff"/>
      <stop offset="0.22" stop-color="#dfdfdf"/>
      <stop offset="0.52" stop-color="#fff"/>
      <stop offset="0.75" stop-color="#fff"/>
      <stop offset="1" stop-color="#fff"/>
    </linearGradient>
    <filter id="luminosity-noclip-2" x="233.85" y="-8442" width="26.27" height="32766" filterUnits="userSpaceOnUse" color-interpolation-filters="sRGB">
      <feFlood flood-color="#fff" result="bg"/>
      <feBlend in="SourceGraphic" in2="bg"/>
    </filter>
    <mask id="mask-2" x="233.85" y="-8442" width="26.27" height="32766" maskUnits="userSpaceOnUse">
      <g class="cls-111"/>
    </mask>
    <linearGradient id="linear-gradient-2" x1="-379.16" y1="-87.67" x2="-390.28" y2="-61.98" gradientTransform="matrix(0.61, 0, 0, -0.62, 483.27, 106.71)" gradientUnits="userSpaceOnUse">
      <stop offset="0"/>
      <stop offset="0.16" stop-color="#4d4d4d"/>
      <stop offset="0.34" stop-color="#dfdfdf"/>
      <stop offset="0.41" stop-color="#bfbfbf"/>
      <stop offset="0.66"/>
      <stop offset="1"/>
    </linearGradient>
    <filter id="luminosity-noclip-3" x="193.92" y="-8442" width="106.34" height="32766" filterUnits="userSpaceOnUse" color-interpolation-filters="sRGB">
      <feFlood flood-color="#fff" result="bg"/>
      <feBlend in="SourceGraphic" in2="bg"/>
    </filter>
    <mask id="mask-3" x="193.92" y="-8442" width="106.34" height="32766" maskUnits="userSpaceOnUse">
      <g class="cls-110"/>
    </mask>
    <linearGradient id="linear-gradient-3" x1="-386.11" y1="-202.4" x2="-400.4" y2="-157.87" gradientTransform="matrix(0.61, 0, 0, -0.62, 478.97, 111.78)" gradientUnits="userSpaceOnUse">
      <stop offset="0"/>
      <stop offset="0.12" stop-color="#5e5e5e"/>
      <stop offset="0.29" stop-color="#dfdfdf"/>
      <stop offset="0.38" stop-color="#bfbfbf"/>
      <stop offset="0.52" stop-color="#7f7f7f"/>
      <stop offset="1"/>
    </linearGradient>
    <filter id="luminosity-noclip-4" x="231.34" y="-8442" width="99.93" height="32766" filterUnits="userSpaceOnUse" color-interpolation-filters="sRGB">
      <feFlood flood-color="#fff" result="bg"/>
      <feBlend in="SourceGraphic" in2="bg"/>
    </filter>
    <mask id="mask-4" x="231.34" y="-8442" width="99.93" height="32766" maskUnits="userSpaceOnUse">
      <g class="cls-109"/>
    </mask>
    <linearGradient id="linear-gradient-4" x1="647.37" y1="-154.34" x2="647.37" y2="-177.69" gradientTransform="matrix(0.65, 0, 0, -0.65, -139.74, 131.52)" gradientUnits="userSpaceOnUse">
      <stop offset="0" stop-color="#fff"/>
      <stop offset="1"/>
    </linearGradient>
    <filter id="luminosity-noclip-5" x="149.14" y="-8442" width="188.48" height="32766" filterUnits="userSpaceOnUse" color-interpolation-filters="sRGB">
      <feFlood flood-color="#fff" result="bg"/>
      <feBlend in="SourceGraphic" in2="bg"/>
    </filter>
    <mask id="mask-5" x="149.14" y="-8442" width="188.48" height="32766" maskUnits="userSpaceOnUse">
      <g class="cls-108"/>
    </mask>
    <linearGradient id="linear-gradient-5" x1="489.28" y1="6.67" x2="551" y2="-91.88" gradientTransform="matrix(0.65, 0, 0, -0.65, -140.03, 131.56)" xlink:href="#linear-gradient-4"/>
    <filter id="luminosity-noclip-6" x="149.65" y="-8442" width="185.24" height="32766" filterUnits="userSpaceOnUse" color-interpolation-filters="sRGB">
      <feFlood flood-color="#fff" result="bg"/>
      <feBlend in="SourceGraphic" in2="bg"/>
    </filter>
    <mask id="mask-6" x="149.65" y="-8442" width="185.24" height="32766" maskUnits="userSpaceOnUse">
      <g class="cls-107"/>
    </mask>
    <linearGradient id="linear-gradient-6" x1="293.07" y1="-264.69" x2="217.39" y2="-290.65" gradientTransform="matrix(0.65, 0, 0, -0.65, 115.18, 21.47)" gradientUnits="userSpaceOnUse">
      <stop offset="0" stop-color="#fff"/>
      <stop offset="0.25" stop-color="#e6e6e6"/>
      <stop offset="0.5" stop-color="#7f7f7f"/>
      <stop offset="1"/>
    </linearGradient>
    <filter id="luminosity-noclip-7" x="154.35" y="-8442" width="196.53" height="32766" filterUnits="userSpaceOnUse" color-interpolation-filters="sRGB">
      <feFlood flood-color="#fff" result="bg"/>
      <feBlend in="SourceGraphic" in2="bg"/>
    </filter>
    <mask id="mask-7" x="154.35" y="-8442" width="196.53" height="32766" maskUnits="userSpaceOnUse">
      <g class="cls-106"/>
    </mask>
    <linearGradient id="linear-gradient-7" x1="-376.62" y1="-276.47" x2="-377.16" y2="-205.54" gradientTransform="matrix(0.65, 0, 0, -0.65, 497.7, 109.89)" xlink:href="#linear-gradient-4"/>
    <filter id="luminosity-noclip-8" x="149.14" y="-8442" width="185.24" height="32766" filterUnits="userSpaceOnUse" color-interpolation-filters="sRGB">
      <feFlood flood-color="#fff" result="bg"/>
      <feBlend in="SourceGraphic" in2="bg"/>
    </filter>
    <mask id="mask-8" x="149.14" y="-8442" width="185.24" height="32766" maskUnits="userSpaceOnUse">
      <g class="cls-105"/>
    </mask>
    <linearGradient id="linear-gradient-8" x1="476.98" y1="-235.43" x2="539.24" y2="-181.29" xlink:href="#linear-gradient-4"/>
    <filter id="luminosity-noclip-10" x="231.11" y="-8442" width="113.57" height="32766" filterUnits="userSpaceOnUse" color-interpolation-filters="sRGB">
      <feFlood flood-color="#fff" result="bg"/>
      <feBlend in="SourceGraphic" in2="bg"/>
    </filter>
    <mask id="mask-10" x="231.11" y="-8442" width="113.57" height="32766" maskUnits="userSpaceOnUse">
      <g class="cls-104"/>
    </mask>
    <linearGradient id="linear-gradient-10" x1="610.33" y1="-91.15" x2="625.76" y2="-101.98" gradientTransform="matrix(0.65, 0, 0, -0.65, -139.74, 131.52)" gradientUnits="userSpaceOnUse">
      <stop offset="0" stop-color="#fff"/>
      <stop offset="0.25" stop-color="#bfbfbf"/>
      <stop offset="0.5" stop-color="#7f7f7f"/>
      <stop offset="1"/>
    </linearGradient>
    <filter id="luminosity-noclip-11" x="289.31" y="-8442" width="46.72" height="32766" filterUnits="userSpaceOnUse" color-interpolation-filters="sRGB">
      <feFlood flood-color="#fff" result="bg"/>
      <feBlend in="SourceGraphic" in2="bg"/>
    </filter>
    <mask id="mask-11" x="289.31" y="-8442" width="46.72" height="32766" maskUnits="userSpaceOnUse">
      <g class="cls-103"/>
    </mask>
    <linearGradient id="linear-gradient-11" x1="650.02" y1="-51.97" x2="680.88" y2="-57.92" gradientTransform="matrix(0.65, 0, 0, -0.65, -139.74, 131.52)" gradientUnits="userSpaceOnUse">
      <stop offset="0"/>
      <stop offset="0.11" stop-color="#f2f2f2"/>
      <stop offset="0.22" stop-color="#e6e6e6"/>
      <stop offset="0.51" stop-color="#7f7f7f"/>
      <stop offset="1"/>
    </linearGradient>
    <filter id="luminosity-noclip-12" x="314.76" y="-8442" width="20.13" height="32766" filterUnits="userSpaceOnUse" color-interpolation-filters="sRGB">
      <feFlood flood-color="#fff" result="bg"/>
      <feBlend in="SourceGraphic" in2="bg"/>
    </filter>
    <mask id="mask-12" x="314.76" y="-8442" width="20.13" height="32766" maskUnits="userSpaceOnUse">
      <g class="cls-102"/>
    </mask>
    <linearGradient id="linear-gradient-12" x1="322.4" y1="-362.16" x2="322.25" y2="-371.61" gradientTransform="matrix(0.65, 0, 0, -0.65, 115.18, 21.47)" gradientUnits="userSpaceOnUse">
      <stop offset="0" stop-color="#fff"/>
      <stop offset="0.5" stop-color="#e6e6e6"/>
      <stop offset="0.7" stop-color="#7f7f7f"/>
      <stop offset="1"/>
    </linearGradient>
    <filter id="luminosity-noclip-13" x="150.4" y="-8442" width="187.42" height="32766" filterUnits="userSpaceOnUse" color-interpolation-filters="sRGB">
      <feFlood flood-color="#fff" result="bg"/>
      <feBlend in="SourceGraphic" in2="bg"/>
    </filter>
    <mask id="mask-13" x="150.4" y="-8442" width="187.42" height="32766" maskUnits="userSpaceOnUse">
      <g class="cls-101"/>
    </mask>
    <radialGradient id="radial-gradient" cx="117.86" cy="-336.08" r="93.71" gradientTransform="matrix(0.12, 0.5, 0.64, -0.15, 447.84, 75.67)" gradientUnits="userSpaceOnUse">
      <stop offset="0" stop-color="#e6e6e6"/>
      <stop offset="0.75" stop-color="#737373"/>
      <stop offset="1"/>
    </radialGradient>
    <filter id="luminosity-noclip-14" x="154.41" y="-8442" width="196.47" height="32766" filterUnits="userSpaceOnUse" color-interpolation-filters="sRGB">
      <feFlood flood-color="#fff" result="bg"/>
      <feBlend in="SourceGraphic" in2="bg"/>
    </filter>
    <mask id="mask-14" x="154.41" y="-8442" width="196.47" height="32766" maskUnits="userSpaceOnUse">
      <g class="cls-100"/>
    </mask>
    <linearGradient id="linear-gradient-13" x1="461.77" y1="200.35" x2="673.78" y2="108.9" gradientTransform="matrix(0.65, 0, 0, -0.65, -139.74, 295.66)" gradientUnits="userSpaceOnUse">
      <stop offset="0"/>
      <stop offset="0.39" stop-color="#f2f2f2"/>
      <stop offset="0.47" stop-color="#e6e6e6"/>
      <stop offset="0.7" stop-color="#7f7f7f"/>
      <stop offset="1"/>
    </linearGradient>
    <linearGradient id="linear-gradient-14" x1="-379.7" y1="-238.69" x2="-378.62" y2="-204.04" gradientTransform="matrix(0.65, 0, 0, -0.65, 497.7, 109.89)" xlink:href="#linear-gradient-4"/>
    <filter id="luminosity-noclip-16" x="154.86" y="-8442" width="196.53" height="32766" filterUnits="userSpaceOnUse" color-interpolation-filters="sRGB">
      <feFlood flood-color="#fff" result="bg"/>
      <feBlend in="SourceGraphic" in2="bg"/>
    </filter>
    <mask id="mask-16" x="154.86" y="-8442" width="196.53" height="32766" maskUnits="userSpaceOnUse">
      <g class="cls-99"/>
    </mask>
    <linearGradient id="linear-gradient-15" x1="504.81" y1="231.48" x2="533.82" y2="200.89" gradientTransform="matrix(0.65, 0, 0, -0.65, -139.03, 294.95)" xlink:href="#linear-gradient-4"/>
    <linearGradient id="linear-gradient-16" x1="144.88" y1="-121.6" x2="755.41" y2="-121.6" gradientTransform="matrix(0.57, 0, 0, -0.57, -7.68, 267.88)" gradientUnits="userSpaceOnUse">
      <stop offset="0" stop-color="#646464"/>
      <stop offset="1" stop-color="#888"/>
    </linearGradient>
    <linearGradient id="linear-gradient-17" x1="451.6" y1="-180.17" x2="448.67" y2="-58.7" gradientTransform="matrix(0.57, 0, 0, -0.57, -7.68, 266.05)" gradientUnits="userSpaceOnUse">
      <stop offset="0" stop-color="#505050"/>
      <stop offset="0.06" stop-color="#525252"/>
      <stop offset="0.56" stop-color="#555"/>
      <stop offset="0.79" stop-color="#5a5a5a"/>
      <stop offset="1" stop-color="#c8c8c8"/>
    </linearGradient>
    <linearGradient id="linear-gradient-18" x1="446.21" y1="-76.75" x2="446.21" y2="-88.29" gradientTransform="matrix(0.57, 0, 0, -0.57, -7.68, 266.05)" gradientUnits="userSpaceOnUse">
      <stop offset="0" stop-color="#b8b8b8"/>
      <stop offset="1" stop-color="#828282"/>
    </linearGradient>
    <linearGradient id="linear-gradient-19" x1="702.04" y1="-77.36" x2="699.37" y2="-178.19" gradientTransform="matrix(0.57, 0, 0, -0.5, -7.67, 268.03)" gradientUnits="userSpaceOnUse">
      <stop offset="0" stop-color="#464646"/>
      <stop offset="1"/>
    </linearGradient>
    <linearGradient id="linear-gradient-20" x1="322" y1="-62.62" x2="319.33" y2="-163.45" gradientTransform="matrix(0.57, 0, 0, -0.52, -7.68, 268.65)" xlink:href="#linear-gradient-19"/>
    <linearGradient id="linear-gradient-21" x1="680.85" y1="-63.48" x2="678.18" y2="-164.32" gradientTransform="matrix(0.57, 0, 0, -0.57, -7.68, 266.05)" xlink:href="#linear-gradient-19"/>
    <linearGradient id="linear-gradient-22" x1="596.32" y1="-61.23" x2="593.65" y2="-162.07" gradientTransform="matrix(0.57, 0, 0, -0.57, -7.68, 266.05)" xlink:href="#linear-gradient-19"/>
    <linearGradient id="linear-gradient-23" x1="321.64" y1="-59.96" x2="318.97" y2="-160.8" gradientTransform="matrix(0.57, 0, 0, -0.53, -7.68, 269.32)" xlink:href="#linear-gradient-19"/>
    <linearGradient id="linear-gradient-24" x1="600.18" y1="-61.34" x2="597.5" y2="-162.18" gradientTransform="matrix(0.57, 0, 0, -0.57, -7.68, 266.05)" xlink:href="#linear-gradient-19"/>
    <linearGradient id="linear-gradient-25" x1="327.5" y1="-54.1" x2="324.82" y2="-154.94" gradientTransform="matrix(0.57, 0, 0, -0.57, -7.68, 266.05)" xlink:href="#linear-gradient-19"/>
    <linearGradient id="linear-gradient-26" x1="393.91" y1="-62.11" x2="391.75" y2="-166.77" gradientTransform="matrix(0.57, 0, 0, -0.57, -7.68, 266.05)" gradientUnits="userSpaceOnUse">
      <stop offset="0" stop-color="#787878"/>
      <stop offset="1" stop-color="#1e1e1e"/>
    </linearGradient>
    <linearGradient id="linear-gradient-27" x1="455.15" y1="-62.69" x2="458.76" y2="-147.86" gradientTransform="matrix(0.57, 0, 0, -0.57, -7.68, 266.05)" gradientUnits="userSpaceOnUse">
      <stop offset="0" stop-color="#b4b4b4"/>
      <stop offset="0.32" stop-color="#828282"/>
      <stop offset="1" stop-color="#3c3c3c"/>
    </linearGradient>
    <linearGradient id="linear-gradient-28" x1="472.24" y1="-173.9" x2="475.82" y2="-114.59" gradientTransform="matrix(0.57, 0, 0, -0.57, -7.68, 266.05)" gradientUnits="userSpaceOnUse">
      <stop offset="0" stop-color="#828282"/>
      <stop offset="0.5" stop-color="#828282"/>
      <stop offset="1" stop-color="#3c3c3c"/>
    </linearGradient>
    <linearGradient id="linear-gradient-29" x1="270.44" y1="-110.93" x2="271.88" y2="-155.68" xlink:href="#linear-gradient-28"/>
    <linearGradient id="linear-gradient-30" x1="-13.77" y1="-257.52" x2="269.31" y2="-441.4" gradientTransform="matrix(0.65, 0, 0, -0.65, 155.69, 16.83)" gradientUnits="userSpaceOnUse">
      <stop offset="0" stop-color="#000032"/>
      <stop offset="0.25" stop-color="#646464"/>
      <stop offset="0.42"/>
      <stop offset="1" stop-color="#787878"/>
    </linearGradient>
    <filter id="luminosity-noclip-17" x="161.48" y="240.54" width="156.89" height="41.93" filterUnits="userSpaceOnUse" color-interpolation-filters="sRGB">
      <feFlood flood-color="#fff" result="bg"/>
      <feBlend in="SourceGraphic" in2="bg"/>
    </filter>
    <mask id="mask-17" x="86.48" y="99.03" width="156.89" height="41.93" maskUnits="userSpaceOnUse">
      <g class="cls-98">
        <g transform="translate(-75 -141.5)">
          <g id="_Group_17" data-name="&lt;Group&gt;">
            <g class="cls-1">
              <path id="path3126" class="cls-2" d="M233.12,282.36c-8.54-.91-21.07-3.63-27.68-6a175.48,175.48,0,0,1-17.17-7.5,129.61,129.61,0,0,1-13.83-10.29c-5.24-4.51-13.65-15.11-12.92-16.28a17.1,17.1,0,0,1,4.66-1.74,11.42,11.42,0,0,1,1.65,2.51,64.24,64.24,0,0,0,15.56,17.75c8.33,6.79,14.33,9.79,26.49,13.24,25.08,7.12,54.27,6.79,77.61-.88,9.12-3,18.34-8,21.81-11.84,0.94-1,8.4-3.67,8.93-3.15s-1.09,2.89-4.71,6c-6.45,5.54-22.48,12.45-35.32,15.22-11.55,2.49-15.62,2.91-29.74,3-7.41.07-14.31,0-15.34-.07h0Z"/>
            </g>
          </g>
        </g>
      </g>
    </mask>
    <linearGradient id="linear-gradient-31" x1="100.89" y1="-190.4" x2="390.03" y2="-188.24" gradientTransform="matrix(0.65, 0, 0, -0.65, 88.17, 138.05)" gradientUnits="userSpaceOnUse">
      <stop offset="0" stop-color="#999"/>
      <stop offset="0.22" stop-color="#3c3c3c"/>
      <stop offset="0.52" stop-color="#969696"/>
      <stop offset="0.75" stop-color="#828282"/>
      <stop offset="1" stop-color="#5a5a5a"/>
    </linearGradient>
    <filter id="luminosity-noclip-18" x="154.35" y="146.48" width="196.53" height="120.94" filterUnits="userSpaceOnUse" color-interpolation-filters="sRGB">
      <feFlood flood-color="#fff" result="bg"/>
      <feBlend in="SourceGraphic" in2="bg"/>
    </filter>
    <mask id="mask-18" x="79.35" y="4.97" width="196.53" height="120.94" maskUnits="userSpaceOnUse">
      <g class="cls-97">
        <g transform="translate(-75 -141.5)">
          <g id="_Group_18" data-name="&lt;Group&gt;">
            <g class="cls-13">
              <path id="path3068-2" class="cls-14" d="M187.71,266.55c-3.76-1.19-5.83-2.38-10.46-6-10.16-7.89-17.51-17.88-20.76-28.22-1.92-6.11-2.35-10.11-2.07-19,0.22-6.79.44-8.63,1.48-12.15a59.52,59.52,0,0,1,12.18-22.69c13.6-16.33,39-28.65,64.85-31.46,7.16-.78,20.54-0.84,22.59-0.11a9.23,9.23,0,0,1,5,5.58c0.47,1.57.41,2-.51,3.83a25.16,25.16,0,0,1-2.37,3.68c-0.73.9-2.63,3.36-4.23,5.47s-5.32,6.81-8.28,10.46-7.77,10-10.7,14.06c-5.42,7.57-17.29,25.53-19.66,29.74-0.72,1.28-2,3.29-2.84,4.47a45.72,45.72,0,0,0-3.22,5.69c-1.55,3.27-1.67,3.82-1.51,7,0.22,4.28,1.55,6.5,5.38,9,5.76,3.72.52,3.42,61.32,3.42h54.23l4.7-5.07c3.63-3.91,5.06-5.85,6.3-8.53a67.25,67.25,0,0,0,4.47-14.64c0.68-3.93.26-14.46-.69-17.15a71.27,71.27,0,0,0-8.86-20.6c-7.44-11.63-18.05-20.86-33.38-29.06-2.72-1.46-9.67-4.81-9.56-4.92,0.33-.33,10.68,4,15.79,6.53,12.61,6.28,23.45,15.27,30.65,25.42,5.34,7.52,9.76,16.08,11.95,24.71a53.92,53.92,0,0,1,1.35,14.21c0,10.44-2.21,17.29-7.31,27.24-3.58,7-4.4,7.88-9.82,10.73l-6,2.18-53.5.33c-54.61.34-54.76,0-60.08-1-11.39-2.2-16.05-4.91-19-11.07-1.48-3.05-1.81-9-.74-13.25,2.45-9.76,19.23-35.76,42.71-66.17,4.47-5.79,8.34-10.92,8.6-11.41,1.24-2.32,0-3.85-3.53-4.37-2.46-.36-15,1.59-20.44,3.18-13.27,3.89-18.4,5.88-25,9.69-10,5.74-18.15,12.78-23.83,20.53-6.06,8.26-8.46,13.46-10.75,23.21-1.35,5.77-1,14.77.74,21.17,3.71,13.34,11.57,23.71,25.2,33.21a37.8,37.8,0,0,1,3.83,2.86c0,0.38-1.66.1-4.18-.7h0Z"/>
            </g>
          </g>
        </g>
      </g>
    </mask>
    <linearGradient id="linear-gradient-32" x1="-376.62" y1="-276.47" x2="-377.16" y2="-205.54" gradientTransform="matrix(0.65, 0, 0, -0.65, 497.7, 109.89)" gradientUnits="userSpaceOnUse">
      <stop offset="0"/>
      <stop offset="1"/>
    </linearGradient>
    <linearGradient id="linear-gradient-33" x1="-455.89" y1="-74.16" x2="-248.71" y2="-310.24" gradientTransform="matrix(0.65, 0, 0, -0.65, 498.07, 110.02)" gradientUnits="userSpaceOnUse">
      <stop offset="0" stop-color="#5a5a5a"/>
      <stop offset="0.27" stop-color="#505050"/>
      <stop offset="0.63" stop-color="#666"/>
      <stop offset="0.67" stop-color="#666"/>
      <stop offset="1" stop-color="#666"/>
    </linearGradient>
    <filter id="luminosity-noclip-19" x="154.41" y="146.48" width="196.47" height="114.35" filterUnits="userSpaceOnUse" color-interpolation-filters="sRGB">
      <feFlood flood-color="#fff" result="bg"/>
      <feBlend in="SourceGraphic" in2="bg"/>
    </filter>
    <mask id="mask-19" x="79.41" y="4.97" width="196.47" height="114.35" maskUnits="userSpaceOnUse">
      <g class="cls-96">
        <g transform="translate(-75 -141.5)">
          <g id="_Group_19" data-name="&lt;Group&gt;">
            <g class="cls-25">
              <path id="path3305" class="cls-26" d="M154.43,213.4c0.22-6.79.44-8.63,1.48-12.15a59.52,59.52,0,0,1,12.18-22.69c13.6-16.33,39-28.65,64.85-31.46,7.16-.78,20.54-0.84,22.59-0.11a9.23,9.23,0,0,1,5,5.58c0.47,1.57.41,2-.51,3.83a25.16,25.16,0,0,1-2.37,3.68c-0.73.9-2.63,3.36-4.23,5.47s-5.32,6.81-8.28,10.46-7.77,10-10.7,14.06c-5.42,7.57-17.29,25.53-19.66,29.74-0.72,1.28-2,3.29-2.84,4.47a45.72,45.72,0,0,0-3.22,5.69c-1.55,3.27-1.67,3.82-1.51,7,0.22,4.28,1.55,6.5,5.38,9,5.76,3.72.52,3.42,61.32,3.42h54.23l4.7-5.07c3.63-3.91,5.06-5.85,6.3-8.53a67.25,67.25,0,0,0,4.47-14.64c0.68-3.93.26-14.46-.69-17.15-1.79-7.28-5.84-13.51-9.74-19.72-7.44-11.63-18.05-20.86-33.38-29.06a76.72,76.72,0,0,1-8.68-5.8c0.33-.33,10.68,4,15.79,6.53,12.61,6.28,23.45,15.27,30.65,25.42,5.34,7.52,9.76,16.08,11.95,24.71a53.91,53.91,0,0,1,1.35,14.21c0,10.44-2.21,17.29-7.31,27.24-3.58,7-4.4,7.88-9.82,10.73l-6,2.18-53.5.33c-54.61.34-54.76,0-60.08-1-11.39-2.2-16.05-4.91-19-11.07-1.48-3.05-1.81-9-.74-13.25,2.45-9.76,19.23-35.76,42.71-66.17,4.47-5.79,8.34-10.92,8.6-11.41,1.24-2.32,0-3.85-3.53-4.37-2.46-.36-15,1.59-20.44,3.18-13.27,3.89-18.4,5.88-25,9.69-10,5.74-18.15,12.78-23.83,20.53-6.06,8.26-8.46,13.46-10.75,23.21-1.35,5.76-1,14.77.74,21.17-7.72-6.45-8.6-12.16-8.43-17.78h0Z"/>
            </g>
          </g>
        </g>
      </g>
    </mask>
    <linearGradient id="linear-gradient-35" x1="461.77" y1="200.35" x2="673.78" y2="108.9" gradientTransform="matrix(0.65, 0, 0, -0.65, -139.74, 295.66)" gradientUnits="userSpaceOnUse">
      <stop offset="0" stop-color="#323232"/>
      <stop offset="0.39" stop-color="#323232"/>
      <stop offset="0.47" stop-color="#323232"/>
      <stop offset="0.7" stop-color="#e1e1e1"/>
      <stop offset="1" stop-color="#c8c8c8"/>
    </linearGradient>
    <filter id="luminosity-noclip-20" x="154.35" y="146.48" width="196.53" height="114.35" filterUnits="userSpaceOnUse" color-interpolation-filters="sRGB">
      <feFlood flood-color="#fff" result="bg"/>
      <feBlend in="SourceGraphic" in2="bg"/>
    </filter>
    <mask id="mask-20" x="79.35" y="4.97" width="196.53" height="114.35" maskUnits="userSpaceOnUse">
      <g class="cls-95">
        <g transform="translate(-75 -141.5)">
          <g id="_Group_20" data-name="&lt;Group&gt;">
            <g class="cls-13">
              <path id="path3992-7" class="cls-27" d="M156.5,232.35c-1.92-6.11-2.35-10.11-2.07-19,0.22-6.79.44-8.63,1.48-12.15a59.52,59.52,0,0,1,12.18-22.69c13.6-16.33,39-28.65,64.85-31.46,7.16-.78,20.54-0.84,22.59-0.11a9.23,9.23,0,0,1,5,5.58c0.47,1.57.41,2-.51,3.83a25.16,25.16,0,0,1-2.37,3.68c-0.73.9-2.63,3.36-4.23,5.47s-5.32,6.81-8.28,10.46-7.77,10-10.7,14.06c-5.42,7.57-17.29,25.53-19.66,29.74-0.72,1.28-2,3.29-2.84,4.47a45.73,45.73,0,0,0-3.22,5.69c-1.55,3.27-1.67,3.82-1.51,7,0.22,4.28,1.55,6.5,5.38,9,5.76,3.72.52,3.42,61.32,3.42h54.23l4.7-5.07c3.63-3.91,5.06-5.85,6.3-8.53a67.25,67.25,0,0,0,4.47-14.64c0.68-3.93.26-14.46-.69-17.15a71.27,71.27,0,0,0-8.86-20.6c-7.44-11.63-18.05-20.86-33.38-29.06-2.72-1.46-9.67-4.81-9.56-4.92,0.33-.33,10.68,4,15.79,6.53,12.61,6.28,23.45,15.27,30.65,25.42,5.34,7.52,9.76,16.08,11.95,24.71a53.91,53.91,0,0,1,1.35,14.21c0,10.44-2.21,17.29-7.31,27.24-3.58,7-4.4,7.88-9.82,10.73l-6,2.18-53.5.33c-54.61.34-54.76,0-60.08-1-11.39-2.2-16.05-4.91-19-11.07-1.48-3.05-1.81-9-.74-13.25,2.45-9.76,19.23-35.76,42.71-66.17,4.47-5.79,8.34-10.92,8.6-11.41,1.24-2.32,0-3.85-3.53-4.37-2.46-.36-15,1.59-20.44,3.18-13.27,3.89-18.4,5.88-25,9.69-10,5.74-18.15,12.78-23.83,20.53-6.06,8.26-8.46,13.46-10.75,23.21-1.35,5.76-1,14.77.74,21.17-2.17,1.27,3.62,10.09-6.37,1.18h0Z"/>
            </g>
          </g>
        </g>
      </g>
    </mask>
    <linearGradient id="linear-gradient-36" x1="-379.7" y1="-238.69" x2="-378.62" y2="-204.04" xlink:href="#linear-gradient-32"/>
    <filter id="luminosity-noclip-21" x="154.86" y="145.97" width="196.53" height="114.35" filterUnits="userSpaceOnUse" color-interpolation-filters="sRGB">
      <feFlood flood-color="#fff" result="bg"/>
      <feBlend in="SourceGraphic" in2="bg"/>
    </filter>
    <mask id="mask-21" x="79.86" y="4.46" width="196.53" height="114.35" maskUnits="userSpaceOnUse">
      <g class="cls-94">
        <g transform="translate(-75 -141.5)">
          <g id="_Group_21" data-name="&lt;Group&gt;">
            <g class="cls-28">
              <path id="path3274" class="cls-29" d="M157,231.84c-1.92-6.11-2.35-10.11-2.07-19,0.22-6.79.44-8.63,1.48-12.15A59.52,59.52,0,0,1,168.6,178c13.6-16.33,39-28.65,64.85-31.46,7.16-.78,20.54-0.84,22.59-0.11a9.23,9.23,0,0,1,5,5.58c0.47,1.57.41,2-.51,3.83a25.16,25.16,0,0,1-2.37,3.68c-0.73.9-2.63,3.36-4.23,5.47s-5.32,6.81-8.28,10.46-7.77,10-10.7,14.06c-5.42,7.57-17.29,25.53-19.66,29.74-0.72,1.28-2,3.29-2.84,4.47a45.73,45.73,0,0,0-3.22,5.69c-1.55,3.27-1.67,3.82-1.51,7,0.22,4.28,1.55,6.5,5.38,9,5.76,3.72.53,3.42,61.32,3.42h54.23l4.7-5.07c3.63-3.91,5.06-5.85,6.3-8.53a67.25,67.25,0,0,0,4.47-14.64c0.68-3.93.26-14.46-.69-17.15-1.79-7.28-5.84-13.51-9.74-19.72-7.44-11.63-18.05-20.86-33.38-29.06a76.73,76.73,0,0,1-8.68-5.8c0.33-.33,10.68,4,15.79,6.53,12.61,6.28,23.45,15.27,30.65,25.42,5.34,7.52,9.76,16.08,11.95,24.71a53.91,53.91,0,0,1,1.35,14.21c0,10.44-2.21,17.29-7.31,27.24-3.58,7-4.4,7.88-9.82,10.73l-6,2.18-53.5.33c-54.61.34-54.76,0-60.08-1-11.39-2.2-16.05-4.91-19-11.07-1.48-3.05-1.81-9-.74-13.25,2.45-9.76,19.23-35.76,42.71-66.17,4.47-5.79,8.34-10.92,8.6-11.41,1.24-2.32,0-3.85-3.53-4.37-2.46-.36-15,1.59-20.44,3.18-13.27,3.89-18.4,5.88-25,9.69-10,5.74-18.15,12.78-23.83,20.53-6.06,8.26-8.46,13.46-10.75,23.21-1.35,5.76-1,14.77.74,21.17-2.17,1.27-1.69.76-6.37,1.18h0Z"/>
            </g>
          </g>
        </g>
      </g>
    </mask>
    <linearGradient id="linear-gradient-37" x1="504.81" y1="231.48" x2="533.82" y2="200.89" gradientTransform="matrix(0.65, 0, 0, -0.65, -139.03, 294.95)" gradientUnits="userSpaceOnUse">
      <stop offset="0" stop-color="#28170b"/>
      <stop offset="1" stop-color="#28170b"/>
    </linearGradient>
    <filter id="luminosity-noclip-22" x="233.85" y="146.92" width="26.27" height="23.94" filterUnits="userSpaceOnUse" color-interpolation-filters="sRGB">
      <feFlood flood-color="#fff" result="bg"/>
      <feBlend in="SourceGraphic" in2="bg"/>
    </filter>
    <mask id="mask-22" x="158.85" y="5.42" width="26.27" height="23.94" maskUnits="userSpaceOnUse">
      <g class="cls-93">
        <g transform="translate(-75 -141.5)">
          <g id="_Group_22" data-name="&lt;Group&gt;">
            <g class="cls-3">
              <path id="path3068-2-3-6-4" class="cls-4" d="M233.85,147.52c6.74-.74,19.32-0.81,21.26-0.11a8.78,8.78,0,0,1,4.74,5.35c0.44,1.51.38,2-.48,3.67a24.18,24.18,0,0,1-2.23,3.53c-0.69.86-2.48,3.22-4,5.24-10.85,10.92-8.81,4.71-7.32-7.45,1.16-2.22,0-3.69-3.32-4.19-4.23-3.35-.19-2.79-8.68-6h0Z"/>
            </g>
          </g>
        </g>
      </g>
    </mask>
    <linearGradient id="linear-gradient-38" x1="-379.16" y1="-87.67" x2="-390.28" y2="-61.98" gradientTransform="matrix(0.61, 0, 0, -0.62, 483.27, 106.71)" gradientUnits="userSpaceOnUse">
      <stop offset="0" stop-color="#b3b3b3"/>
      <stop offset="0.16" stop-color="#b3b3b3"/>
      <stop offset="0.34" stop-color="#b3b3b3"/>
      <stop offset="0.41" stop-color="#b3b3b3"/>
      <stop offset="0.66" stop-color="#b3b3b3"/>
      <stop offset="1" stop-color="#b3b3b3"/>
    </linearGradient>
    <filter id="luminosity-noclip-23" x="193.92" y="176.72" width="106.34" height="83.43" filterUnits="userSpaceOnUse" color-interpolation-filters="sRGB">
      <feFlood flood-color="#fff" result="bg"/>
      <feBlend in="SourceGraphic" in2="bg"/>
    </filter>
    <mask id="mask-23" x="118.92" y="35.21" width="106.34" height="83.43" maskUnits="userSpaceOnUse">
      <g class="cls-92">
        <g transform="translate(-75 -141.5)">
          <g id="_Group_23" data-name="&lt;Group&gt;">
            <g class="cls-5">
              <path id="path3068-2-3-6" class="cls-6" d="M242.31,178.84c-2.78,3.49-7.31,9.55-10.07,13.47-5.1,7.26-16.27,24.47-18.5,28.51-0.68,1.22-1.88,3.15-2.67,4.28a44.07,44.07,0,0,0-3,5.45c-1.46,3.13-1.57,3.66-1.42,6.67,0.2,4.1,1.46,6.23,5.06,8.6,5.42,3.56.49,3.28,57.69,3.28,7.44,3.31,65.47,8.82.26,10.91-51.37.32-51.52,0-56.52-1-10.71-2.11-15.1-4.71-17.9-10.61-1.39-2.93-1.7-8.61-.69-12.7,12.68-44.07,53.84-66.28,47.8-56.88h0Z"/>
            </g>
          </g>
        </g>
      </g>
    </mask>
    <linearGradient id="linear-gradient-39" x1="-386.11" y1="-202.4" x2="-400.4" y2="-157.87" gradientTransform="matrix(0.61, 0, 0, -0.62, 478.97, 111.78)" gradientUnits="userSpaceOnUse">
      <stop offset="0" stop-color="#b3b3b3"/>
      <stop offset="0.12" stop-color="#b3b3b3"/>
      <stop offset="0.29" stop-color="#b3b3b3"/>
      <stop offset="0.38" stop-color="#b3b3b3"/>
      <stop offset="0.52" stop-color="#b3b3b3"/>
      <stop offset="1" stop-color="#b3b3b3"/>
    </linearGradient>
    <linearGradient id="linear-gradient-40" x1="681.32" y1="-27.43" x2="723.96" y2="-154.76" gradientTransform="matrix(0.65, 0, 0, -0.65, -139.74, 131.52)" gradientUnits="userSpaceOnUse">
      <stop offset="0"/>
      <stop offset="0.55" stop-color="#7d7d7d"/>
      <stop offset="0.69" stop-color="#969696"/>
      <stop offset="0.86" stop-color="#8a8a8a"/>
      <stop offset="1" stop-color="#505050"/>
    </linearGradient>
    <linearGradient id="linear-gradient-41" x1="570.72" y1="-148.6" x2="710.94" y2="-181.77" gradientTransform="matrix(0.65, 0, 0, -0.65, -139.74, 131.52)" gradientUnits="userSpaceOnUse">
      <stop offset="0" stop-color="#323232"/>
      <stop offset="0.11" stop-color="#b4b4b6"/>
      <stop offset="0.25" stop-color="#b4b4b4"/>
      <stop offset="1" stop-color="#aaa"/>
    </linearGradient>
    <filter id="luminosity-noclip-24" x="231.34" y="233.34" width="99.93" height="11.53" filterUnits="userSpaceOnUse" color-interpolation-filters="sRGB">
      <feFlood flood-color="#fff" result="bg"/>
      <feBlend in="SourceGraphic" in2="bg"/>
    </filter>
    <mask id="mask-24" x="156.34" y="91.83" width="99.93" height="11.53" maskUnits="userSpaceOnUse">
      <g class="cls-91">
        <g transform="translate(-75 -141.5)">
          <g id="_Group_24" data-name="&lt;Group&gt;">
            <g class="cls-7">
              <path id="path4184" class="cls-8" d="M236,244.16c-2.4-.3-4.62-1.85-4.62-2.78s6.18-8,6.95-8c0.26,0,.4,1,1.23,1.43,1.37,0.7,5.63.79,44.74,1l43.23,0.19,1.86,3.38c1.13,2,2.08,4,1.9,4.48-0.28.71-26.6,1.14-69.52,1.08-25.55,0-25-.6-25.76-0.7h0Z"/>
            </g>
          </g>
        </g>
      </g>
    </mask>
    <linearGradient id="linear-gradient-42" x1="647.37" y1="-154.34" x2="647.37" y2="-177.69" gradientTransform="matrix(0.65, 0, 0, -0.65, -139.74, 131.52)" gradientUnits="userSpaceOnUse">
      <stop offset="0" stop-color="#505050"/>
      <stop offset="1" stop-color="#fafafa"/>
    </linearGradient>
    <filter id="luminosity-noclip-25" x="149.14" y="141.63" width="188.48" height="143.96" filterUnits="userSpaceOnUse" color-interpolation-filters="sRGB">
      <feFlood flood-color="#fff" result="bg"/>
      <feBlend in="SourceGraphic" in2="bg"/>
    </filter>
    <mask id="mask-25" x="74.14" y="0.13" width="188.48" height="143.96" maskUnits="userSpaceOnUse">
      <g class="cls-90">
        <g transform="translate(-75 -141.5)">
          <g id="_Group_25" data-name="&lt;Group&gt;">
            <g class="cls-9">
              <path id="path3069" class="cls-10" d="M236,285.12c-44.92-3.92-80.85-30.25-86.19-63.17-3.34-20.57,5.49-40.65,25-56.76,6.7-5.54,8.46-6.68,17.08-11.05,16.12-8.16,31.77-11.88,52.28-12.43a134.59,134.59,0,0,1,28.1,1.75c7.88,1.35,8.83,1.68,11,3.9,1.59,1.59,2,2.31,2,3.63,0,2-2.21,5.09-13.92,19.41a512.94,512.94,0,0,0-33.56,45.17c-9.2,13.81-10.47,16.89-9,21.85,1.06,3.66,4.4,5.36,7.67,6,4.24,0.81,9,.62,41.13.57,16.87,0,52.66,0,53.77,0a4.66,4.66,0,0,0,3.25-1.45c3.32-4.29,4.62-6.09.23,1.71-1.88,3.34-4.74,5.92-7.89,6.58-3.65.76-99.72,0.38-105-.41a23,23,0,0,1-10.86-4.14,10,10,0,0,1-4.11-4.52,7.91,7.91,0,0,1-1-5.63c0.32-3.39,1.73-6.85,4.41-10.8,1-1.43,2.47-3.86,3.33-5.39s4.52-7.28,8.13-12.78c9.58-14.58,19.33-27.87,26.27-35.78,4.37-5,10.67-13.61,11.12-15.22,0.88-3.13-1.58-7.36-5-8.57-2.32-.82-14.65-0.65-22.08.32-40.79,5.28-71.57,28.8-76.78,58.66a77.21,77.21,0,0,0,0,20.17c2.43,13.87,11.31,26.73,25.37,36.77,5.12,3.65,16.34,9.4,23,11.78,30.12,10.78,68.29,9.07,97-4.36,6.9-3.23,9.86-5.23,14.15-9.59l3.78-3.83,6.51-.31c6.22-.3,9.66,0,9.21.76s-9.19,4.1-12.7,5.35c-2,.7-3.82,2-6.63,3.74-21.51,13.52-51.38,20.56-79,18.15h0Z"/>
            </g>
          </g>
        </g>
      </g>
    </mask>
    <linearGradient id="linear-gradient-43" x1="489.28" y1="6.67" x2="551" y2="-91.88" gradientTransform="matrix(0.65, 0, 0, -0.65, -140.03, 131.56)" gradientUnits="userSpaceOnUse">
      <stop offset="0" stop-color="#8282a9"/>
      <stop offset="1" stop-color="#a9a9a9"/>
    </linearGradient>
    <filter id="luminosity-noclip-26" x="149.65" y="141.63" width="185.24" height="143.88" filterUnits="userSpaceOnUse" color-interpolation-filters="sRGB">
      <feFlood flood-color="#fff" result="bg"/>
      <feBlend in="SourceGraphic" in2="bg"/>
    </filter>
    <mask id="mask-26" x="74.65" y="0.13" width="185.24" height="143.88" maskUnits="userSpaceOnUse">
      <g class="cls-89">
        <g transform="translate(-75 -141.5)">
          <g id="_Group_26" data-name="&lt;Group&gt;">
            <g class="cls-11">
              <path id="path3314" class="cls-12" d="M236.53,285c-44.92-3.92-80.85-30.25-86.19-63.17-3.34-20.57,5.49-40.65,25-56.76,6.7-5.54,8.46-6.68,17.08-11.05,16.12-8.16,31.77-11.88,52.28-12.43-6.72,3.28-3.06,5.75-12,6.13-40.79,5.28-71.57,28.8-76.78,58.66a77.22,77.22,0,0,0,0,20.17c2.43,13.87,11.31,26.73,25.37,36.77a121.8,121.8,0,0,0,23,11.78c30.12,10.78,68.29,9.07,97-4.36,6.9-3.23,9.86-5.23,14.15-9.59l3.78-3.83,6.51-.31c6.22-.3,9.66,0,9.21.76s-9.19,4.1-12.7,5.35c-2,.7-3.82,2-6.63,3.74-21.51,13.52-51.38,20.56-79,18.15h0Z"/>
            </g>
          </g>
        </g>
      </g>
    </mask>
    <linearGradient id="linear-gradient-44" x1="293.07" y1="-264.69" x2="217.39" y2="-290.65" gradientTransform="matrix(0.65, 0, 0, -0.65, 115.18, 21.47)" gradientUnits="userSpaceOnUse">
      <stop offset="0" stop-color="#fafafa"/>
      <stop offset="0.25" stop-color="#fafafa"/>
      <stop offset="0.5" stop-color="#e1e1e1"/>
      <stop offset="1" stop-color="#c8c8c8"/>
    </linearGradient>
    <linearGradient id="linear-gradient-45" x1="591.07" y1="-4.06" x2="589.4" y2="-271.83" gradientTransform="matrix(0.65, 0, 0, -0.65, -139.74, 131.52)" gradientUnits="userSpaceOnUse">
      <stop offset="0" stop-color="#aaa"/>
      <stop offset="0.1" stop-color="#bebebe"/>
      <stop offset="0.21" stop-color="#bebebe"/>
      <stop offset="0.55" stop-color="#b4b4b4"/>
      <stop offset="0.67" stop-color="#878787"/>
      <stop offset="0.78" stop-color="#969696"/>
      <stop offset="1" stop-color="#aaa"/>
    </linearGradient>
    <filter id="luminosity-noclip-27" x="149.14" y="141.72" width="185.24" height="143.88" filterUnits="userSpaceOnUse" color-interpolation-filters="sRGB">
      <feFlood flood-color="#fff" result="bg"/>
      <feBlend in="SourceGraphic" in2="bg"/>
    </filter>
    <mask id="mask-27" x="74.14" y="0.21" width="185.24" height="143.88" maskUnits="userSpaceOnUse">
      <g class="cls-88">
        <g transform="translate(-75 -141.5)">
          <g id="_Group_27" data-name="&lt;Group&gt;">
            <g class="cls-15">
              <path id="path4198" class="cls-16" d="M236,285.12c-44.92-3.92-80.85-30.25-86.19-63.17-3.34-20.57,5.49-40.65,25-56.76,6.7-5.54,8.46-6.68,17.08-11.05,16.12-8.16,31.77-11.88,52.28-12.43-0.43,4.47-7.5,6.14-12,6.13-40.79,5.28-71.57,28.8-76.77,58.66a77.21,77.21,0,0,0,0,20.17c2.43,13.87,11.31,26.73,25.37,36.77,5.12,3.65,16.34,9.4,23,11.78,30.12,10.78,68.29,9.07,97-4.36,6.9-3.23,9.86-5.23,14.15-9.59l3.78-3.83,6.51-.31c6.22-.3,9.66,0,9.21.76s-9.19,4.1-12.7,5.35c-2,.7-3.82,2-6.63,3.74-21.51,13.52-51.38,20.56-79,18.15h0Z"/>
            </g>
          </g>
        </g>
      </g>
    </mask>
    <linearGradient id="linear-gradient-46" x1="476.98" y1="-235.43" x2="539.24" y2="-181.29" gradientTransform="matrix(0.65, 0, 0, -0.65, -139.74, 131.52)" gradientUnits="userSpaceOnUse">
      <stop offset="0" stop-color="#e6e6e6"/>
      <stop offset="1" stop-color="#fafafa"/>
    </linearGradient>
    <filter id="luminosity-noclip-29" x="231.11" y="148.82" width="113.57" height="97.75" filterUnits="userSpaceOnUse" color-interpolation-filters="sRGB">
      <feFlood flood-color="#fff" result="bg"/>
      <feBlend in="SourceGraphic" in2="bg"/>
    </filter>
    <mask id="mask-29" x="156.11" y="7.31" width="113.57" height="97.75" maskUnits="userSpaceOnUse">
      <g class="cls-87">
        <g transform="translate(-75 -141.5)">
          <g id="_Group_29" data-name="&lt;Group&gt;">
            <g class="cls-17">
              <path id="path4500" class="cls-18" d="M241.18,246.15c-3.69-.09-10.55-5.47-10-5,3.87,3.29,20.13,3,51.94,2.91l48.27-.12,1.23-1.18A27.92,27.92,0,0,0,336,237c7-14.72,7-29.65.08-44.17a58.43,58.43,0,0,0-11.37-16,75.58,75.58,0,0,0-26.26-18.41c-8.14-3.59-8.38-2.8-8-5.06a10.4,10.4,0,0,0-.55-2.16c-1.07-3.83-.58-3,9.09,2.07,13,6.79,20,11.41,28.17,19.93,18.06,18.82,22.55,43.1,12,64.91-2,4.17-4.91,7-8.13,8-1.43.44-9.85,0.47-43.5,0.43-24.15,0-27.34.06-46.26-.39h0Z"/>
            </g>
          </g>
        </g>
      </g>
    </mask>
    <linearGradient id="linear-gradient-48" x1="610.33" y1="-91.15" x2="625.76" y2="-101.98" gradientTransform="matrix(0.65, 0, 0, -0.65, -139.74, 131.52)" gradientUnits="userSpaceOnUse">
      <stop offset="0" stop-color="#fafafa"/>
      <stop offset="0.25" stop-color="#ededed"/>
      <stop offset="0.5" stop-color="#e1e1e1"/>
      <stop offset="1" stop-color="#c8c8c8"/>
    </linearGradient>
    <linearGradient id="linear-gradient-49" x1="596.96" y1="-200.52" x2="740.45" y2="-52.16" gradientTransform="matrix(0.65, 0, 0, -0.65, -139.74, 131.52)" gradientUnits="userSpaceOnUse">
      <stop offset="0" stop-color="#969696"/>
      <stop offset="0.13" stop-color="#c0bebe"/>
      <stop offset="0.5" stop-color="#b4b4b4"/>
      <stop offset="1" stop-color="#bebebe"/>
    </linearGradient>
    <filter id="luminosity-noclip-30" x="289.31" y="149.23" width="46.72" height="43.64" filterUnits="userSpaceOnUse" color-interpolation-filters="sRGB">
      <feFlood flood-color="#fff" result="bg"/>
      <feBlend in="SourceGraphic" in2="bg"/>
    </filter>
    <mask id="mask-30" x="214.31" y="7.73" width="46.72" height="43.64" maskUnits="userSpaceOnUse">
      <g class="cls-86">
        <g transform="translate(-75 -141.5)">
          <g id="_Group_30" data-name="&lt;Group&gt;">
            <g class="cls-19">
              <path id="path3284" class="cls-20" d="M336,192.87a58.43,58.43,0,0,0-11.37-16,75.58,75.58,0,0,0-26.26-18.41c-8.14-3.59-8.38-2.8-8-5.06a10.4,10.4,0,0,0-.55-2.16c-1.07-3.83-1.2-1.74,8.47,3.31,13,6.79,20.62,10.16,28.8,18.68,7,9.5,2.35,4.43,9,19.68h0Z"/>
            </g>
          </g>
        </g>
      </g>
    </mask>
    <linearGradient id="linear-gradient-50" x1="650.02" y1="-51.97" x2="680.88" y2="-57.92" gradientTransform="matrix(0.65, 0, 0, -0.65, -139.74, 131.52)" gradientUnits="userSpaceOnUse">
      <stop offset="0"/>
      <stop offset="0.11" stop-color="#323232"/>
      <stop offset="0.22" stop-color="#323232"/>
      <stop offset="0.51" stop-color="#e1e1e1"/>
      <stop offset="1" stop-color="#c8c8c8"/>
    </linearGradient>
    <filter id="luminosity-noclip-31" x="314.76" y="256.93" width="20.13" height="6.73" filterUnits="userSpaceOnUse" color-interpolation-filters="sRGB">
      <feFlood flood-color="#fff" result="bg"/>
      <feBlend in="SourceGraphic" in2="bg"/>
    </filter>
    <mask id="mask-31" x="239.76" y="115.43" width="20.13" height="6.73" maskUnits="userSpaceOnUse">
      <g class="cls-85">
        <g transform="translate(-75 -141.5)">
          <g id="_Group_31" data-name="&lt;Group&gt;">
            <g class="cls-21">
              <path id="path3300" class="cls-22" d="M315.36,261.18l3.78-3.83,6.51-.31c6.22-.3,9.66,0,9.21.76-4.37,4.94-23.71,8.45-19.5,3.38h0Z"/>
            </g>
          </g>
        </g>
      </g>
    </mask>
    <linearGradient id="linear-gradient-51" x1="322.4" y1="-362.16" x2="322.25" y2="-371.61" gradientTransform="matrix(0.65, 0, 0, -0.65, 115.18, 21.47)" gradientUnits="userSpaceOnUse">
      <stop offset="0" stop-color="#fafafa"/>
      <stop offset="0.5" stop-color="#fafafa"/>
      <stop offset="0.7" stop-color="#e1e1e1"/>
      <stop offset="1" stop-color="#c8c8c8"/>
    </linearGradient>
    <filter id="luminosity-noclip-32" x="150.4" y="141.5" width="187.42" height="143.96" filterUnits="userSpaceOnUse" color-interpolation-filters="sRGB">
      <feFlood flood-color="#fff" result="bg"/>
      <feBlend in="SourceGraphic" in2="bg"/>
    </filter>
    <mask id="mask-32" x="75.4" y="0" width="187.42" height="143.96" maskUnits="userSpaceOnUse">
      <g class="cls-84">
        <g transform="translate(-75 -141.5)">
          <g id="_Group_32" data-name="&lt;Group&gt;">
            <g class="cls-23">
              <path id="path3287" class="cls-24" d="M236.22,285c-44.93-3.92-79.79-28.49-85.13-61.41-3.34-20.57,5.49-40.29,25-56.4,6.7-5.54,8.68-6.7,16.77-11.42,15.61-9.1,31-13.63,51.54-14.18a134.61,134.61,0,0,1,28.1,1.75c7.88,1.35,8.83,1.68,11,3.9,1.59,1.59,2,2.31,2,3.63,0,2-2.21,5.09-13.92,19.41A513,513,0,0,0,238,215.44c-9.2,13.81-10.47,16.89-9,21.85,1.06,3.66,4.4,5.36,7.67,6,4.24,0.81,9,.62,41.13.57,16.87,0,52.66.05,53.77,0a4.66,4.66,0,0,0,3.25-1.45c3.32-4.29,4.62-6.09.23,1.71-1.88,3.34-4.74,5.92-7.89,6.58-3.65.76-99.72,0.38-105-.41a23,23,0,0,1-10.86-4.14,10,10,0,0,1-4.11-4.52,7.91,7.91,0,0,1-1-5.63c0.32-3.39,1.73-6.85,4.41-10.8,1-1.43,2.47-3.86,3.33-5.39s4.52-7.28,8.13-12.78c9.58-14.58,19.33-27.87,26.27-35.78,4.37-5,10.67-13.61,11.12-15.22,0.88-3.13-1.58-7.36-5-8.57-2.32-.82-14.65-0.65-22.08.32-40.79,5.28-71.57,28.8-76.78,58.66a77.21,77.21,0,0,0,0,20.17c2.43,13.87,11.31,26.73,25.37,36.77,5.12,3.65,16.34,9.4,23,11.78,30.12,10.78,68.29,9.07,97-4.36,6.9-3.23,9.86-5.23,14.15-9.59l3.78-3.83,6.51-.31c6.22-.3,9.66,0,9.21.76s-9.19,4.1-12.7,5.35c-2,.7-3.82,2-6.63,3.74-21.51,13.52-51.38,20.56-79,18.15h0Z"/>
            </g>
          </g>
        </g>
      </g>
    </mask>
    <radialGradient id="radial-gradient-2" cx="117.86" cy="-336.08" r="93.71" gradientTransform="matrix(0.12, 0.5, 0.64, -0.15, 447.84, 75.67)" gradientUnits="userSpaceOnUse">
      <stop offset="0" stop-color="#dcdcdc"/>
      <stop offset="0.75" stop-color="#e1e1e1"/>
      <stop offset="1" stop-color="#c8c8c8"/>
    </radialGradient>
  </defs>
  <title>logo-lexus</title>
  <g id="_Group_33" data-name="&lt;Group&gt;">
    <path id="path3036-2" class="cls-30" d="M93.53,357.9c-8.12-1.24-13-4.2-15-9.69l-1.06-2.92-1.61-14.76v-15.2l7.2-.11c6.41-.1,7.26,0,7.72.58s0.52,3.94.52,13.86c0,12.45,0,13.26.84,14.88a9.18,9.18,0,0,0,2.26,2.78c3,2.27,2.74,2.24,23.12,2.24h18.84l1.58-3a31.1,31.1,0,0,1,4.22-5.83,28,28,0,0,0,2.64-3c0-.13,0-2.07-2.59-2.13l-6.67-.37-1.53.49c-3.45,1.1,6.68-10.51,11.62-14.25a34.64,34.64,0,0,1,5.45-3.23c5.73-2.61,6.26-2.64,42.22-2.63h32.36l9.78,7.08c5.38,3.89,10,7.08,10.22,7.08,0.55,0,15.47-9.09,19.91-12.13l3.29-2.25,12.24-.12c8.18-.08,12.52,0,13.07.32,0.81,0.42.83,0.82,0.83,14.41,0,11.66.1,14.23,0.63,15.47a6.8,6.8,0,0,0,3.69,3.89c1.58,0.84,2.22.87,16.84,1,8.36,0.07,15.62,0,16.15-.11l1-.24L333.36,333l0.11-16.91H348.7L348.9,333l0.21,16.82,27.62,0.1,27.62,0.1,1.14-.88a6.61,6.61,0,0,0,1.71-2.23,2.67,2.67,0,0,0,0-2.7,6.6,6.6,0,0,0-1.71-2.23l-1.13-.88h-25.2c-21.9,0-26.72-.62-27.16-1.15-0.66-.78,1.47-5.09,2.68-8.3a32.57,32.57,0,0,1,5.32-8.49,28.28,28.28,0,0,1,10.13-6.31c2.83-.89,3.07-0.9,26.52-0.79l23.66,0.11,0.12,3.61c0.09,2.62,0,3.7-.41,3.94s-9.75.33-21,.34c-19.46,0-20.57,0-22.06.79-2.67,1.34-5.81,5.67-5.22,7.19,0.17,0.42,4.14.53,20.16,0.53,13.21,0,20.69.15,22.13,0.46a14,14,0,0,1,7.86,4.4,11.13,11.13,0,0,1,3.1,9.06c-0.34,6.22-4.47,10.54-11.09,11.6-3.75.6-117.09,0.58-121,0-6.83-1-10.3-3.06-12.35-7.15l-1.36-2.72-0.21-14c-0.13-9.1-.35-14-0.63-14.1-1-.32-24.47,14.51-24.47,15.45l31.08,22.06c0,0.24-6.93.44-13.65,0.44h-11l-9.77-6.89c-5.37-3.79-10-6.89-10.34-6.89-0.56,0-17,9.78-21.26,12.7l-2.2,1.49-59.94,0C111.12,358.41,96,358.28,93.53,357.9Zm117.18-6.33c1.42-.91,6.66-4.15,11.64-7.21s9.05-5.77,9.05-6c0-.42-23.92-17.74-25.15-18.2-0.38-.14-2.69.56-2,1.76l-1,2.1-19,.06c-20.73.06-21.23,0.22-22.84,1.08-2.43,1.29-7.92,6.14-7.92,7.64,0,0.68,4.42.43,25.54,0.44,12.28,0,22.71,0,22.71,0-1.7-.18-1.11,4.06-1.11,4.06l0,3.58-17.85-.16c-20.41-.18-19.4.11-22.51,2.51-1.69,1.3-5.29,6.13-4.67,6.75l51.05-.13,0.13,4c0.09,2.95.56-.14,3.87-2.24h0Z" transform="translate(-75 -141.5)"/>
    <path id="path3036" class="cls-31" d="M92.87,354.74c-8.12-1.25-13-4.24-15-9.78L76.78,342l-1.61-14.89V311.81l7.2-.11c6.41-.1,7.26,0,7.72.59s0.52,4,.52,14c0,12.55,0,13.37.84,15a9.25,9.25,0,0,0,2.26,2.81c3,2.29,2.74,2.26,23.12,2.26h18.84l1.58-3a31.35,31.35,0,0,1,4.22-5.88,28.13,28.13,0,0,0,2.64-3.07,23.54,23.54,0,0,0-4.63-.35l-4.63-.12,0.09-1.57c0.22-3.65,5.05-10.6,10-14.37a34.59,34.59,0,0,1,5.45-3.26c5.73-2.63,6.26-2.66,42.22-2.65H225l9.78,7.14c5.38,3.93,10,7.14,10.22,7.14,0.55,0,15.47-9.17,19.91-12.24l3.29-2.27,12.55,0c12.82,0,12.52,0,13.07.32,0.81,0.43.52,0.67,0.52,14.38,0,11.76.1,14.35,0.63,15.6a6.84,6.84,0,0,0,3.69,3.93c1.58,0.84,2.22.88,16.84,1,8.36,0.07,15.62,0,16.15-.11l1-.24,0.11-17.05,0.11-17.05H348l0.21,17,0.21,17,27.62,0.11,27.62,0.1,1.14-.89a6.66,6.66,0,0,0,1.71-2.25,2.71,2.71,0,0,0,0-2.72,6.65,6.65,0,0,0-1.71-2.25l-1.13-.89h-25.2c-21.9,0-25.27-.08-25.72-0.61-0.66-.79,0-5.68,1.24-8.91a32.89,32.89,0,0,1,5.32-8.57,28.25,28.25,0,0,1,10.13-6.36c2.83-.9,3.07-0.9,26.52-0.79l23.66,0.11,0.12,3.64c0.09,2.64,0,3.74-.41,4s-9.75.34-21,.34c-19.46,0-20.57,0-22.06.8-2.67,1.35-5.81,5.72-5.22,7.26,0.17,0.43,4.14.53,20.16,0.53,13.21,0,20.69.16,22.13,0.46a14,14,0,0,1,7.86,4.43,11.28,11.28,0,0,1,3.1,9.13c-0.34,6.27-4.47,10.63-11.09,11.7-3.75.6-117.09,0.59-121,0-6.83-1.05-10.3-3.08-12.35-7.21l-1.36-2.75-0.21-14.07c-0.13-9.17-.35-14.12-0.63-14.22-1-.33-24.47,14.63-24.47,15.59l29.27,23.62c0,0.24-5.13-.92-11.85-0.92h-11L249.86,348c-5.37-3.82-10-6.95-10.34-6.95-0.56,0-17,9.87-21.26,12.8l-2.2,1.5-59.94,0c-45.65,0-60.73-.16-63.24-0.55h0ZM210,348.35c1.42-.91,6.66-4.19,11.64-7.27s9.05-5.82,9.05-6.08c0-.43-20.87-16.57-24.33-19.62-1.25-1.11-2.78,2-2.06,3.22l-1.72,1.94-19,.06c-20.73.06-21.23,0.22-22.84,1.09-2.43,1.3-7.92,6.2-7.92,7.7,0,0.69,4.42.43,25.54,0.44,12.28,0,22.71,0,22.71,0-0.07.36,0,4.46,0,4.46l0,2.88-18.93.2c-20.41.22-19.4,0.11-22.51,2.53-1.69,1.32-5.29,6.18-4.67,6.8l51.05-.14,0.13,4.07c0.09,3,.56-0.14,3.87-2.26h0Z" transform="translate(-75 -141.5)"/>
    <path id="path4156" class="cls-32" d="M75.32,311.52v3.87H91.48v-3.87H75.32Zm255.18,0.23v3.88h17.7v-3.88h-17.7Zm-62.24,0-1.44,1h5.77a21.07,21.07,0,0,1,4.18.23v2.69h17v-3.92l-7.46.1-18-.11h0Zm-68.68.23-12,0c-28.4.1-30.69,0.15-31.63,0.82,0,0.29-1.3.83,1.94,0.6,0.48,0,.7.05,1.39,0,4.51,0.07,11.74-.08,27.4-0.08,17.58,0,32.18.08,32.18-.09,0-.54,1-0.86-1.2-1-2.35-.2-7.77-0.24-18.08-0.22h0Zm204.89,0.33-9.37,0c-22.18.1-24,.17-24.71,0.83,0,0.29-1,.81,1.52.59a9.25,9.25,0,0,0,1.09,0c3.52,0.07,9.17-.08,21.4-0.08,13.73,0,25.13.08,25.13-.09,0-.54.74-0.86-0.94-1-1.84-.2-6.06-0.25-14.11-0.23h0Z" transform="translate(-75 -141.5)"/>
    <g id="g3286">
      <path id="path3277" class="cls-33" d="M366.52,329.49c-1-1.67,2.48-6.38,6.38-8.55,4.42-2.45,6.16-2.62,27.25-2.63l19.71,0.23,0.31,3.2c-1,0-4.93.06-20.42,0.08-22.75,0-23,0-26.13,2.63a8.91,8.91,0,0,0-2.35,2.9,3.33,3.33,0,0,1-.56,1.34,15.22,15.22,0,0,1-2.82,1.12,2,2,0,0,1-1,.25,0.49,0.49,0,0,1-.21-0.28Z" transform="translate(-75 -141.5)"/>
      <path id="path3275" class="cls-34" d="M147.15,332.45a13.16,13.16,0,0,1,.72-2.93,16.2,16.2,0,0,1,7.3-8.34c4.25-2.49,5.41-2.59,28.7-2.62,12.9,0,20.43,0,20.43,0v3.78c-1-.12-8,0-20.26,0-21.33,0-22.35-.07-25.38,1.79a16.28,16.28,0,0,0-2.93,2.59,15.44,15.44,0,0,0-2.74,3.66c-1,.88-2.25.9-3.19,1.33a15.28,15.28,0,0,1-2.72,1.05Z" transform="translate(-75 -141.5)"/>
      <path id="path3272" class="cls-35" d="M406,344.09c0.58-2.3-2.32-5.34-5.57-6.08-0.8-.18-11.37-0.23-23.49-0.12s-22.69-.05-23.51-0.06-1.21.06-1.38-.13c-0.32-.38.44-1.29,2-2.45l1.74-1.33,21.32,0c23.55,0,26.91.21,28.84,1.58,3.29,2.34,4.62,6.14,2.91,8.31-1.12,1.42-4.25,3.38-4.95,2.95,1.74-1.42,1.64-1.36,2.15-2.69h0Z" transform="translate(-75 -141.5)"/>
      <path id="path3270" class="cls-36" d="M332.3,347.64c-0.67-.38-1.67-0.35-1.81-0.73s-0.19-8.73-.19-17.94c0-11.75,0-15.43-.13-17.33a5.52,5.52,0,0,1,3.1,1.76l1.87,2.28L335,346.86a15.42,15.42,0,0,1,0,1.94l-2.69-1.17h0Z" transform="translate(-75 -141.5)"/>
      <path id="path3268" class="cls-37" d="M149,348.5a11.28,11.28,0,0,1,.62-4.5c0.89-2.39,4.23-5.8,6.84-7,4-1.85,4.89-1.92,24.8-1.92,13.81,0,19.83.1,19.83,0.1l0.14,3.65h-19c-11.14,0-18.58.15-19.52,0.39-3,.76-6.14,3.84-7.32,7.11-0.19.54-5.68,2.11-6.13,2.31Z" transform="translate(-75 -141.5)"/>
      <path id="path3266" class="cls-38" d="M294.13,355.52c-3.4-.44-9.21-2.42-11.29-3.86a16.88,16.88,0,0,1-4.42-5c-1.16-2.17-1.63-7.2-1.64-17.49,0-5.66,0-10.49-.16-10.61s-4.79,2.53-10,5.75c-9.68,6-12.46,7.89-14.34,8.76l-7.56,0c1-.92,29.63-19.13,31.14-19.77,1-.43.36-0.55,0.86-0.26,0.73,0.42,3.15,1.32,3.44,2,0.52,1.21.12,3.69,0.27,12.21,0.27,15,.43,15.79,3.85,19.13a16,16,0,0,0,5,3.3s2,0.6,3,.82c0.72,0.16,2.17.37,2.17,0.37l56.43,0.1,57.86,0a16.63,16.63,0,0,0,2-.44,13.58,13.58,0,0,0,1.42-.68c7.46-3.59,10-8.45,7.37-13.83a14.43,14.43,0,0,0-2.68-3.58,10.69,10.69,0,0,1-2.17-2.3c0.19-.57,4.71,1.81,6.06,3.15,3.37,3.36,4.8,10.13,2.59,14.63s-6.86,7-13.3,7.62c-5.22.47-112.23,0.39-115.93-.09h0Z" transform="translate(-75 -141.5)"/>
      <path id="path2998" class="cls-39" d="M92.67,355.38c-4.36-.62-6.35-1.3-9.3-3.19a17.53,17.53,0,0,1-6.53-7.64c-0.27-.58-0.58-1.15-0.8-1.76a10,10,0,0,1-.41-1.59,27.35,27.35,0,0,1-.32-3.25c-0.19-3.38-.13-10.16-0.13-10.16L75,312.56c0-.45,0-1.09,0-1.09a16.8,16.8,0,0,1,2.85,1.87l2.2,1.89v10.58c0,11.77.23,13.13,2.06,17,1.1,2.33,3.5,4.4,7.37,6.37,4.56,2.31,4.45,2.3,61.81,2.3h52.6l2.64-1.94c1.45-1.07,7.09-4.7,12.52-8.07s9.88-6.32,9.88-6.56c0-.87-2.48-2.75-20.94-15.88-3.56-2.53-6.3-4.36-7.68-5.62,1.32,0,4.35.08,6.24,0.08h3l9,6.4,13.08,9.32c2.25,1.61,5.33,4,5,4.16l-11.37,7.29c-3.46,2.22-7.25,4.56-8.38,5.28l-5,3.23a11.65,11.65,0,0,0-3.07,2.57,13.25,13.25,0,0,0,3.48.15h3.37l11.54-7.53c6.35-4.14,11.9-7.64,12.35-7.78,1.12-.36,1.49-0.13,12.28,7.55,5.28,3.76,10.18,7.49,10.63,7.71s2.82,0.05,5.51.18a39,39,0,0,1,4.33.19c7,2.55.83,0.33,10,3.69l-23.73,0c-1.26-.66-12.9-9.05-16.11-11.65a13.41,13.41,0,0,0-3.25-2.18,22.25,22.25,0,0,0-4.29,2.54c-2,1.4-6.64,4.53-10.23,6.95l-6.51,4.4-60.91,0c-47.16,0-61.74-.16-64.59-0.57h0Z" transform="translate(-75 -141.5)"/>
    </g>
    <path id="path3007" class="cls-40" d="M295.53,346.16a9.89,9.89,0,0,1-5.2-3.06,2.82,2.82,0,0,1-.63-0.89,10.19,10.19,0,0,1-.44-1.3,120.59,120.59,0,0,1-.51-12.3V316l2.28-2,2.44-2.19c0.09-.09.23,0,0.58,0.25,0.54,0.45.31,2.84,0.31,15.39,0,16.57,1.32,17,4.84,19.06,1.53,0.4-1.55.28-3.67-.33h0Zm-204.24-.86a7.28,7.28,0,0,1-4.58-3.59l-0.52-1.44c-0.34-8.31-.57-16.49-0.57-25l1.62-1.62a8.08,8.08,0,0,1,4.1-2.15c0.15,0.31.11,7.11,0.16,15.07,0.13,17.33-.12,16.06,3.59,18.12,1.05,0.58,3.11,1.15,3,1.34C97.83,346.42,93.08,345.74,91.29,345.31ZM342.69,332V315.52l1.44-1.26c1.57-1.38,3.84-2.68,4.14-2.37s0.32,34,.06,34.71a6,6,0,0,1-2.33,1.23,10.52,10.52,0,0,1-3.11.81c-0.22.17-.2-5.5-0.2-16.62h0Z" transform="translate(-75 -141.5)"/>
    <path id="path3124" class="cls-41" d="M351.87,337.74a38.58,38.58,0,0,1,3-12c2.22-4.54,6.17-8.9,9.8-10.81a15.53,15.53,0,0,1,3-1.33,31,31,0,0,1,5.7-1,36.89,36.89,0,0,0-4.31,2,21,21,0,0,0-7.38,6.13,14.38,14.38,0,0,0-2.78,4.86,42.84,42.84,0,0,0-1.73,8.33c-1.08.59-1,.86-5.35,3.87h0Zm-218.24-4c0-1.47,2-6,4.27-9.89,2.67-4.49,5.12-6.67,9.65-8.57,3.34-1.4,9.4-2.82,11-2.78,0.94,0-2.59,1.22-4.57,2-3.48,1.29-5.55,2.85-8.58,5.9-1.88,1.89-3.75,4.32-6.44,11L138.07,334l-2.4,0c-1.71,0-1.74-.08-2-0.25h0ZM216.35,312H225c11.48,8.47,17.95,12.86,20,14.34l-4.91,3c-11-7.89-14.15-10.49-23.7-17.37h0Z" transform="translate(-75 -141.5)"/>
    <path id="path3136" class="cls-42" d="M252.69,338.78L244.93,333h4c2.19,0,4.19-.88,4.51-0.59,0,0,6.42,5.22,29,23.3-14.56-3.73-18.75-8.79-29.73-16.95h0Z" transform="translate(-75 -141.5)"/>
    <path id="path3075" class="cls-43" d="M136.29,346.73c-0.68-.48-0.65-0.67.51-3.27,1.41-3.14,6.46-8.75,8.51-10.12a16.42,16.42,0,0,1,3.15-1.75c1.12-.41,2.19-0.92,3.14-1.29a10.32,10.32,0,0,1,3.79-.51l3.28,0-2,.73a24.08,24.08,0,0,0-9.34,5.7,26,26,0,0,0-6.66,9.68,15.62,15.62,0,0,1-1.21,2.69c-1.2,0-2.11-1.19-3.13-1.9h0Z" transform="translate(-75 -141.5)"/>
    <g id="_Group_34" data-name="&lt;Group&gt;" class="cls-44">
      <path id="path4117" class="cls-45" d="M237.16,292.67c-17.94-1.55-37.06-7.09-51.16-14.82-11.25-6.17-22.29-15.55-29.39-25a75.44,75.44,0,0,1-9.71-18.65l-1.52-4.38,0-9.9c0-9.27.1-10.19,1.27-14.51,7.77-28.56,30.54-48.61,64.61-56.89,24-5.84,57.5-5.34,77.44,1.18,5.95,1.94,6.47,2.37,5.63,4.66s-0.41,2.31,1.31-.07c0.83-1.14,1.82-2.07,2.21-2.07,1.09,0,6.39,2.17,11.93,4.89,21.7,10.64,36.54,28.34,41.56,49.57,1.07,4.53,1.23,6.17,1.23,13s-0.16,8.49-1.22,13a73.45,73.45,0,0,1-7.27,18.53c-2.77,4.72-8.14,10.37-10.25,10.79-0.84.17-5,.3-9.14,0.3-4.76,0-7.61.17-7.61,0.46s2.83,0.46,7.55.47c4.15,0,7.86.2,8.25,0.44,0.74,0.47.46,0.79-2.32,2.67-0.64.43-2.67,2-4.5,3.39-10.81,8.44-27.26,15.83-43.83,19.7a149.33,149.33,0,0,1-45.08,3.22h0Zm27.47-14c17.26-2.07,32.64-7,40.84-13.12a16.18,16.18,0,0,1,3.6-2.16,1.41,1.41,0,0,0,1.05-.62c0-.2-20.13-0.46-44.73-0.58C222.31,262,220.48,262,215.55,261c-10.95-2.08-15.6-4.74-18.67-10.67-1.21-2.33-1.31-2.94-1.3-7.6,0-4.09.22-5.64,1.08-8.06,3.59-10.07,21.41-36.83,42.29-63.51,4.26-5.44,8-10.32,8.3-10.84,1.43-2.41.22-4-3.41-4.58-2.47-.36-15,1.57-20.47,3.15-13.27,3.85-18.41,5.82-25.11,9.6-9.89,5.59-18,12.52-23.69,20.15-6.16,8.31-8.33,12.81-10.85,22.53-1.43,5.5-1.13,15.2.67,21.64a61.62,61.62,0,0,0,6.84,15.09c6.3,9.21,17.22,18.34,26.78,22.4,10.53,4.46,24.71,7.76,38.77,9a182.79,182.79,0,0,0,27.84-.65h0Zm63.06-42.16c1.73-1.11,2.81-3.27,4.05-8.12,6.09-23.72-6.39-48.29-30.7-60.4a47.67,47.67,0,0,0-5.72-2.45c-2.61-.77-3.54-2.14-3.14-4.61,0.43-2.65-.14-2.1-4.21,4.06-1.93,2.92-5.19,7.3-7.25,9.74-17.49,20.71-41.24,54.8-41.24,59.2a3.86,3.86,0,0,0,.89,1.72c0.85,1,1.2,1.1,8.71,1.35,4.3,0.14,23.51.25,42.68,0.23,30.16,0,35-.12,35.93-0.72h0Z" transform="translate(-75 -141.5)"/>
    </g>
    <g id="g3049">
      <path id="path3051" class="cls-46" d="M234.15,289.66a126,126,0,0,1-42.21-12.06c-11.33-5.46-18.53-10.51-26.21-18.36-8.61-8.8-12.82-15.24-16.75-25.67-4.71-12.47-3.07-29.15,4.28-43.68,6.19-12.24,14-20.81,26.16-28.87,4.53-3,15.77-8.76,18.73-9.61,2.08-.6-1,0.57-4.59,2.63-2.2,1.22-3.55,2-5.58,3.17a77.9,77.9,0,0,0-10.82,7.82c-13.35,10.76-21.64,23.52-24.61,37.9-1,4.7-1,15.22,0,19.92,3.53,17,13.77,31,31.25,42.58,10.05,6.66,21.7,11.56,35.29,14.85,11.48,2.78,15.81,3.22,31.31,3.22,11.3,0,15-.16,19.48-0.85,14.43-2.22,29.82-7.21,40.12-13,8.43-4.76,11.24-6.41,12-7.09a27.15,27.15,0,0,1,4.32-2.29,13.46,13.46,0,0,0,4.86-3.22c1.3-1.6,1.38-1.63,4.68-1.63,2,0,5-2.86,5-2.59A77.53,77.53,0,0,1,327,267.23a84.15,84.15,0,0,1-17.25,10.62c-12.88,6.13-23.42,9.7-39.66,11.66a164.65,164.65,0,0,1-36,.15h0Z" transform="translate(-75 -141.5)"/>
    </g>
    <g id="g3124">
      <g class="cls-47">
        <path id="path3126-2" data-name="path3126" class="cls-48" d="M233.12,282.36c-8.54-.91-21.07-3.63-27.68-6a175.48,175.48,0,0,1-17.17-7.5,129.61,129.61,0,0,1-13.83-10.29c-5.24-4.51-13.65-15.11-12.92-16.28a17.1,17.1,0,0,1,4.66-1.74,11.42,11.42,0,0,1,1.65,2.51,64.24,64.24,0,0,0,15.56,17.75c8.33,6.79,14.33,9.79,26.49,13.24,25.08,7.12,54.27,6.79,77.61-.88,9.12-3,18.34-8,21.81-11.84,0.94-1,8.4-3.67,8.93-3.15s-1.09,2.89-4.71,6c-6.45,5.54-22.48,12.45-35.32,15.22-11.55,2.49-15.62,2.91-29.74,3-7.41.07-14.31,0-15.34-.07h0Z" transform="translate(-75 -141.5)"/>
      </g>
    </g>
    <g class="cls-49">
      <path id="path3068-2-2" data-name="path3068-2" class="cls-50" d="M187.71,266.55c-3.76-1.19-5.83-2.38-10.46-6-10.16-7.89-17.51-17.88-20.76-28.22-1.92-6.11-2.35-10.11-2.07-19,0.22-6.79.44-8.63,1.48-12.15a59.52,59.52,0,0,1,12.18-22.69c13.6-16.33,39-28.65,64.85-31.46,7.16-.78,20.54-0.84,22.59-0.11a9.23,9.23,0,0,1,5,5.58c0.47,1.57.41,2-.51,3.83a25.16,25.16,0,0,1-2.37,3.68c-0.73.9-2.63,3.36-4.23,5.47s-5.32,6.81-8.28,10.46-7.77,10-10.7,14.06c-5.42,7.57-17.29,25.53-19.66,29.74-0.72,1.28-2,3.29-2.84,4.47a45.72,45.72,0,0,0-3.22,5.69c-1.55,3.27-1.67,3.82-1.51,7,0.22,4.28,1.55,6.5,5.38,9,5.76,3.72.52,3.42,61.32,3.42h54.23l4.7-5.07c3.63-3.91,5.06-5.85,6.3-8.53a67.25,67.25,0,0,0,4.47-14.64c0.68-3.93.26-14.46-.69-17.15a71.27,71.27,0,0,0-8.86-20.6c-7.44-11.63-18.05-20.86-33.38-29.06-2.72-1.46-9.67-4.81-9.56-4.92,0.33-.33,10.68,4,15.79,6.53,12.61,6.28,23.45,15.27,30.65,25.42,5.34,7.52,9.76,16.08,11.95,24.71a53.92,53.92,0,0,1,1.35,14.21c0,10.44-2.21,17.29-7.31,27.24-3.58,7-4.4,7.88-9.82,10.73l-6,2.18-53.5.33c-54.61.34-54.76,0-60.08-1-11.39-2.2-16.05-4.91-19-11.07-1.48-3.05-1.81-9-.74-13.25,2.45-9.76,19.23-35.76,42.71-66.17,4.47-5.79,8.34-10.92,8.6-11.41,1.24-2.32,0-3.85-3.53-4.37-2.46-.36-15,1.59-20.44,3.18-13.27,3.89-18.4,5.88-25,9.69-10,5.74-18.15,12.78-23.83,20.53-6.06,8.26-8.46,13.46-10.75,23.21-1.35,5.77-1,14.77.74,21.17,3.71,13.34,11.57,23.71,25.2,33.21a37.8,37.8,0,0,1,3.83,2.86c0,0.38-1.66.1-4.18-.7h0Z" transform="translate(-75 -141.5)"/>
    </g>
    <g id="g3066">
      <path id="path3992" class="cls-51" d="M188,266.64c-3.76-1.19-5.83-2.38-10.46-6-10.16-7.89-17.51-17.88-20.76-28.22-1.92-6.11-2.35-10.11-2.07-19,0.22-6.79.44-8.63,1.48-12.15a59.52,59.52,0,0,1,12.18-22.69c13.6-16.33,39-28.65,64.85-31.46,7.16-.78,20.54-0.84,22.59-0.11a9.23,9.23,0,0,1,5,5.58c0.47,1.57.41,2-.51,3.83a25.17,25.17,0,0,1-2.37,3.68c-0.73.9-2.63,3.36-4.23,5.47s-5.32,6.81-8.28,10.46-7.77,10-10.7,14.06c-5.42,7.57-17.29,25.53-19.66,29.74-0.72,1.28-2,3.29-2.84,4.47a45.73,45.73,0,0,0-3.22,5.69c-1.55,3.27-1.67,3.82-1.51,7,0.22,4.28,1.55,6.5,5.38,9,5.76,3.72.52,3.42,61.32,3.42h54.23l4.7-5.07c3.63-3.91,5.06-5.85,6.3-8.53a67.25,67.25,0,0,0,4.47-14.64c0.68-3.93.26-14.46-.69-17.15-1.79-7.28-5.67-13.76-9.58-20-7.44-11.63-17.33-19.21-32.67-27.41-2.72-1.46-16.19-8.68-9.56-7.21,0.33-.33,10.68,4,15.79,6.53,12.61,6.28,23.45,15.27,30.65,25.42,5.34,7.52,9.76,16.08,11.95,24.71a53.91,53.91,0,0,1,1.35,14.21c0,10.44-2.21,17.29-7.31,27.24-3.58,7-4.4,7.88-9.82,10.73l-6,2.18-53.5.33c-54.61.34-54.76,0-60.08-1-11.39-2.2-16.05-4.91-19-11.07-1.48-3.05-1.81-9-.74-13.25,2.45-9.76,19.23-35.76,42.71-66.17,4.47-5.79,8.34-10.92,8.6-11.41,1.24-2.32,0-3.85-3.53-4.37-2.46-.36-15,1.59-20.44,3.18-13.27,3.89-18.4,5.88-25,9.69-10,5.74-18.15,12.78-23.83,20.53-6.06,8.26-8.46,13.46-10.75,23.21-1.35,5.76-1,14.77.74,21.17,3.71,13.34,11.57,23.71,25.2,33.21a37.8,37.8,0,0,1,3.83,2.86c0,0.38-1.66.1-4.18-.7h0Z" transform="translate(-75 -141.5)"/>
      <path id="path3068" class="cls-51" d="M188,266.64c-3.76-1.19-5.83-2.38-10.46-6-10.16-7.89-17.51-17.88-20.76-28.22-1.92-6.11-2.35-10.11-2.07-19,0.22-6.79.44-8.63,1.48-12.15a59.52,59.52,0,0,1,12.18-22.69c13.6-16.33,39-28.65,64.85-31.46,7.16-.78,20.54-0.84,22.59-0.11a9.23,9.23,0,0,1,5,5.58c0.47,1.57.41,2-.51,3.83a25.17,25.17,0,0,1-2.37,3.68c-0.73.9-2.63,3.36-4.23,5.47s-5.32,6.81-8.28,10.46-7.77,10-10.7,14.06c-5.42,7.57-17.29,25.53-19.66,29.74-0.72,1.28-2,3.29-2.84,4.47a45.73,45.73,0,0,0-3.22,5.69c-1.55,3.27-1.67,3.82-1.51,7,0.22,4.28,1.55,6.5,5.38,9,5.76,3.72.52,3.42,61.32,3.42h54.23l4.7-5.07c3.63-3.91,5.06-5.85,6.3-8.53a67.25,67.25,0,0,0,4.47-14.64c0.68-3.93.26-14.46-.69-17.15a71.27,71.27,0,0,0-8.86-20.6c-7.44-11.63-18.05-20.86-33.38-29.06-2.72-1.46-9.67-4.81-9.56-4.92,0.33-.33,10.68,4,15.79,6.53,12.61,6.28,23.45,15.27,30.65,25.42,5.34,7.52,9.76,16.08,11.95,24.71a53.91,53.91,0,0,1,1.35,14.21c0,10.44-2.21,17.29-7.31,27.24-3.58,7-4.4,7.88-9.82,10.73l-6,2.18-53.5.33c-54.61.34-54.76,0-60.08-1-11.39-2.2-16.05-4.91-19-11.07-1.48-3.05-1.81-9-.74-13.25,2.45-9.76,19.23-35.76,42.71-66.17,4.47-5.79,8.34-10.92,8.6-11.41,1.24-2.32,0-3.85-3.53-4.37-2.46-.36-15,1.59-20.44,3.18-13.27,3.89-18.4,5.88-25,9.69-10,5.74-18.15,12.78-23.83,20.53-6.06,8.26-8.46,13.46-10.75,23.21-1.35,5.76-1,14.77.74,21.17,3.71,13.34,11.57,23.71,25.2,33.21a37.8,37.8,0,0,1,3.83,2.86c0,0.38-1.66.1-4.18-.7h0Z" transform="translate(-75 -141.5)"/>
    </g>
    <g class="cls-52">
      <path id="path3305-2" data-name="path3305" class="cls-53" d="M154.43,213.4c0.22-6.79.44-8.63,1.48-12.15a59.52,59.52,0,0,1,12.18-22.69c13.6-16.33,39-28.65,64.85-31.46,7.16-.78,20.54-0.84,22.59-0.11a9.23,9.23,0,0,1,5,5.58c0.47,1.57.41,2-.51,3.83a25.16,25.16,0,0,1-2.37,3.68c-0.73.9-2.63,3.36-4.23,5.47s-5.32,6.81-8.28,10.46-7.77,10-10.7,14.06c-5.42,7.57-17.29,25.53-19.66,29.74-0.72,1.28-2,3.29-2.84,4.47a45.72,45.72,0,0,0-3.22,5.69c-1.55,3.27-1.67,3.82-1.51,7,0.22,4.28,1.55,6.5,5.38,9,5.76,3.72.52,3.42,61.32,3.42h54.23l4.7-5.07c3.63-3.91,5.06-5.85,6.3-8.53a67.25,67.25,0,0,0,4.47-14.64c0.68-3.93.26-14.46-.69-17.15-1.79-7.28-5.84-13.51-9.74-19.72-7.44-11.63-18.05-20.86-33.38-29.06a76.72,76.72,0,0,1-8.68-5.8c0.33-.33,10.68,4,15.79,6.53,12.61,6.28,23.45,15.27,30.65,25.42,5.34,7.52,9.76,16.08,11.95,24.71a53.91,53.91,0,0,1,1.35,14.21c0,10.44-2.21,17.29-7.31,27.24-3.58,7-4.4,7.88-9.82,10.73l-6,2.18-53.5.33c-54.61.34-54.76,0-60.08-1-11.39-2.2-16.05-4.91-19-11.07-1.48-3.05-1.81-9-.74-13.25,2.45-9.76,19.23-35.76,42.71-66.17,4.47-5.79,8.34-10.92,8.6-11.41,1.24-2.32,0-3.85-3.53-4.37-2.46-.36-15,1.59-20.44,3.18-13.27,3.89-18.4,5.88-25,9.69-10,5.74-18.15,12.78-23.83,20.53-6.06,8.26-8.46,13.46-10.75,23.21-1.35,5.76-1,14.77.74,21.17-7.72-6.45-8.6-12.16-8.43-17.78h0Z" transform="translate(-75 -141.5)"/>
    </g>
    <g class="cls-54">
      <path id="path3992-7-2" data-name="path3992-7" class="cls-55" d="M156.5,232.35c-1.92-6.11-2.35-10.11-2.07-19,0.22-6.79.44-8.63,1.48-12.15a59.52,59.52,0,0,1,12.18-22.69c13.6-16.33,39-28.65,64.85-31.46,7.16-.78,20.54-0.84,22.59-0.11a9.23,9.23,0,0,1,5,5.58c0.47,1.57.41,2-.51,3.83a25.16,25.16,0,0,1-2.37,3.68c-0.73.9-2.63,3.36-4.23,5.47s-5.32,6.81-8.28,10.46-7.77,10-10.7,14.06c-5.42,7.57-17.29,25.53-19.66,29.74-0.72,1.28-2,3.29-2.84,4.47a45.73,45.73,0,0,0-3.22,5.69c-1.55,3.27-1.67,3.82-1.51,7,0.22,4.28,1.55,6.5,5.38,9,5.76,3.72.52,3.42,61.32,3.42h54.23l4.7-5.07c3.63-3.91,5.06-5.85,6.3-8.53a67.25,67.25,0,0,0,4.47-14.64c0.68-3.93.26-14.46-.69-17.15a71.27,71.27,0,0,0-8.86-20.6c-7.44-11.63-18.05-20.86-33.38-29.06-2.72-1.46-9.67-4.81-9.56-4.92,0.33-.33,10.68,4,15.79,6.53,12.61,6.28,23.45,15.27,30.65,25.42,5.34,7.52,9.76,16.08,11.95,24.71a53.91,53.91,0,0,1,1.35,14.21c0,10.44-2.21,17.29-7.31,27.24-3.58,7-4.4,7.88-9.82,10.73l-6,2.18-53.5.33c-54.61.34-54.76,0-60.08-1-11.39-2.2-16.05-4.91-19-11.07-1.48-3.05-1.81-9-.74-13.25,2.45-9.76,19.23-35.76,42.71-66.17,4.47-5.79,8.34-10.92,8.6-11.41,1.24-2.32,0-3.85-3.53-4.37-2.46-.36-15,1.59-20.44,3.18-13.27,3.89-18.4,5.88-25,9.69-10,5.74-18.15,12.78-23.83,20.53-6.06,8.26-8.46,13.46-10.75,23.21-1.35,5.76-1,14.77.74,21.17-2.17,1.27,3.62,10.09-6.37,1.18h0Z" transform="translate(-75 -141.5)"/>
    </g>
    <g class="cls-56">
      <path id="path3274-2" data-name="path3274" class="cls-57" d="M157,231.84c-1.92-6.11-2.35-10.11-2.07-19,0.22-6.79.44-8.63,1.48-12.15A59.52,59.52,0,0,1,168.6,178c13.6-16.33,39-28.65,64.85-31.46,7.16-.78,20.54-0.84,22.59-0.11a9.23,9.23,0,0,1,5,5.58c0.47,1.57.41,2-.51,3.83a25.16,25.16,0,0,1-2.37,3.68c-0.73.9-2.63,3.36-4.23,5.47s-5.32,6.81-8.28,10.46-7.77,10-10.7,14.06c-5.42,7.57-17.29,25.53-19.66,29.74-0.72,1.28-2,3.29-2.84,4.47a45.73,45.73,0,0,0-3.22,5.69c-1.55,3.27-1.67,3.82-1.51,7,0.22,4.28,1.55,6.5,5.38,9,5.76,3.72.53,3.42,61.32,3.42h54.23l4.7-5.07c3.63-3.91,5.06-5.85,6.3-8.53a67.25,67.25,0,0,0,4.47-14.64c0.68-3.93.26-14.46-.69-17.15-1.79-7.28-5.84-13.51-9.74-19.72-7.44-11.63-18.05-20.86-33.38-29.06a76.73,76.73,0,0,1-8.68-5.8c0.33-.33,10.68,4,15.79,6.53,12.61,6.28,23.45,15.27,30.65,25.42,5.34,7.52,9.76,16.08,11.95,24.71a53.91,53.91,0,0,1,1.35,14.21c0,10.44-2.21,17.29-7.31,27.24-3.58,7-4.4,7.88-9.82,10.73l-6,2.18-53.5.33c-54.61.34-54.76,0-60.08-1-11.39-2.2-16.05-4.91-19-11.07-1.48-3.05-1.81-9-.74-13.25,2.45-9.76,19.23-35.76,42.71-66.17,4.47-5.79,8.34-10.92,8.6-11.41,1.24-2.32,0-3.85-3.53-4.37-2.46-.36-15,1.59-20.44,3.18-13.27,3.89-18.4,5.88-25,9.69-10,5.74-18.15,12.78-23.83,20.53-6.06,8.26-8.46,13.46-10.75,23.21-1.35,5.76-1,14.77.74,21.17-2.17,1.27-1.69.76-6.37,1.18h0Z" transform="translate(-75 -141.5)"/>
    </g>
    <g id="g3066-5-8-6-6" class="cls-58">
      <g class="cls-59">
        <path id="path3068-2-3-6-4-2" data-name="path3068-2-3-6-4" class="cls-60" d="M233.85,147.52c6.74-.74,19.32-0.81,21.26-0.11a8.78,8.78,0,0,1,4.74,5.35c0.44,1.51.38,2-.48,3.67a24.18,24.18,0,0,1-2.23,3.53c-0.69.86-2.48,3.22-4,5.24-10.85,10.92-8.81,4.71-7.32-7.45,1.16-2.22,0-3.69-3.32-4.19-4.23-3.35-.19-2.79-8.68-6h0Z" transform="translate(-75 -141.5)"/>
      </g>
    </g>
    <g id="g3066-5-8-6">
      <g class="cls-61">
        <path id="path3068-2-3-6-2" data-name="path3068-2-3-6" class="cls-62" d="M242.31,178.84c-2.78,3.49-7.31,9.55-10.07,13.47-5.1,7.26-16.27,24.47-18.5,28.51-0.68,1.22-1.88,3.15-2.67,4.28a44.07,44.07,0,0,0-3,5.45c-1.46,3.13-1.57,3.66-1.42,6.67,0.2,4.1,1.46,6.23,5.06,8.6,5.42,3.56.49,3.28,57.69,3.28,7.44,3.31,65.47,8.82.26,10.91-51.37.32-51.52,0-56.52-1-10.71-2.11-15.1-4.71-17.9-10.61-1.39-2.93-1.7-8.61-.69-12.7,12.68-44.07,53.84-66.28,47.8-56.88h0Z" transform="translate(-75 -141.5)"/>
      </g>
    </g>
    <path id="path3151" class="cls-63" d="M230.13,240.46c-2.31-3.24-2.38-7-.2-12,3.83-8.7,25.49-39,41.84-58.51C281.2,158.69,285,153.33,285,151.32a5.29,5.29,0,0,0-1.68-3.2l-3-2.68,2.65,0.82c1.65,0.51,6.36,2.08,7.77,3,2.31,1.51,1.91,5.72-.45,9.83a126.07,126.07,0,0,1-9.49,12.27c-10.66,12.4-23.25,29.39-35,47.17-6.23,9.44-8.22,13.46-7.55,15.22,0.35,0.91-5.56,7.79-6.67,7.77a2.44,2.44,0,0,1-1.52-1h0Z" transform="translate(-75 -141.5)"/>
    <path id="path3120" class="cls-64" d="M329.5,243.62c-1-1.11-3.48-6.3-3.48-7.15,0-.37,1-0.37,1.43-0.71,1.27-1,2.16-3.12,3.41-8.06a49,49,0,0,0-3.65-34.17c-6.61-13.74-20.28-25.46-35.54-30.47-2.15-.71-2.84-1-3.29-1.48-0.78-.89-0.68-1.22.6-4,1-2.08,1.17-3.18,1.88-3.28,0.56-.08,3.26,1,7.28,3,19.7,9.61,32.62,21.75,39.13,36.75,3.41,7.86,4.15,11,4.44,18.66a46.13,46.13,0,0,1-5.35,24.81c-3.4,6.66-5.21,8-6.86,6.17h0Z" transform="translate(-75 -141.5)"/>
    <path id="path3025" class="cls-65" d="M236,244.16c-2.4-.3-4.62-1.85-4.62-2.78s6.18-8,6.95-8c0.26,0,.4,1,1.23,1.43,1.37,0.7,5.63.79,44.74,1l43.23,0.19,1.86,3.38c1.13,2,2.08,4,1.9,4.48-0.28.71-26.6,1.14-69.52,1.08-25.55,0-25-.6-25.76-0.7h0Z" transform="translate(-75 -141.5)"/>
    <g class="cls-66">
      <path id="path4184-2" data-name="path4184" class="cls-67" d="M236,244.16c-2.4-.3-4.62-1.85-4.62-2.78s6.18-8,6.95-8c0.26,0,.4,1,1.23,1.43,1.37,0.7,5.63.79,44.74,1l43.23,0.19,1.86,3.38c1.13,2,2.08,4,1.9,4.48-0.28.71-26.6,1.14-69.52,1.08-25.55,0-25-.6-25.76-0.7h0Z" transform="translate(-75 -141.5)"/>
    </g>
    <g class="cls-68">
      <path id="path3069-2" data-name="path3069" class="cls-69" d="M236,285.12c-44.92-3.92-80.85-30.25-86.19-63.17-3.34-20.57,5.49-40.65,25-56.76,6.7-5.54,8.46-6.68,17.08-11.05,16.12-8.16,31.77-11.88,52.28-12.43a134.59,134.59,0,0,1,28.1,1.75c7.88,1.35,8.83,1.68,11,3.9,1.59,1.59,2,2.31,2,3.63,0,2-2.21,5.09-13.92,19.41a512.94,512.94,0,0,0-33.56,45.17c-9.2,13.81-10.47,16.89-9,21.85,1.06,3.66,4.4,5.36,7.67,6,4.24,0.81,9,.62,41.13.57,16.87,0,52.66,0,53.77,0a4.66,4.66,0,0,0,3.25-1.45c3.32-4.29,4.62-6.09.23,1.71-1.88,3.34-4.74,5.92-7.89,6.58-3.65.76-99.72,0.38-105-.41a23,23,0,0,1-10.86-4.14,10,10,0,0,1-4.11-4.52,7.91,7.91,0,0,1-1-5.63c0.32-3.39,1.73-6.85,4.41-10.8,1-1.43,2.47-3.86,3.33-5.39s4.52-7.28,8.13-12.78c9.58-14.58,19.33-27.87,26.27-35.78,4.37-5,10.67-13.61,11.12-15.22,0.88-3.13-1.58-7.36-5-8.57-2.32-.82-14.65-0.65-22.08.32-40.79,5.28-71.57,28.8-76.78,58.66a77.21,77.21,0,0,0,0,20.17c2.43,13.87,11.31,26.73,25.37,36.77,5.12,3.65,16.34,9.4,23,11.78,30.12,10.78,68.29,9.07,97-4.36,6.9-3.23,9.86-5.23,14.15-9.59l3.78-3.83,6.51-.31c6.22-.3,9.66,0,9.21.76s-9.19,4.1-12.7,5.35c-2,.7-3.82,2-6.63,3.74-21.51,13.52-51.38,20.56-79,18.15h0Z" transform="translate(-75 -141.5)"/>
    </g>
    <g class="cls-70">
      <path id="path3314-2" data-name="path3314" class="cls-71" d="M236.53,285c-44.92-3.92-80.85-30.25-86.19-63.17-3.34-20.57,5.49-40.65,25-56.76,6.7-5.54,8.46-6.68,17.08-11.05,16.12-8.16,31.77-11.88,52.28-12.43-6.72,3.28-3.06,5.75-12,6.13-40.79,5.28-71.57,28.8-76.78,58.66a77.22,77.22,0,0,0,0,20.17c2.43,13.87,11.31,26.73,25.37,36.77a121.8,121.8,0,0,0,23,11.78c30.12,10.78,68.29,9.07,97-4.36,6.9-3.23,9.86-5.23,14.15-9.59l3.78-3.83,6.51-.31c6.22-.3,9.66,0,9.21.76s-9.19,4.1-12.7,5.35c-2,.7-3.82,2-6.63,3.74-21.51,13.52-51.38,20.56-79,18.15h0Z" transform="translate(-75 -141.5)"/>
    </g>
    <path id="path3116" class="cls-72" d="M236.22,285.1c-44.93-3.92-79.79-28.49-85.13-61.41-3.34-20.57,5.49-40.29,25-56.4,6.7-5.54,8.68-6.7,16.77-11.42,15.61-9.1,31-13.63,51.54-14.18a134.6,134.6,0,0,1,28.1,1.75c7.88,1.35,8.83,1.68,11,3.9,1.59,1.59,2,2.31,2,3.63,0,2-2.21,5.09-13.92,19.41A513,513,0,0,0,238,215.54c-9.2,13.81-10.47,16.89-9,21.85,1.06,3.66,4.4,5.36,7.67,6,4.24,0.81,9,.62,41.13.57,16.87,0,52.66.05,53.77,0a4.66,4.66,0,0,0,3.25-1.45c3.32-4.29,4.62-6.09.23,1.71-1.88,3.34-4.74,5.92-7.89,6.58-3.65.76-99.72,0.38-105-.41a23,23,0,0,1-10.86-4.14,10,10,0,0,1-4.11-4.52,7.91,7.91,0,0,1-1-5.63c0.32-3.39,1.73-6.85,4.41-10.8,1-1.43,2.47-3.86,3.33-5.39s4.52-7.28,8.13-12.78c9.58-14.58,19.33-27.87,26.27-35.78,4.37-5,10.67-13.61,11.12-15.22,0.88-3.13-1.58-7.36-5-8.57-2.32-.82-14.65-0.65-22.08.32-40.79,5.28-71.57,28.8-76.78,58.66a77.21,77.21,0,0,0,0,20.17c2.43,13.87,11.31,26.73,25.37,36.77,5.12,3.65,16.34,9.4,23,11.78,30.12,10.78,68.29,9.07,97-4.36,6.9-3.23,9.86-5.23,14.15-9.59l3.78-3.83,6.51-.31c6.22-.3,9.66,0,9.21.76s-9.19,4.1-12.7,5.35c-2,.7-3.82,2-6.63,3.74-21.51,13.52-51.38,20.56-79,18.15h0Z" transform="translate(-75 -141.5)"/>
    <g class="cls-73">
      <path id="path4198-2" data-name="path4198" class="cls-74" d="M236,285.12c-44.92-3.92-80.85-30.25-86.19-63.17-3.34-20.57,5.49-40.65,25-56.76,6.7-5.54,8.46-6.68,17.08-11.05,16.12-8.16,31.77-11.88,52.28-12.43-0.43,4.47-7.5,6.14-12,6.13-40.79,5.28-71.57,28.8-76.77,58.66a77.21,77.21,0,0,0,0,20.17c2.43,13.87,11.31,26.73,25.37,36.77,5.12,3.65,16.34,9.4,23,11.78,30.12,10.78,68.29,9.07,97-4.36,6.9-3.23,9.86-5.23,14.15-9.59l3.78-3.83,6.51-.31c6.22-.3,9.66,0,9.21.76s-9.19,4.1-12.7,5.35c-2,.7-3.82,2-6.63,3.74-21.51,13.52-51.38,20.56-79,18.15h0Z" transform="translate(-75 -141.5)"/>
    </g>
    <g class="cls-70">
      <path id="path3116-1-2" data-name="path3116-1" class="cls-71" d="M236.53,285c-44.92-3.92-80.85-30.25-86.19-63.17-3.34-20.57,5.49-40.65,25-56.76,6.7-5.54,8.46-6.68,17.08-11.05,16.12-8.16,31.77-11.88,52.28-12.43-6.72,3.28-3.06,5.75-12,6.13-40.79,5.28-71.57,28.8-76.78,58.66a77.22,77.22,0,0,0,0,20.17c2.43,13.87,11.31,26.73,25.37,36.77a121.8,121.8,0,0,0,23,11.78c30.12,10.78,68.29,9.07,97-4.36,6.9-3.23,9.86-5.23,14.15-9.59l3.78-3.83,6.51-.31c6.22-.3,9.66,0,9.21.76s-9.19,4.1-12.7,5.35c-2,.7-3.82,2-6.63,3.74-21.51,13.52-51.38,20.56-79,18.15h0Z" transform="translate(-75 -141.5)"/>
    </g>
    <g class="cls-75">
      <path id="path4500-2" data-name="path4500" class="cls-76" d="M241.18,246.15c-3.69-.09-10.55-5.47-10-5,3.87,3.29,20.13,3,51.94,2.91l48.27-.12,1.23-1.18A27.92,27.92,0,0,0,336,237c7-14.72,7-29.65.08-44.17a58.43,58.43,0,0,0-11.37-16,75.58,75.58,0,0,0-26.26-18.41c-8.14-3.59-8.38-2.8-8-5.06a10.4,10.4,0,0,0-.55-2.16c-1.07-3.83-.58-3,9.09,2.07,13,6.79,20,11.41,28.17,19.93,18.06,18.82,22.55,43.1,12,64.91-2,4.17-4.91,7-8.13,8-1.43.44-9.85,0.47-43.5,0.43-24.15,0-27.34.06-46.26-.39h0Z" transform="translate(-75 -141.5)"/>
    </g>
    <path id="path3155" class="cls-77" d="M241.18,244.92c-6.43-.09-12.23-5.34-11.72-4.92,3.87,3.24,21.81,2.9,53.62,2.82l48.27-.12,1.23-1.16a27.49,27.49,0,0,0,3.38-5.62c7-14.53,7-29.26.08-43.59a57.68,57.68,0,0,0-11.37-15.83,75.59,75.59,0,0,0-26.26-18.17c-8.14-3.55-8.38-2.76-8-5a10.15,10.15,0,0,0-.55-2.14c-1.07-3.78-.08-1,9.59,4,13,6.7,18.5,10.28,26.68,18.68,18.06,18.57,23.55,41.55,13,63.08-2,4.12-4.91,6.93-8.13,7.91-1.43.43-9.85,0.47-43.5,0.43-24.15,0-27.33-.13-46.26-0.39h0Z" transform="translate(-75 -141.5)"/>
    <g class="cls-78">
      <path id="path3284-2" data-name="path3284" class="cls-79" d="M336,192.87a58.43,58.43,0,0,0-11.37-16,75.58,75.58,0,0,0-26.26-18.41c-8.14-3.59-8.38-2.8-8-5.06a10.4,10.4,0,0,0-.55-2.16c-1.07-3.83-1.2-1.74,8.47,3.31,13,6.79,20.62,10.16,28.8,18.68,7,9.5,2.35,4.43,9,19.68h0Z" transform="translate(-75 -141.5)"/>
    </g>
    <g class="cls-80">
      <path id="path3300-2" data-name="path3300" class="cls-81" d="M315.36,261.18l3.78-3.83,6.51-.31c6.22-.3,9.66,0,9.21.76-4.37,4.94-23.71,8.45-19.5,3.38h0Z" transform="translate(-75 -141.5)"/>
    </g>
    <g class="cls-82">
      <path id="path3287-2" data-name="path3287" class="cls-83" d="M236.22,285c-44.93-3.92-79.79-28.49-85.13-61.41-3.34-20.57,5.49-40.29,25-56.4,6.7-5.54,8.68-6.7,16.77-11.42,15.61-9.1,31-13.63,51.54-14.18a134.61,134.61,0,0,1,28.1,1.75c7.88,1.35,8.83,1.68,11,3.9,1.59,1.59,2,2.31,2,3.63,0,2-2.21,5.09-13.92,19.41A513,513,0,0,0,238,215.44c-9.2,13.81-10.47,16.89-9,21.85,1.06,3.66,4.4,5.36,7.67,6,4.24,0.81,9,.62,41.13.57,16.87,0,52.66.05,53.77,0a4.66,4.66,0,0,0,3.25-1.45c3.32-4.29,4.62-6.09.23,1.71-1.88,3.34-4.74,5.92-7.89,6.58-3.65.76-99.72,0.38-105-.41a23,23,0,0,1-10.86-4.14,10,10,0,0,1-4.11-4.52,7.91,7.91,0,0,1-1-5.63c0.32-3.39,1.73-6.85,4.41-10.8,1-1.43,2.47-3.86,3.33-5.39s4.52-7.28,8.13-12.78c9.58-14.58,19.33-27.87,26.27-35.78,4.37-5,10.67-13.61,11.12-15.22,0.88-3.13-1.58-7.36-5-8.57-2.32-.82-14.65-0.65-22.08.32-40.79,5.28-71.57,28.8-76.78,58.66a77.21,77.21,0,0,0,0,20.17c2.43,13.87,11.31,26.73,25.37,36.77,5.12,3.65,16.34,9.4,23,11.78,30.12,10.78,68.29,9.07,97-4.36,6.9-3.23,9.86-5.23,14.15-9.59l3.78-3.83,6.51-.31c6.22-.3,9.66,0,9.21.76s-9.19,4.1-12.7,5.35c-2,.7-3.82,2-6.63,3.74-21.51,13.52-51.38,20.56-79,18.15h0Z" transform="translate(-75 -141.5)"/>
    </g>
  </g>
</svg>
