<svg xmlns="http://www.w3.org/2000/svg" xmlns:xlink="http://www.w3.org/1999/xlink" viewBox="0 0 493.33 515.14">
  <defs>
    <style>
      .cls-1 {
        isolation: isolate;
      }

      .cls-2 {
        fill: url(#linear-gradient);
      }

      .cls-3 {
        fill: url(#linear-gradient-2);
      }

      .cls-4 {
        fill: url(#linear-gradient-3);
      }

      .cls-5 {
        fill: url(#linear-gradient-4);
      }

      .cls-6 {
        fill: url(#linear-gradient-5);
      }

      .cls-7 {
        fill: url(#radial-gradient);
      }

      .cls-10, .cls-8, .cls-9 {
        opacity: 0.85;
      }

      .cls-10, .cls-16, .cls-17, .cls-8, .cls-9 {
        mix-blend-mode: multiply;
      }

      .cls-8 {
        fill: url(#radial-gradient-2);
      }

      .cls-9 {
        fill: url(#radial-gradient-3);
      }

      .cls-10 {
        fill: url(#radial-gradient-4);
      }

      .cls-11 {
        fill: url(#linear-gradient-6);
      }

      .cls-12 {
        fill: #7f7f7e;
      }

      .cls-13 {
        fill: url(#linear-gradient-7);
      }

      .cls-14 {
        fill: url(#linear-gradient-8);
      }

      .cls-15 {
        fill: url(#linear-gradient-9);
      }

      .cls-16 {
        fill: url(#linear-gradient-10);
      }

      .cls-17 {
        fill: url(#linear-gradient-11);
      }

      .cls-18 {
        fill: url(#linear-gradient-12);
      }

      .cls-19 {
        fill: url(#linear-gradient-13);
      }

      .cls-20 {
        fill: url(#linear-gradient-14);
      }

      .cls-21 {
        fill: url(#linear-gradient-15);
      }

      .cls-22 {
        fill: url(#linear-gradient-16);
      }

      .cls-23 {
        fill: url(#linear-gradient-17);
      }

      .cls-24 {
        fill: url(#linear-gradient-18);
      }

      .cls-25 {
        fill: url(#linear-gradient-19);
      }

      .cls-26 {
        fill: url(#linear-gradient-20);
      }

      .cls-27 {
        fill: url(#linear-gradient-21);
      }

      .cls-28 {
        fill: url(#linear-gradient-22);
      }

      .cls-29 {
        fill: url(#linear-gradient-23);
      }
    </style>
    <linearGradient id="linear-gradient" x1="799.38" y1="129.65" x2="645.7" y2="365.01" gradientUnits="userSpaceOnUse">
      <stop offset="0.2" stop-color="#b5b3b3"/>
      <stop offset="0.22" stop-color="#a19f9f"/>
      <stop offset="0.25" stop-color="#787676"/>
      <stop offset="0.28" stop-color="#585656"/>
      <stop offset="0.31" stop-color="#413f3f"/>
      <stop offset="0.34" stop-color="#333131"/>
      <stop offset="0.37" stop-color="#2e2c2c"/>
      <stop offset="0.45" stop-color="#343232"/>
      <stop offset="0.55" stop-color="#454242"/>
      <stop offset="0.67" stop-color="#605e5e"/>
      <stop offset="0.81" stop-color="#878484"/>
      <stop offset="0.81" stop-color="#898686"/>
      <stop offset="1"/>
    </linearGradient>
    <linearGradient id="linear-gradient-2" x1="367.75" y1="300.51" x2="395.59" y2="236.73" gradientUnits="userSpaceOnUse">
      <stop offset="0.03" stop-color="#8c8888"/>
      <stop offset="0.2" stop-color="#8c8888"/>
      <stop offset="0.99" stop-color="#403e3d"/>
    </linearGradient>
    <linearGradient id="linear-gradient-3" x1="747.96" y1="147.32" x2="713.66" y2="144.07" gradientUnits="userSpaceOnUse">
      <stop offset="0.2" stop-color="#2e2c2c"/>
      <stop offset="0.26" stop-color="#302e2e"/>
      <stop offset="0.28" stop-color="#373535"/>
      <stop offset="0.3" stop-color="#424040"/>
      <stop offset="0.31" stop-color="#535151"/>
      <stop offset="0.32" stop-color="#696767"/>
      <stop offset="0.33" stop-color="#848383"/>
      <stop offset="0.34" stop-color="#a4a3a3"/>
      <stop offset="0.35" stop-color="#c9c9c9"/>
      <stop offset="0.36" stop-color="#f2f2f2"/>
      <stop offset="0.36" stop-color="#fff"/>
      <stop offset="0.82" stop-color="#2e2c2c"/>
      <stop offset="1" stop-color="#1a1a1a"/>
    </linearGradient>
    <linearGradient id="linear-gradient-4" x1="439.36" y1="334.19" x2="467.59" y2="269.55" gradientUnits="userSpaceOnUse">
      <stop offset="0" stop-color="#b5b3b3"/>
      <stop offset="0.01" stop-color="#b4b2b2"/>
      <stop offset="0.14" stop-color="#9e9b9b"/>
      <stop offset="0.26" stop-color="#918d8d"/>
      <stop offset="0.37" stop-color="#8c8888"/>
      <stop offset="0.99"/>
    </linearGradient>
    <linearGradient id="linear-gradient-5" x1="713.89" y1="638.87" x2="209.77" y2="126.01" gradientUnits="userSpaceOnUse">
      <stop offset="0.08" stop-color="#676464"/>
      <stop offset="0.12" stop-color="#73706f"/>
      <stop offset="0.17" stop-color="#53504f"/>
      <stop offset="0.31" stop-color="#676464"/>
      <stop offset="0.47" stop-color="#e6e5e5"/>
      <stop offset="0.7" stop-color="#e6e5e5"/>
      <stop offset="0.72" stop-color="#d7d6d6"/>
      <stop offset="0.76" stop-color="#b0aeae"/>
      <stop offset="0.82" stop-color="#716e6d"/>
      <stop offset="0.84" stop-color="#575453"/>
      <stop offset="0.96" stop-color="#2e2c2c"/>
    </linearGradient>
    <radialGradient id="radial-gradient" cx="495.74" cy="192.93" r="114.97" gradientUnits="userSpaceOnUse">
      <stop offset="0.04" stop-color="#fff"/>
      <stop offset="0.47" stop-color="#fff"/>
      <stop offset="0.51" stop-color="#fbfbfb"/>
      <stop offset="0.56" stop-color="#efefee"/>
      <stop offset="0.61" stop-color="#dbdada"/>
      <stop offset="0.66" stop-color="#bebdbd"/>
      <stop offset="0.7" stop-color="#9a9898"/>
      <stop offset="0.75" stop-color="#73706f"/>
      <stop offset="0.85" stop-color="#53504f"/>
      <stop offset="1" stop-color="#2e2c2c"/>
    </radialGradient>
    <radialGradient id="radial-gradient-2" cx="521.55" cy="176.07" r="40.59" gradientTransform="translate(0 0.07) scale(1 0.96)" gradientUnits="userSpaceOnUse">
      <stop offset="0.04" stop-color="#fff"/>
      <stop offset="0.23" stop-color="#fff"/>
      <stop offset="0.29" stop-color="#f6f6f6"/>
      <stop offset="0.4" stop-color="#dcdcdc"/>
      <stop offset="0.54" stop-color="#b3b3b3"/>
      <stop offset="0.7" stop-color="#797979"/>
      <stop offset="0.89" stop-color="#313131"/>
      <stop offset="1"/>
    </radialGradient>
    <radialGradient id="radial-gradient-3" cx="496.17" cy="105.99" r="47.73" gradientUnits="userSpaceOnUse">
      <stop offset="0.23" stop-color="#fff"/>
      <stop offset="0.5" stop-color="#efefee"/>
      <stop offset="0.57" stop-color="#eae9e8"/>
      <stop offset="0.86"/>
    </radialGradient>
    <radialGradient id="radial-gradient-4" cx="576.17" cy="199.13" r="160.81" gradientUnits="userSpaceOnUse">
      <stop offset="0.04" stop-color="#fff"/>
      <stop offset="0.25" stop-color="#fff"/>
      <stop offset="0.27" stop-color="#fbfbfb"/>
      <stop offset="0.29" stop-color="#efeeee"/>
      <stop offset="0.3" stop-color="#dbdada"/>
      <stop offset="0.32" stop-color="#bebdbd"/>
      <stop offset="0.34" stop-color="#9a9898"/>
      <stop offset="0.35" stop-color="#7f7c7c"/>
      <stop offset="0.41" stop-color="#53504f"/>
      <stop offset="0.47" stop-color="#2e2c2c"/>
      <stop offset="0.86" stop-color="#2e2c2c"/>
    </radialGradient>
    <linearGradient id="linear-gradient-6" x1="463.84" y1="290.62" x2="385.11" y2="310.3" gradientUnits="userSpaceOnUse">
      <stop offset="0" stop-color="#e6e5e5"/>
      <stop offset="0.11" stop-color="#c3c1c1"/>
      <stop offset="0.26" stop-color="#999696"/>
      <stop offset="0.27" stop-color="#a29f9f"/>
      <stop offset="0.32" stop-color="#bbb8b8"/>
      <stop offset="0.38" stop-color="#cecccc"/>
      <stop offset="0.44" stop-color="#dcdada"/>
      <stop offset="0.52" stop-color="#e4e3e3"/>
      <stop offset="0.65" stop-color="#e6e5e5"/>
      <stop offset="0.9" stop-color="#fff"/>
    </linearGradient>
    <linearGradient id="linear-gradient-7" x1="1176.32" y1="126.69" x2="1999.03" y2="1129.06" gradientTransform="translate(-55.63 37.18) scale(0.44)" gradientUnits="userSpaceOnUse">
      <stop offset="0" stop-color="#fff"/>
      <stop offset="0.07" stop-color="#cbc9c9"/>
      <stop offset="0.16" stop-color="#fff"/>
      <stop offset="0.2" stop-color="#fff"/>
      <stop offset="0.22" stop-color="#f3f3f3"/>
      <stop offset="0.29" stop-color="#c6c5c5"/>
      <stop offset="0.33" stop-color="#b5b3b3"/>
      <stop offset="0.33" stop-color="#b9b7b7"/>
      <stop offset="0.36" stop-color="#d2d1d1"/>
      <stop offset="0.38" stop-color="#e6e6e6"/>
      <stop offset="0.41" stop-color="#f4f4f4"/>
      <stop offset="0.45" stop-color="#fdfcfc"/>
      <stop offset="0.5" stop-color="#fff"/>
      <stop offset="0.89" stop-color="#fff"/>
      <stop offset="0.98" stop-color="#969393"/>
    </linearGradient>
    <linearGradient id="linear-gradient-8" x1="368.45" y1="177.97" x2="736.99" y2="528.01" gradientUnits="userSpaceOnUse">
      <stop offset="0" stop-color="#c5c2c2"/>
      <stop offset="0.01" stop-color="#bfbcbc"/>
      <stop offset="0.14" stop-color="#8b8989"/>
      <stop offset="0.25" stop-color="#636161"/>
      <stop offset="0.35" stop-color="#464444"/>
      <stop offset="0.44" stop-color="#343232"/>
      <stop offset="0.51" stop-color="#2e2c2c"/>
      <stop offset="0.58" stop-color="#333131"/>
      <stop offset="0.66" stop-color="#413f3f"/>
      <stop offset="0.75" stop-color="#595757"/>
      <stop offset="0.84" stop-color="#7b7878"/>
      <stop offset="0.94" stop-color="#a5a2a2"/>
      <stop offset="1" stop-color="#c5c2c2"/>
    </linearGradient>
    <linearGradient id="linear-gradient-9" x1="546.06" y1="347.36" x2="402.45" y2="562.06" gradientUnits="userSpaceOnUse">
      <stop offset="0" stop-color="#a7a4a4"/>
      <stop offset="0.1" stop-color="#fff"/>
      <stop offset="0.35" stop-color="#dfdddd"/>
      <stop offset="0.47" stop-color="#f6f6f6"/>
      <stop offset="0.54" stop-color="#fff"/>
      <stop offset="0.54" stop-color="#f4f4f4"/>
      <stop offset="0.58" stop-color="#b3b3b3"/>
      <stop offset="0.61" stop-color="#7c7c7c"/>
      <stop offset="0.65" stop-color="#525252"/>
      <stop offset="0.67" stop-color="#333"/>
      <stop offset="0.7" stop-color="#212121"/>
      <stop offset="0.71" stop-color="#1a1a1a"/>
      <stop offset="0.72" stop-color="#373737"/>
      <stop offset="0.74" stop-color="#6c6c6c"/>
      <stop offset="0.76" stop-color="#999"/>
      <stop offset="0.77" stop-color="#bebebe"/>
      <stop offset="0.79" stop-color="#dadada"/>
      <stop offset="0.81" stop-color="#efefef"/>
      <stop offset="0.82" stop-color="#fbfbfb"/>
      <stop offset="0.84" stop-color="#fff"/>
      <stop offset="0.85" stop-color="#fafafa"/>
      <stop offset="0.86" stop-color="#ededed"/>
      <stop offset="0.87" stop-color="#d7d6d6"/>
      <stop offset="0.88" stop-color="#b7b7b7"/>
      <stop offset="0.89" stop-color="#8f8f8e"/>
      <stop offset="0.9" stop-color="#5f5e5d"/>
      <stop offset="0.91" stop-color="#2f2e2d"/>
      <stop offset="0.95" stop-color="#2f2e2d"/>
      <stop offset="1" stop-color="#5d5a59"/>
    </linearGradient>
    <linearGradient id="linear-gradient-10" x1="530.03" y1="459.19" x2="567.93" y2="481.52" gradientUnits="userSpaceOnUse">
      <stop offset="0.2" stop-color="#fff"/>
      <stop offset="0.31" stop-color="#fdfdfd"/>
      <stop offset="0.37" stop-color="#f4f4f4"/>
      <stop offset="0.42" stop-color="#e7e6e6"/>
      <stop offset="0.47" stop-color="#d3d2d2"/>
      <stop offset="0.51" stop-color="#bab8b8"/>
      <stop offset="0.52" stop-color="#afadad"/>
      <stop offset="0.84" stop-color="#2e2c2c"/>
      <stop offset="0.96" stop-color="#1f1f1f"/>
      <stop offset="1" stop-color="#1a1a1a"/>
    </linearGradient>
    <linearGradient id="linear-gradient-11" x1="551.29" y1="356.53" x2="591.16" y2="308.8" gradientUnits="userSpaceOnUse">
      <stop offset="0.02" stop-color="#fff"/>
      <stop offset="0.18" stop-color="#fff"/>
      <stop offset="0.21" stop-color="#fff"/>
      <stop offset="0.28" stop-color="#f8f7f7"/>
      <stop offset="0.38" stop-color="#e3e2e2"/>
      <stop offset="0.5" stop-color="#c5c2c2"/>
      <stop offset="0.62" stop-color="#aba8a8"/>
      <stop offset="0.83" stop-color="#83807f"/>
      <stop offset="0.95" stop-color="#73706f"/>
      <stop offset="1" stop-color="#6c6969"/>
    </linearGradient>
    <linearGradient id="linear-gradient-12" x1="639.3" y1="90.13" x2="691.24" y2="143.26" gradientUnits="userSpaceOnUse">
      <stop offset="0"/>
      <stop offset="0.04" stop-color="#020202"/>
      <stop offset="0.07" stop-color="#0b0b0b"/>
      <stop offset="0.09" stop-color="#191919"/>
      <stop offset="0.11" stop-color="#2c2c2c"/>
      <stop offset="0.12" stop-color="#464646"/>
      <stop offset="0.14" stop-color="#666565"/>
      <stop offset="0.15" stop-color="#8c8b8b"/>
      <stop offset="0.17" stop-color="#b6b5b5"/>
      <stop offset="0.18" stop-color="#e6e5e5"/>
      <stop offset="0.18" stop-color="#e2e1e1"/>
      <stop offset="0.24" stop-color="#b0afaf"/>
      <stop offset="0.29" stop-color="#858484"/>
      <stop offset="0.35" stop-color="#626161"/>
      <stop offset="0.4" stop-color="#474646"/>
      <stop offset="0.46" stop-color="#333232"/>
      <stop offset="0.52" stop-color="#282727"/>
      <stop offset="0.58" stop-color="#242323"/>
      <stop offset="0.72" stop-color="#1d1c1c"/>
      <stop offset="0.92" stop-color="#090909"/>
      <stop offset="1"/>
    </linearGradient>
    <linearGradient id="linear-gradient-13" x1="645.52" y1="310.9" x2="704.63" y2="272.09" xlink:href="#linear-gradient-12"/>
    <linearGradient id="linear-gradient-14" x1="692.96" y1="122.23" x2="770.57" y2="122.23" gradientUnits="userSpaceOnUse">
      <stop offset="0" stop-color="#403e3d"/>
      <stop offset="0.29" stop-color="#b5b3b3"/>
      <stop offset="0.29" stop-color="#b2b0b0"/>
      <stop offset="0.34" stop-color="#8a8887"/>
      <stop offset="0.39" stop-color="#6a6867"/>
      <stop offset="0.45" stop-color="#535150"/>
      <stop offset="0.49" stop-color="#454342"/>
      <stop offset="0.53" stop-color="#403e3d"/>
      <stop offset="0.76" stop-color="#1a1a1a"/>
      <stop offset="1"/>
    </linearGradient>
    <linearGradient id="linear-gradient-15" x1="376.2" y1="525.8" x2="555.16" y2="525.8" gradientUnits="userSpaceOnUse">
      <stop offset="0"/>
      <stop offset="0.05" stop-color="#020202"/>
      <stop offset="0.09" stop-color="#0b0a0a"/>
      <stop offset="0.11" stop-color="#191818"/>
      <stop offset="0.13" stop-color="#2c2b2b"/>
      <stop offset="0.15" stop-color="#464444"/>
      <stop offset="0.17" stop-color="#656363"/>
      <stop offset="0.18" stop-color="#757272"/>
      <stop offset="0.23" stop-color="#625f5f"/>
      <stop offset="0.31" stop-color="#474545"/>
      <stop offset="0.4" stop-color="#333232"/>
      <stop offset="0.49" stop-color="#282727"/>
      <stop offset="0.58" stop-color="#242323"/>
      <stop offset="0.72" stop-color="#1d1c1c"/>
      <stop offset="0.92" stop-color="#090909"/>
      <stop offset="1"/>
    </linearGradient>
    <linearGradient id="linear-gradient-16" x1="603.9" y1="457.13" x2="683.94" y2="457.13" xlink:href="#linear-gradient-15"/>
    <linearGradient id="linear-gradient-17" x1="657.49" y1="467.88" x2="804.51" y2="467.88" xlink:href="#linear-gradient-15"/>
    <linearGradient id="linear-gradient-18" x1="368.34" y1="324.31" x2="521.58" y2="324.31" gradientUnits="userSpaceOnUse">
      <stop offset="0" stop-color="#53504f"/>
      <stop offset="0.06" stop-color="#555251"/>
      <stop offset="0.09" stop-color="#5d5b5a"/>
      <stop offset="0.12" stop-color="#6b6868"/>
      <stop offset="0.14" stop-color="#7f7c7b"/>
      <stop offset="0.16" stop-color="#979595"/>
      <stop offset="0.18" stop-color="#b5b3b3"/>
      <stop offset="0.28" stop-color="#8b8a8a"/>
      <stop offset="0.39" stop-color="#616060"/>
      <stop offset="0.51" stop-color="#3e3d3d"/>
      <stop offset="0.63" stop-color="#232222"/>
      <stop offset="0.75" stop-color="#0f0f0f"/>
      <stop offset="0.87" stop-color="#040404"/>
      <stop offset="1"/>
    </linearGradient>
    <linearGradient id="linear-gradient-19" x1="371.73" y1="231.05" x2="426.27" y2="231.05" gradientUnits="userSpaceOnUse">
      <stop offset="0" stop-color="#242323"/>
      <stop offset="0.05" stop-color="#262525"/>
      <stop offset="0.08" stop-color="#2f2e2e"/>
      <stop offset="0.1" stop-color="#3d3b3b"/>
      <stop offset="0.12" stop-color="#504f4f"/>
      <stop offset="0.14" stop-color="#6a6969"/>
      <stop offset="0.16" stop-color="#8a8888"/>
      <stop offset="0.18" stop-color="#afadad"/>
      <stop offset="0.18" stop-color="#b5b3b3"/>
      <stop offset="0.28" stop-color="#8b8a8a"/>
      <stop offset="0.39" stop-color="#616060"/>
      <stop offset="0.51" stop-color="#3e3d3d"/>
      <stop offset="0.63" stop-color="#232222"/>
      <stop offset="0.75" stop-color="#0f0f0f"/>
      <stop offset="0.87" stop-color="#040404"/>
      <stop offset="1"/>
    </linearGradient>
    <linearGradient id="linear-gradient-20" x1="325.14" y1="310.59" x2="361.03" y2="310.59" gradientUnits="userSpaceOnUse">
      <stop offset="0" stop-color="#53504f"/>
      <stop offset="0.06" stop-color="#555251"/>
      <stop offset="0.1" stop-color="#5d5a5a"/>
      <stop offset="0.13" stop-color="#6b6868"/>
      <stop offset="0.16" stop-color="#7f7c7b"/>
      <stop offset="0.18" stop-color="#989595"/>
      <stop offset="0.18" stop-color="#999696"/>
      <stop offset="0.25" stop-color="#858282"/>
      <stop offset="0.4" stop-color="#626060"/>
      <stop offset="0.54" stop-color="#474545"/>
      <stop offset="0.69" stop-color="#333232"/>
      <stop offset="0.84" stop-color="#282727"/>
      <stop offset="1" stop-color="#242323"/>
    </linearGradient>
    <linearGradient id="linear-gradient-21" x1="513.89" y1="88.08" x2="517.83" y2="96.75" gradientUnits="userSpaceOnUse">
      <stop offset="0" stop-color="#fff"/>
      <stop offset="0.12" stop-color="#dcdada"/>
      <stop offset="0.91" stop-color="#373534"/>
    </linearGradient>
    <linearGradient id="linear-gradient-22" x1="464.55" y1="177.37" x2="609.55" y2="177.37" gradientUnits="userSpaceOnUse">
      <stop offset="0.69" stop-color="#fff"/>
      <stop offset="0.72" stop-color="#fafafa"/>
      <stop offset="0.75" stop-color="#eaeaea"/>
      <stop offset="0.79" stop-color="#d1d1d1"/>
      <stop offset="0.84" stop-color="#adadad"/>
      <stop offset="0.88" stop-color="#7f7f7f"/>
      <stop offset="0.93" stop-color="#474747"/>
      <stop offset="0.98" stop-color="#070707"/>
      <stop offset="0.98"/>
    </linearGradient>
    <linearGradient id="linear-gradient-23" x1="455.03" y1="536.33" x2="508.78" y2="346.21" gradientUnits="userSpaceOnUse">
      <stop offset="0" stop-color="#d5d3d3"/>
      <stop offset="0.07" stop-color="#373534"/>
      <stop offset="0.23" stop-color="#565353"/>
      <stop offset="0.35" stop-color="#676464"/>
      <stop offset="0.49" stop-color="#807d7d"/>
      <stop offset="0.6" stop-color="#918e8e"/>
      <stop offset="0.71" stop-color="#797676"/>
      <stop offset="0.87" stop-color="#565353"/>
      <stop offset="0.96" stop-color="#494646"/>
      <stop offset="1" stop-color="#8c8888"/>
    </linearGradient>
  </defs>
  <title>logo-peugeot</title>
  <g class="cls-1">
    <g id="Layer_1" data-name="Layer 1">
      <g>
        <path d="M807.65,536.06c-9.49-28.4-47.88-99.67-78.06-139.78-6.53-8.74-4.1-13.24-.59-16.06a249.76,249.76,0,0,0,28-27.73c13.42-15.35,16.66-32.69,7.18-57.8-9.44-24.86-40.65-84-47.2-103.55-7.51-22.59-8.26-32.63-3.75-44.94,5.36-14.48,13.12-15.09,19-15,3.14,0.06,5.48,3.38,5.51,4.9,0.17,6.4.49,14.28,6.7,30.77,10,26.27,35.49,43.42,43.53,46.89,5.62,2.42,6.61-1.91,6.12-4s-8.82-34.64-15-59.11c-6.52-25.65-9.8-31.21-15.6-36.64-9.26-8.77-23.28-13.47-35.16-13-26.51,1-38.22,26.64-39.66,29-1.25,2.12-1.76,3.61-4.46,1.75-7.59-5.3-29.69-23.78-31.73-35.36-1.2-6.83-2.4-7.79-9.24-10.45C616.56,75.59,593.54,66.46,568,62c-10.24-1.8-10.78-2.68-22.71-.46-20.27,3.78-32.67,8.45-47.91,16.44-8.37,4.45-9.36,7.42-11,9.54-1.27,1.65-2.63,3.63-5.66,4.63-5.06,1.63-23.86,8.64-30.3,12.38-4,2.36-6.22,4.81-4.15,9.36,3.61,8,14.42,24.72,19.14,28.92,2.86,2.54,10.06,4.28,11.76,4.65s2.9,0.92,3.55-.37,1-3.44,4.31-5.79c5-3.54,14.44-6,19.44-6.44,3.83-.32,6.15-0.44,8.13,1s6.48,6.26,8.05,11.12,0.59,6.68-2.12,7.82-10.86,3-20.31,3.75-12.08-1.85-12.75-2.44a1.67,1.67,0,0,0-2.7-.06c-1.59,2.2-4,3.62-7.64,5.46-2.09,1-3.2,3.23-1.24,6.7,6,10.36,13.91,22,21.25,24.22,5.81,1.81,8.95-.1,15.5-4.78,5.88-4.23,9.7-4.21,11.31-3s5.28,4.31,4.39,7.31c-1.56,5.21-12.05,17.61-14.07,20.17s-3.67,3.71-7.07,2.09c-5-2.37-80.27-41.44-90.32-45.36-11-4.21-18.16-5.24-29-5.73a142.72,142.72,0,0,0-27.66,1.78c-5.32,1-8.35,3.49-13.3,8.07-6.82,6.3-14,14.37-14.69,21.08-0.5,4.83,4.89,14.71,5.46,15.39s1.58,2.11,4.5,1.78,10.43-4.21,19.33-2.66c8.05,1.39,8.85,7.72,9.29,12.57a3.23,3.23,0,0,0,3.35,2.68,30.09,30.09,0,0,1,14,2.84c7.14,3.4,21.29,14.34,23.47,16.77,1.76,2,1.65,3.77-1.72,4.1-18,1.59-45.28,6.93-57.92,11.08-9,2.93-19.56,7-23.31,13.47-4.24,7.35-9.59,19.18-11.12,27.62s7.44,18.81,9.86,21.13c1.62,1.58,2.71,2.55,5.58,1,4.38-2.53,15-9.07,25.18-9.67,6.16-.36,8.63,5.44,10.12,7.58s2.92,0.64,8.44-.86c9.78-2.62,64.42-1.63,83.71-.72,8.83,0.37,21.1,1.68,30.13,6.67S513.94,345,513.94,345s-21.61,36.2-33.22,57.65C470,422.49,462.09,437.38,458.23,446c-3.58,7.89-6.48,19.07-5.84,27.88,1,12.89,1.31,19.51,1.15,25.35-0.15,5.13-4.95,5.7-11.74,7.36-9.35,2.38-28,4.1-43.14,7.83-13.76,3.43-18.88,6.65-21.36,17.29-1.93,8.26-4.76,28.84-5.1,38.36-0.17,3.85-.23,5.74,4.64,4.73a212.11,212.11,0,0,1,21.2-2.48c12.76-1,26.58-.77,37.27-0.8,19.63-.11,77.67,3.28,81.56,3.66,5,0.49,6-.11,5.61-3.57C522,567,521.19,552.44,521,543.75s-1.56-17.56,6.31-26,66.93-74.43,70.22-77.81c2.86-2.86,4.77-5.92,9.18-1.9s53.1,39.17,63,46.34,19.09,9.61,30.36,9.77c8,0.13,10.28,14.16,3.43,15.46s-17.69,3.54-25.14,5.23c-11.53,2.69-15,6.47-18.52,14.22-2.94,6.56-6.22,38.77-6.31,41.55-0.1,2-.24,4.91,2.93,4.25,14.21-2.88,36.74-3.7,60.8-2.94,27.66,0.85,54.51,3.13,58.3,3.36,4,0.29,4.44-.33,6.49-3.51,3.49-5.46,13.9-17.47,22.95-24.89C809.45,543.14,809.55,541.61,807.65,536.06ZM701.46,341.32c-7,2.3-11.59.32-15-2.95s-31.34-36.83-40.29-47.09c-4.52-5.18-7.91-17,5.68-22,11.16-4,31.18-10.49,36.74-13.4s8.47-6,9-11.64,0.49-12.15.51-14.28,2.84-3.88,4.26-1.35c1,1.78,6,11.56,12.11,22.85,9.11,17,20.64,38.17,24.41,47.28,3.53,8.73,1.8,15.36-3.62,22C728,329.81,706.6,339.63,701.46,341.32Z" transform="translate(-315.49 -60.17)"/>
        <path class="cls-2" d="M730.25,106.22a0.4,0.4,0,0,0-.26,0c-21.76-.1-43.82,25.13-39.63,62.75,2.62,23,6.13,33.53,13,48.41,3.39,7.35,40.55,78.11,42.26,85.59,2.32,10.71.25,17.41-8,24.9-9.07,8.22-24.11,17.54-34.26,21a20.59,20.59,0,0,1-6.61,1.23c-2.3,0-8-.78-18.91-14.18l48,64.08c-6.13-8.19-9.3-14.39-8.18-19.82s9.83-11.18,19.89-19.1S758.8,343.4,763.91,330A32.11,32.11,0,0,0,766,318.13c0-12.77-6.19-27.24-13.62-42.93-9.6-20.35-36.83-64.75-45.1-95.87a80.12,80.12,0,0,1-2.93-20.61c0-17.64,7.5-28.83,16.69-32.63a31,31,0,0,1,11.64-2.39,22,22,0,0,1,10,2.17c2.58,1.46,2.95,4.53,2.95,6.95v0.53c0,0.56-.09,1.87-0.09,3.8,0,7.26,1,23.21,9.44,38.69,10.66,19.66,28.6,30.64,35.65,33.6,0.59,0.26-16.49-63.11-19.56-75.06C767.58,120.45,757.74,106.5,730.25,106.22Z" transform="translate(-315.49 -60.17)"/>
        <path class="cls-3" d="M431.17,247c4.19,4.2-3.11,4-25.25,5.88-22.54,2-45.25,6.5-57.12,11-8.69,3.28-14,5.6-17.42,13.57,0,0-7.22,15.69-8.18,21.89-0.45,2.93-.32,4.62,1.21,7.09,0.85,1.31,2.93-40.9,57.41-43.68,48.2-2.46,60.07-7.52,50.65-16.73Z" transform="translate(-315.49 -60.17)"/>
        <path class="cls-4" d="M707.17,160.35s1-11,3-16.23c4.85-14.05,13.83-17,20-17,4.15,0,6,1,7.8,2.85a8,8,0,0,1,2.45,5c0.16,6.28.41,13.49,6.5,29.75,0.36,1,.75,2,1.16,2.92a87.43,87.43,0,0,1-5.79-31.55c0-2,.07-4.31.07-4.31,0-4.78-5.22-6.16-9.92-6.16A27.15,27.15,0,0,0,722,127.82c-7.61,3.08-14.57,12.61-14.89,28.83Z" transform="translate(-315.49 -60.17)"/>
        <path class="cls-5" d="M433.07,248.84c1.63,4.46-4.88,3.41-27,5.33-22.54,2-45.26,6.33-57.14,10.79-8.69,3.28-13.94,5.59-17.42,13.57,0,0-7.23,15.7-8.21,21.9-0.45,2.92.27,4.64,1.81,7.07,2.31,3.65,3.79,4.44,7.17,2.51,2.74-1.57,14.78-8.4,22.68-8.55,7.2-.16,10.37,4.23,11.42,8,0.64,2.33,3.82,1.12,4.37,1,3.15-.8,6.23-1.74,17.5-2.56,13.38-1,65.59-.54,84.76-0.09,17.24,0.4,85.14,53.67,86.14,53.92l3.43-6.87c-23.06-19.07-108.76-87-129.46-107.27Z" transform="translate(-315.49 -60.17)"/>
        <path class="cls-6" d="M628.7,290.93c10.34,12.41,41.09,49.78,67.45,83.54,41.08,52.63,66.45,93.84,93.12,154.56,2.66,6.05.63,6.72-3.61,10.13-8.18,6.63-6.45,9.32-12.53,19.82-0.69,1.2-2.26,3.16-4.19,3-5.63-.45-49.31-4.14-78-3.13-17.06.58-21.47,1.84-25.23,2.71-3,.75-4.09.44-4-3.54,0.06-1.52,3.27-19.48,5.74-26.08s6.28-9.14,12-10.72,21.91-4.58,28.45-6.21,6.87-7.88,6.27-12.6-4.37-11.05-8.66-11.83A60.51,60.51,0,0,1,689.57,486c-6.2-2.8-95.42-74.64-103.57-81.26-2.07-1.71-3.68-3-4.33-2.19s1,2.9,1.83,3.75c1.53,1.59,15,15.5,17.95,18.33,2.14,2.08,1,3.1,0,4.13-1.58,1.45-43.78,43.06-61.29,61.21S510,518.66,510.2,533.13s0.79,25.81.83,28.31c0,2.18-2.24,2.14-4.11,2-5.43-.49-47.33-4.62-70.82-5.13s-40.54,1.78-51.59,4.56c-2.6.65-3.4-.9-3.24-3.14a167.2,167.2,0,0,1,6-28.26c2.22-6.7,7.07-9.33,12.85-10.73,7.65-1.88,37.74-7.29,51.28-9.37,7.38-1.19,8.91-3.67,8.83-9.89s-0.84-19.83-1.16-26.61,1.82-14.22,4.32-20.17c10.69-25,36.92-77.9,59.71-109.38,2.62-3.65,5.27-4.27,7.8-3.64,3,0.74,16.67,11.49,17.8,12,2.41,1.22,5.59.13,4.11-1.35-8-8-32.08-22.64-46.77-34.34-29.05-23.18-59.35-56.85-83.74-79.35-12.58-11.59-26.07-20.12-36.1-22.32-3.56-.79-6.89-0.79-10-1.22a2.08,2.08,0,0,1-1.76-2.22,11.54,11.54,0,0,0-3-8.13c-2.32-2.64-7.36-3.53-10.86-3.58A73.24,73.24,0,0,0,343,203.32c-2.23.61-3.32,0.15-4.14-.82a17.43,17.43,0,0,1-2.5-6.58c-0.28-2,.29-3.45,1.43-5.6,3-5.67,10.63-11.25,15-15.35s7.38-4.38,11.64-4.93c10.25-1.23,23.87-2.08,37.69,1.07,10.09,2.28,18.09,6.27,28,11.16s67.19,34.25,74.55,37.74Z" transform="translate(-315.49 -60.17)"/>
        <path class="cls-7" d="M533.46,186.57c1.13,7.13-3.46,11.8-6.23,16.2s-8.33,10.75-11.21,14.35c-3.64,4.64-10.64,3.24-10.64,3.24s33,16.77,52,26.32c7.52,3.82,19.34.27,27.38-14.74,1.87-3.49,13.73-28.62,16.71-36.11s7.2-15.75.41-30S574,125.34,565.6,115.26c-4.4-5.26-9.57-8.48-20.72-9.09-11-.6-24.62,1-42.16,5.75-17.84,4.8-40.65,14.09-41.48,14.57a0.89,0.89,0,0,0-.15,1.29c0.21,0.49,2.6,4.62,2.6,4.62a11.24,11.24,0,0,0,4.64,4.73,29,29,0,0,0,7.64,2.93,1.34,1.34,0,0,0,1.59-.65c0.27-.39,3.64-6.83,16-10a53,53,0,0,1,13-1.89c3.22,0.08,8.21,1.67,11,4.36,4.52,4.45,8.47,11.82,9.15,15.36s0.16,7.68-3.27,9.46-13.39,4.11-19.64,4.74c-6.49.62-12.8,0.32-16.53-1.84a1.25,1.25,0,0,0-1.61.07,28.62,28.62,0,0,1-5,3.78c-0.6.35-1,1.13-.39,2.33s8.42,14.18,13.15,17.66,7.23,2,12.88-1.18,9.48-7,15.35-6.76S532.55,180.69,533.46,186.57Z" transform="translate(-315.49 -60.17)"/>
        <path class="cls-8" d="M522.89,158c-3.33,1.62-13.13,3.8-19.24,4.37-6.35.6-12.55,0.3-16.2-1.69a1.3,1.3,0,0,0-1.57.06,27.94,27.94,0,0,1-4.92,3.49,1.44,1.44,0,0,0-.41,2.16c0.59,1.1,7.65,13,12.45,16.37s7.35,1.91,13.11-1.15,9.63-6.82,15.6-6.63Z" transform="translate(-315.49 -60.17)"/>
        <path class="cls-9" d="M501.84,113.84a372.39,372.39,0,0,0-39.39,13.23,1.52,1.52,0,0,0-.15,1.7c0.21,0.44,2.46,4.19,2.46,4.19a10.25,10.25,0,0,0,4.4,4.3,30.8,30.8,0,0,0,6.81,2.8,1.34,1.34,0,0,0,1.59-.65c0.27-.39,3.64-6.83,16-10a53,53,0,0,1,13-1.89Z" transform="translate(-315.49 -60.17)"/>
        <path class="cls-10" d="M533.58,187.58c1.13,7.14-3.45,12.31-6.23,16.69S519,215,516.15,218.64a8.12,8.12,0,0,1-9,2.61s31.24,15.89,50.24,25.43c7.52,3.82,18.91,1.22,26.92-13.8,1.87-3.49,13.77-28.63,16.72-36.1Z" transform="translate(-315.49 -60.17)"/>
        <g>
          <path class="cls-11" d="M378,305.15c-1.46-.59-1.47-2.31.46-4.35,1.15-1.19,9.76-8.24,15-9.46,5.38-1.22,24.13-2.94,32.13-3.4,2.27-.11,31.32-2.71,34-2.59s9.28,10.45,17.11,19c-0.92.08-26.21-.48-47.67-0.42-20.3,0-38.21.6-44.81,1.15C382,305.22,379.22,305.64,378,305.15Z" transform="translate(-315.49 -60.17)"/>
          <path class="cls-12" d="M377.84,305.51l0.15-.36-0.15.36a1.9,1.9,0,0,1-1.3-1.84h0a4.87,4.87,0,0,1,1.63-3.14h0c1.23-1.28,9.78-8.27,15.18-9.57h0c5.41-1.24,24.18-3,32.18-3.42h0c2.19-.12,30-2.6,33.79-2.6h0a0.73,0.73,0,0,1,.23,0h0c0.91,0.06,1.82.8,3,1.93h0a58.43,58.43,0,0,1,3.92,4.55h0c3,3.68,6.58,8.37,10.47,12.62h0l0.56,0.59-0.82.06h-0.41c-3.32,0-24.9-.45-44.4-0.45h0l-2.86,0h0c-20.3,0-38.21.6-44.77,1.14h0c-1.44.13-3.1,0.36-4.49,0.36h0a5.68,5.68,0,0,1-1.87-.26h0Zm1.87-.52c1.31,0,3-.21,4.44-0.34h0c6.61-.56,24.51-1.12,44.82-1.16h2.86c18.72,0,39.4.41,43.91,0.44h0c-5.64-6.24-10.62-13.29-13.81-16.48h0a4.9,4.9,0,0,0-2.42-1.71h-0.19c-3.71,0-31.52,2.48-33.75,2.59h0c-8,.47-26.76,2.19-32,3.4h0c-5,1.14-13.75,8.22-14.79,9.36h0a4.23,4.23,0,0,0-1.41,2.59h0a1.14,1.14,0,0,0,.8,1.12h0a4.71,4.71,0,0,0,1.59.2h0Z" transform="translate(-315.49 -60.17)"/>
        </g>
        <path class="cls-13" d="M796.4,531.49c-8.78-22.12-33.59-70.1-67.58-120-33.33-49.09-89.87-115.57-97.67-126.62-7.66-10.82-10.65-23,5.28-28,10.39-3.3,35.47-8.49,45.71-11.35,10-2.73,10.68-6,11.51-13.69,0.87-8.35-1.41-48.85-6.44-73-1-5-4.41-9.19-8.43-12-3.54-2.48-17.32-14.48-24.93-23.17-8.73-10-12.69-19.38-14.12-26.61a6.17,6.17,0,0,0-2-3.22,8.5,8.5,0,0,0-2.17-1.57c-15-9.22-68-23.7-78.76-24.63-7.39-.67-33.61,2.7-57.48,17-7,4.25-7.31,9.48-12.23,12.32s-16.13,5.41-27.93,10.7c-6.5,2.9-6.54,3.38-5,7,0.62,1.54,4.86,9.25,7,9.25s4.71-1,7.32-2.09c3.48-1.37,26.75-10.38,45.25-14.33,20.58-4.4,42.71-4.78,50.57,3.54,12,12.65,33,41,39.31,53.34s5.62,18.08,1.45,30.58c-3.83,11.54-18.33,41.53-22.59,47.74s-9.48,9.68-21.9,4.61c-13.31-5.48-62.33-30.62-73-36-7.22-3.64-37.53-19-60.43-30.47-8.48-4.25-15.46-7.34-23.08-9.26-16.85-4.29-35-2.36-43.32-1-3.8.63-6.19,6.75-6,9.23,0.24,3.09,9.13.9,16.53,1.42,6,0.41,26.41,2.62,38.2,7.4,12.44,5,74.78,38.61,90.53,47.09C620,301,671.27,343,764,498.75c4.14,7,6.12,15.51-.41,17.45-9.49,2.77-49,10.3-61,14.21-10.06,3.32-11.39,4.11-12.88,9.08-1.63,5.68-4.16,16.93-3.58,19.19,0.27,0.93-.54,2.14,1.51,2.14,11.13,0,51,.06,81.75,3,3.7,0.38,3.89.28,6.23-3.26,2.69-4.13,13.33-16.3,20.33-21.46C798.85,536.86,796.89,532.81,796.4,531.49Z" transform="translate(-315.49 -60.17)"/>
        <path class="cls-14" d="M768.19,508.41c-0.62-6.33-6.44-15.72-16.75-31.88s-23.42-38.46-40.77-63C679.86,369.87,649.52,335.8,611.82,306c-27.83-22-57.05-39.67-78.47-52.23s-111.91-62-125.93-66.43a152.16,152.16,0,0,0-32-6.23c-6.15-.62-11.32-0.16-16.8-0.16-5.18,0-3.36-4.21-2.64-5.87-0.53,1.17-3.64,7,1.47,7,3.71,0,12.36-.29,18.18.37,11.17,1.21,25.26,4.31,34.1,7.73,12.59,4.89,71.64,40.11,86.92,48.63,46,26.08,81,50,113.79,76.49,50.17,40.41,93.48,87.27,147.78,182.37,2.15,3.69,3.28,6.52,3.28,10,0.2,5.32-4.38,7.22-5.91,7.66-9.34,2.8-47.68,11.43-59,15.35-9.65,3.41-11.42,5.54-12.81,10-0.5,1.85-2.14,10.91-4,13.31s-6.31,3-11,3c-2.89,0-4.33.16-4-3.06S666.85,542,668,537s3.15-8.78,7.73-11.55,20.47-5.35,29.41-7.56,9.41-6.32,9.26-13.07c0,7.16-2.48,8.88-11.45,10.91s-24.42,4-29.47,7.43a19,19,0,0,0-7.65,11.66c-3.07,12.7-5.14,22-4.79,25.12,0.28,2.77,1.4,3.16,4.49,2.81s10.78-1.45,22.35-1.88c3.42,0,3.19-4.14,3.13-8.73,0-1.67.08-6.62,1-9a8.56,8.56,0,0,1,5.61-5.54c6.43-2,42-11.61,60.15-17C765.62,518.16,768.91,515.64,768.19,508.41Z" transform="translate(-315.49 -60.17)"/>
        <path class="cls-15" d="M530.5,341.5c2.47,0.77,7,4,10.51,6.58,2.84,2.07,5.1,3.75,5.1,3.75-24,30-59.57,81.76-71,103.65-5.93,11.38-5.8,16.09-5.65,26.62,0.17,10.06,1.36,22.44.71,28.23s-4.37,8.34-10.2,9.95-40.35,7.15-48,9.4-9.36,6.53-10.64,12-1.73,9.09-2.37,11.23c-0.68,2.37-.23,4-2.48,4.19s-7.47.62-9.94,1-2.86-.2-2.79-2.88,2.58-14.74,4.31-21.06,4.38-10.64,13-12.76,43.73-8,50.32-9.17c7.78-1.41,9.69-4.7,9.31-12.19-0.39-7.8-1.51-18.67-1.71-25.34s0.18-12.21,2.39-18.18c2.44-6.55,14.92-33.59,25.35-52.65,14.38-26.32,32.12-54.51,35.59-58.71C525.13,341.76,527.09,340.43,530.5,341.5Z" transform="translate(-315.49 -60.17)"/>
        <path class="cls-16" d="M510.22,534.17c-0.31-6.21,2-11.9,5.93-17.58,5.31-7.63,13.5-15.42,23.56-25.85,17.61-18.26,60.52-60.27,62.06-61.82,1-1,2.14-2.31-.24-4.61-4.26-4.09-6.5-6.71-13.2-13.43-4.09-4.09-6.93-6.58-6.79-8,0-.2-47.94,53.72-63.65,93.59-6.45,14.22-8.3,22.32-8.3,29.4C509.58,532,510.22,534.17,510.22,534.17Z" transform="translate(-315.49 -60.17)"/>
        <path class="cls-17" d="M358.13,182c6.7-.05,12.91-0.24,18.7.48,11.38,1.41,25.33,4.43,34.13,8.09,4.57,1.91,15.41,7.81,28.07,15,21.92,12.4,49.31,28.54,59,34,33.86,19.26,61.85,37.41,87.31,56.31,9.2,6.81,18,13.83,26.69,20.87C662.41,357.39,703.74,402.4,759,498.85a16.54,16.54,0,0,1,2.54,10c-0.2,2.88-2.67,5.79-6.72,6.68Z" transform="translate(-315.49 -60.17)"/>
        <path class="cls-18" d="M686.79,136.84h-0.21a7.63,7.63,0,0,1-4.4-1.62c-8-5.93-30.24-23.26-33.45-38-2-6.88.52-3.74-6.64-7.37-2-.78-3.93-1.56-5.91-2.3,0.69,0.37,1.32.72,1.92,1.06a13.25,13.25,0,0,1,2.81,2.08,10.34,10.34,0,0,1,3.34,5.5c1.31,6.5,4.91,15.25,13.18,24.68,7.14,8.21,21.85,20.38,24.93,22.52a29.16,29.16,0,0,1,5.53,4.49,81.52,81.52,0,0,1,4.69-15.69,19.82,19.82,0,0,1-1.37,2.18A5.9,5.9,0,0,1,686.79,136.84Z" transform="translate(-315.49 -60.17)"/>
        <path class="cls-19" d="M638.14,260.84c-7.43,2.68-8.37,5-8.6,8.75v0c0,3.43,1.56,8.78,4.89,13.38,3.87,5.51,22.56,26.76,43.41,53A76,76,0,0,0,683.2,342c-0.75-1-30.18-38.23-39.2-48.52-2.58-3-5.52-7.07-5.57-12.38s4-12.85,12.42-15.74c11.19-4.09,31.55-10.69,36.19-13.2s5.85-3.72,6.52-6.81c-2.32,1.89-5.33,3.12-9.15,4.19C673.92,252.46,648.09,257.73,638.14,260.84Z" transform="translate(-315.49 -60.17)"/>
        <path class="cls-20" d="M693,138.81C697,124.7,709.83,108,730.2,108c25.94,0,36.75,9.79,40.37,24.39-4.65-20.72-22.76-27.16-40.43-26.74C710.25,106.13,696.86,123,693,138.81Z" transform="translate(-315.49 -60.17)"/>
        <path class="cls-21" d="M524.08,514.91c3.45-3.73,16.86-18.64,31.08-34.44-4.66,4.69-8.88,9-12.18,12.4-20.07,20.54-29.2,26.93-28.78,39.71,0.24,7.54.82,26.09,0.86,28.86,0,1.88.18,3.67-3,5.34-1.56.85-4.25,0.84-5.62,0.84-5.46,0-58.41-5.15-77-5.15s-34.52,2.06-44.09,4.47c-1.56.37-5.59,0.11-7.22-2.29a7.33,7.33,0,0,1-1.2-3.62c-0.41,3.62-.75,7.84-0.75,9.69a211.91,211.91,0,0,1,21.39-2.51c13-1,27.73-.84,37.54-0.84s82.67,3.79,83,3.79c-0.48-5.61-1.2-18.92-1.41-27.25-0.06-2.14-.06-2.11-0.24-8.06C516.43,529.31,517.68,521.7,524.08,514.91Z" transform="translate(-315.49 -60.17)"/>
        <path class="cls-22" d="M672,481a47,47,0,0,0,12,6.4c-3.34-2.34-8.26-6.09-14.71-11-9.38-7.26-21.38-16.72-33.43-26.27-10.18-8.09-20.4-16.25-29.08-23.27A6.49,6.49,0,0,1,603.9,432a10.54,10.54,0,0,1,5.44,2.93C613.11,438.44,662.2,474,672,481Z" transform="translate(-315.49 -60.17)"/>
        <path class="cls-23" d="M802.17,543.62c1.67-1.35,2.34-1.25,2.34-2.54a19.37,19.37,0,0,0-1.32-4.86c-9.91-28.38-47.69-98.41-77.08-137.36-2.78-3.72-4.67-8.71-4.67-12.16A12.16,12.16,0,0,1,726.2,377c2.06-1.67,7-5.94,13.56-12.43-10.14,7.6-17.24,13.66-18.1,16.39a13.61,13.61,0,0,0-1.16,5.47c0,3.05,1,7.28,4.91,12.94,2.34,3.32,4.62,6.58,6.8,9.74,34.12,50.22,57.89,98.8,66.88,121.46,2,5.49,1.58,8.19-.21,10.66,0,0-17.76,18.17-19.9,21.57a16.21,16.21,0,0,1-2.84,3.56c-1.19,1.11-4.32,1.82-7.31,1.57-26.24-2.48-54.73-3.5-69-3.5-18.57,0-29.42,1.79-35.58,2-3.34.11-5.69-.68-6.09-1.24a0.46,0.46,0,0,0-.16-0.24c-0.27,2.6-.43,4.57-0.49,5.44,11.25-2,26.4-2.9,43.25-2.9,5.35,0,10.83.1,16.48,0.24,27.71,0.85,59.88,3.41,60,3.41S792.64,551.52,802.17,543.62Z" transform="translate(-315.49 -60.17)"/>
        <path class="cls-24" d="M521.58,338.43c-8.33-5.85-17.15-11.82-25.13-16.71-10.53-6.6-20.54-11.15-23.53-11.08-32-.49-32-0.49-50.89-0.49-14.71,0-28.65.55-34.19,1-11.16.81-16.61,2.17-17.7,2.43a6,6,0,0,1-1.8.19c0.28,0.44.69,1.29,0.88,1.62,0.29-.1.74-0.28,1.56-0.52,6.72-1.91,21.71-2.82,40.43-2.87,17.85,0,37.33.13,47.41,0.59,9,0.45,21.79,1.66,32,7.22C500.07,325.06,520.6,339.31,521.58,338.43Z" transform="translate(-315.49 -60.17)"/>
        <path class="cls-25" d="M424.92,245.45c-12.15-11.28-30.54-24.29-39.16-26.07a65.73,65.73,0,0,0-10.81-1.2c-2.66-.15-2.48-3.25-3.23-3.83,0.07,0.55.24,5.21,1.85,5.32,2.16,0.16,8.94-.79,14.91,2.08,8.15,4,28.87,19.34,32,22.66C424.47,248.92,428.4,248.48,424.92,245.45Z" transform="translate(-315.49 -60.17)"/>
        <path class="cls-26" d="M355.8,306.8a10.64,10.64,0,0,1,5.23.87c-1.24-2.1-2.6-3-6.51-3-5.73.14-20.23,7.34-22.44,8.79-3.38,1.89-4.83,1.92-6.94-.37,1,2.33,2.6,3.75,4.09,3.25S348.1,306.8,355.8,306.8Z" transform="translate(-315.49 -60.17)"/>
        <path class="cls-27" d="M524.41,86.18c2.66-.43,4.92-1,5.18,1.17a7.94,7.94,0,0,1-.4,3.43,2.81,2.81,0,0,1-1.93,1.63c-2.75.87-18.38,6.62-21.07,7.72-2,.83-3.21-0.11-3.57-1.36a9.41,9.41,0,0,1,.9-5.79,4.52,4.52,0,0,1,3-2.33C507.84,90.22,520.45,86.81,524.41,86.18Z" transform="translate(-315.49 -60.17)"/>
        <path d="M524,87.53c1.75-.33,2.6-0.16,2.7.8a7,7,0,0,1-.08,2,1.34,1.34,0,0,1-1.17,1.15c-1.79.64-13.21,4.71-16,5.85-2.52,1.06-3.79.48-4-.59a6.29,6.29,0,0,1,.62-3.54,3.47,3.47,0,0,1,2-1.57C510.13,90.88,520.71,88.11,524,87.53Z" transform="translate(-315.49 -60.17)"/>
        <path class="cls-28" d="M587.79,236.67c1.91-3.46,14.56-30.21,17.59-37.91,2-4.84,4.17-9.64,4.17-15.79A39.38,39.38,0,0,0,605.69,167c-7-14.68-29-42.58-37.8-53.12-7.45-8.79-14.18-10.17-26.88-9.85-32.37.85-60.61,14.57-76.46,21,11.3-3.86,38.74-15.11,69.36-17,16.82-1,23.57.41,29.72,7.33,8.94,9.85,29.78,37.85,37.2,52,2.93,5.63,4.24,10.66,3.82,15-0.58,6.51-2.91,11.3-4.75,15.61-3.23,7.41-15.14,31.62-17.21,35.14-8.69,15-17,14.51-25.85,12.46,0.47,0.26,4.52,2.17,8.23,3.68C575.39,253.59,581.92,247.73,587.79,236.67Z" transform="translate(-315.49 -60.17)"/>
        <path class="cls-29" d="M548.72,353.67c-0.36-.17-1.89-1.32-3.95-2.84-4.88,5.47-26.71,32.77-42,57.06-11.48,18.29-28.06,45.59-30.65,51.59-2.4,5.54-3.18,10.53-3.26,17,0,0.07.94,29.51,0.94,29.69,0,3.64-.54,6.64-2.49,8.95s-5,3.41-9.13,4c-6.82,1-39,6-47.83,7.76-8.58,1.85-12.14,5.79-14.05,11.48-1.39,4.1-3,11.07-3,14.12a9.59,9.59,0,0,0,0,1.67c-0.24,3.27.94,3.07,0.94,3.07s37.24-2.85,59.42-1.53,52.77,4.19,52.77,4.19-32.2-6-54.11-7.4-50.94,1.08-51.22-.24a14,14,0,0,1-.5-5c0.37-1.73.81-3.73,1.41-5.81,1.43-5.44,4-10.25,12.47-12.22,8.13-2.06,39.39-7.23,45.33-8.69s9.65-3.66,10.47-8.44a65.1,65.1,0,0,0,.39-7.8c0-6.28-1.11-23-1.07-24,0.21-10.25.65-15.7,7.35-26.77,10.39-17.29,49.51-76.76,69-97.4,1.22-1.3,1.79-2.41,4-2.07A4.52,4.52,0,0,1,548.72,353.67Z" transform="translate(-315.49 -60.17)"/>
      </g>
    </g>
  </g>
</svg>
