<svg id="Layer_1" data-name="Layer 1" xmlns="http://www.w3.org/2000/svg" viewBox="0 0 157.03 201.38">
  <defs>
    <style>
      .cls-1, .cls-4 {
        fill: #231f20;
      }

      .cls-1, .cls-2, .cls-3 {
        fill-rule: evenodd;
      }

      .cls-2 {
        fill: #bdbec0;
      }

      .cls-3, .cls-5 {
        fill: #fff;
      }
    </style>
  </defs>
  <title>logo-porsche</title>
  <path class="cls-1" d="M376.54,297.57a2.44,2.44,0,0,1,1.89,1.68c0.38,23.76.07,68.81-.57,92.26-1.73,24-12.17,45.54-26.86,63.1-11,13.19-36.25,29.81-48.81,32.68-20-2.78-39.53-16.08-53.68-32.84-14.6-17.28-24.27-38.45-25.27-56.13-1.83-32.22-1.66-63.86-1.67-96.11a1.91,1.91,0,0,1,.83-1.24c8.32-3.92,19.87-7.68,32.35-10.23,16.2-3.31,33.08-5.07,47-4.8a324.59,324.59,0,0,1,40.72,3.24,184.52,184.52,0,0,1,34.1,8.4" transform="translate(-221.57 -285.91)"/>
  <path class="cls-2" d="M374.8,300.41a1.29,1.29,0,0,1,.24.58l0.06,23.2c0,0.62-.57.43-1,0.24-7-3-21.34-7.74-37.87-10.74a146.84,146.84,0,0,0-34.44-2.58,0.81,0.81,0,0,0-.81,1l0,16c0,0.35.24,0.52,0.91,0.52h72.92v1.84H301.44a0.89,0.89,0,0,0-.79.79v18.13a0.66,0.66,0,0,0,1.16.52l1.21-1.31c0.52,0.26,1.05.79,1.58,0.26a1.27,1.27,0,0,0,.78-1.58,1.35,1.35,0,0,0-1.57-.52c-0.27,0-.53.26-0.79,0.26,0-.79-0.27-1.58.52-2.1a2,2,0,0,0,1.32,1.57,2.63,2.63,0,0,0,1.31-1,1.24,1.24,0,0,0-.52-1.31,1.74,1.74,0,0,0,1.31-1.05c0.27-.52-0.52-1.05-1-1.57-0.53-.26-1.05.52-1.31,0.79a1.17,1.17,0,0,0,.52,1.58,2,2,0,0,0-1,.53c0-.53-0.79-0.79-1.05-1.58,0.52,0.26,1.05-.26,1.58-0.79a0.83,0.83,0,0,0,0-.78l-0.53-.53a2.14,2.14,0,0,0,1.31-1.32c0.27-.52-0.52-1-0.78-1.31a0.79,0.79,0,0,0-1.05.26,0.52,0.52,0,0,1-.52.26,1.93,1.93,0,0,1,0-1.09c0.24-1,.94-1.86,0-2.85a1,1,0,0,1,1.32-1.05c0.51,0.1.52,1.32,1,1.57a1.4,1.4,0,0,0,1.32-1c0.53-.26,0-0.79,0-1.32,0.53,0.26,1.32-.26,1.84.26-0.26.26-.52,0.26-0.79,0.52-0.26.53-.79,0.79-0.52,1.57,0.52,0.26,1.05.79,1.57,0.53a1.27,1.27,0,0,0,.79-1.58l-0.52-.53c0.52,0,1.05-.79,1.58-0.79a1.75,1.75,0,0,0,1,1.32c0.79,0.26,1-.26,1.31-0.79a1,1,0,0,1,.52-0.53c0.26,0.53-.52.79,0,1.32,0.26,0.53.79,1.31,1.58,0.79,0.26,0,.26-0.53.52-0.53a1.43,1.43,0,0,0,1.06,1.32c0.52,0.26,1-.26,1.58-0.79,0.26-.53-0.53-1.05-0.79-1.58a1.68,1.68,0,0,0-1.58.52,5.87,5.87,0,0,1-.27-1.05c1.06-.26,2.11.79,3.16,0,0.52,0,.26.53,0.52,0.79l0.52,0.26a3.21,3.21,0,0,0-1.31,1.31,1.46,1.46,0,0,0,.79,1.32c0.79,0.52,1.31-.52,1.58-1.05a2,2,0,0,0-.53-1.05,3,3,0,0,0,1.58-1.58h0.52a2,2,0,0,0-.52,1.32c0.52,0.53,1.05,1.31,1.58.79a2.66,2.66,0,0,0,1-1.32l-0.53-.79c1.32-.52,2.63,1.05,3.94,0,0.53,0,.53,1.05,1.31,1.05,0.79,0.26,1.06-.79,1.32-1.05h0.53c-0.27.53-.79,0.79-0.53,1.32l0.53,0.53a2.15,2.15,0,0,0-1.32,1.32c-0.26.52,0.53,1,1,1.57a1.74,1.74,0,0,0,1.32-1.05,1.26,1.26,0,0,0-.52-1.32,1.75,1.75,0,0,0,1.31-1c0.27-.53-0.27-0.79-0.52-1.32,0.79,0,2.1-.26,2.62.26,0.79,0.26,1-.52,1.58-0.26a2.07,2.07,0,0,0,1.05,1.05,3,3,0,0,0,1.58-.79c0-.52.52-0.26,0.52-0.26,0,0.53-.52.79-0.27,1.32,0,0.26.53,0.53,0.53,0.79-0.78-.26-1.05.52-1.31,1.05-0.27.79,0.53,1,1,1.57a1.61,1.61,0,0,0,1-.79,1.75,1.75,0,0,0,1.05,1.31,1.41,1.41,0,0,0,1.58-.79A1.24,1.24,0,0,0,343,336a1.74,1.74,0,0,0,1.32-1.05c0.26-.79-0.52-1.05-0.79-1.58a1.24,1.24,0,0,0-1.31.52,2,2,0,0,1-.53-1.05c1.31-.52,2.37.79,3.42,0,0.26-.26.26,0.53,0.53,0.53a1,1,0,0,0,1.31.52c0.79-.26.53-1.05,1.32-1.05a6.17,6.17,0,0,0-.26,1.05c0.51,0.26,1,1.31,1.83.52a1,1,0,0,0,.53-1.58c1.32-.52,2.37,1.05,3.68,0,0.52,0,.8,1.05,1.31,1.05,0.79,0.26,1.32-1.31,1.58.26a1.13,1.13,0,0,0,1.58.26,1.25,1.25,0,0,0,.52-1.31c0-.26-0.26-0.26,0-0.26h1.58a4.59,4.59,0,0,0-1.32,1.05,1.44,1.44,0,0,0,.52,1.31,2,2,0,0,0,1.32.26,1.63,1.63,0,0,0,.53-1.84l-0.27-.26a1.37,1.37,0,0,1,1.06-.53c0.52,0,.78.79,1.31,1.05,1.05,0.26,1.31-.52,1.58-1.05h0.26a1.44,1.44,0,0,0,0,1.05c0.53,0.26,1.05,1.31,1.58.52a1.17,1.17,0,0,0,.79-1.58c1.32,0.26,3.41-.79,3.94.79a1.42,1.42,0,0,0-1.05.79,1.75,1.75,0,0,0-1.05-1.31c-0.52-.26-1,0.26-1.57.79-0.26.79,0.53,1.05,1.06,1.57a1.38,1.38,0,0,0,1-.52,3.17,3.17,0,0,0,1.31,1.31,4.41,4.41,0,0,0,1.58-.79c0-.52-0.53-1.05-0.53-1.57a2.63,2.63,0,0,0,1.32-1.05c-0.52.79,1.31,1.84,0,2.36a1,1,0,0,0-.52,1.32,1.42,1.42,0,0,1,.52.79c-0.79-.26-1,0.53-1.32.79-0.52.79,0.27,1.31,0.79,1.57,0.26,0.26.52,0,1,0v1.58a3.2,3.2,0,0,0-1.31-1.32,1.75,1.75,0,0,0-1.32,1.05,1.11,1.11,0,0,0,.79,1.31c0.53,0.53,1.05,0,1.32-.52l0.52,1.57c-0.52.26-1.57,1.05-1,1.84,0.26,0.52,1,.52,1,1.31-0.52-.26-1-0.52-1.31,0-0.26.26-1,.79-0.53,1.32l0.53,0.52a2.16,2.16,0,0,0-1.32,1.31c0.52,0.53,1.58.26,2.1,0.26,0-.26.26-0.26,0.26-0.52a0.9,0.9,0,0,1-.53-0.79l0.63-.31,0.4-.48,0.07,4-43.27,0c-0.53,0-.9.16-0.92,0.53l0.26,16,0.64,0.36,42.61-.1,0.13,2.1H331.42c-0.52,0-.57.27-0.57,0.79L331,389.9c0,0.58,1,.26,1.51.26,0.26,0-.08-1.05.44-0.79s1,0.79,1.58.52c0.52-.52,1-0.79.79-1.57-0.53-.52-1.06-1.05-1.58-0.79l-0.53.26c0-.53-0.27-1.32.26-1.84,0.27,0,.27.26,0.27,0.52a2.24,2.24,0,0,0,1.58.79,1.75,1.75,0,0,0,.78-1.84l-0.52-.52a1.76,1.76,0,0,0,1.32-1c0.27-.53-0.53-1.05-0.79-1.32-0.78-.53-1.31.26-1.57,0.79-0.79.53,1.31,1.32,0,1.58l-0.79.26c0.26-.52-1.58-1.31-0.27-1.58,0.52-.26,1.31-0.79,1.05-1.58L334,381.5a1.75,1.75,0,0,0,1.32-1c0.26-.79-0.53-1.32-1.06-1.58a2.77,2.77,0,0,0-1.31.53c-0.52-1.58,1.31-2.63,0-3.68,0-.79,1-0.26,1.31-1.05a2.33,2.33,0,0,0,1.06,1.32c0.52,0.26,1-.53,1.57-1.05a1.38,1.38,0,0,0-.53-1.05,3,3,0,0,1,1.58-.79,2,2,0,0,0,.52,1.05,1.74,1.74,0,0,0-1.31,1c-0.27.79,0.26,1.05,0.79,1.58,0.79,0.26,1.32-.53,1.57-1.05a1.34,1.34,0,0,0-.52-1.05,3.08,3.08,0,0,0,1.58-1.58,0.26,0.26,0,0,1,.26-0.26c0,0.53-.79,1.32,0,1.84,0.53,0.26.79,0.79,1.32,0.52,0.52-.52,1-1,0.78-1.57,0-.26-0.26-0.26-0.26-0.53,1.32-.52,2.63.53,3.67,0,0.53-.26.53,0.53,0.79,0.79a1.17,1.17,0,0,0,1.57.53c0-.26.27-0.26,0.27-0.53,0.26,0.26.52,0.79,0.78,1.05a2.64,2.64,0,0,0-1.31,1.05c-0.26.79,0.53,1.31,1.05,1.57a2.24,2.24,0,0,0,1.32-.79c0.26-.79-0.27-1.05-0.53-1.58a1.75,1.75,0,0,0,1.32-1c0.26-.52-0.27-0.79-0.27-1.05,1.58-.52,2.63.79,3.94,0,0.53,0.53,1.05,1.32,1.84.79,0.53,0,.53-1.05,1.32-0.79,0,0.53-.79.79-0.27,1.32,0.52,0.26.79,1.31,1.58,0.78l0.52-.52a2.84,2.84,0,0,0,.79,1.05c-0.52.26-1.32,0.52-1.32,1.05-0.26.79,0.26,1.05,0.79,1.58a1.86,1.86,0,0,0,1.57-.79c0.27-.52-0.26-1.05-0.51-1.57a1.75,1.75,0,0,0,1.3-1.05,1.1,1.1,0,0,0-.79-1.31,1,1,0,0,0-1.31.52l-0.52-1.05c1.32-.52,2.37.79,3.68,0,0.53,0.53,1,1.32,1.57.79,0.53,0,.53-0.52,1.05-0.52a2.22,2.22,0,0,0,.79,1.31,0.79,0.79,0,0,0,1,0,1.88,1.88,0,0,0,.8-1.58c1.84,0.53,4.72-.79,5,1.84-0.53-.26-1-1.05-1.58-0.52l-0.52.52a5.77,5.77,0,0,0-1-1.31c-0.79-.53-1.32.26-1.58,0.79a1,1,0,0,0,.53,1.31,1.4,1.4,0,0,0-1.31,1.32c-0.27.52,0.26,0.79,0.79,1.31,0.79,0.26,1.31-.52,1.58-1.05s-0.27-.79-0.53-1.31a2,2,0,0,0,1-.53,1.66,1.66,0,0,0,1.32,1.32c0.53,0.26.78-.26,1-0.53,0,0.53.26,1.84-.27,2.36a1.09,1.09,0,0,0,.53,1.32,2.15,2.15,0,0,0-1.31,1.32c0,0.78,1,1,1,1.84a0.92,0.92,0,0,0-1.32.26,1.05,1.05,0,0,0-.52,1.05,1.44,1.44,0,0,0,1.31.79H374c0.26,1.05-.52,1.84-0.27,2.89a0.73,0.73,0,0,1,.53.78,3.6,3.6,0,0,0-1,.79,0.57,0.57,0,0,0,.52.52V392l-41.8.1a1.06,1.06,0,0,0-.76.68,26.84,26.84,0,0,1-7.39,18.45,32.77,32.77,0,0,1-21,10.45c-1.14.13-1,.6-1,1.37V484c-0.14.35-1.4,0.72-1.4-1.32l-0.27-25.92a1.44,1.44,0,0,0-1.14-1.31H254a5,5,0,0,1-1.66-1.93h47.12a0.84,0.84,0,0,0,.69-0.79V434.83c0-.75-0.38-0.78-1-0.78l-59.95.31a7,7,0,0,1-1.1-1.89,0.26,0.26,0,0,1,.26-0.26c-1.05-.53-0.78-1.05-1.57-1.84v-0.26h0.25c-0.25.78,0.53,1,1.06,1.57a2.8,2.8,0,0,0,1.32-.53,2.73,2.73,0,0,0,.79,1.05,1.25,1.25,0,0,0,1.31-.27,2,2,0,0,0,.52-1c-0.52-.52-1-1.31-1.83-1l-0.53.52c0-.52-0.53-0.79-0.79-1.31a1.94,1.94,0,0,0-1.58.52,2.61,2.61,0,0,0-1-1.31,1.76,1.76,0,0,0,1.32-1.05,1.27,1.27,0,0,0-.53-1.58c-1-1.05-1.83,1.58-2.1-.52l-0.53-.26c0.27-.26,1.06,0,1.32-0.79,0.53,0,.27.52,0.53,0.79a1.18,1.18,0,0,0,1.57.26,1.23,1.23,0,0,0,.53-1.32c-0.53-.52-0.78-1-1.57-0.79l-0.53.53a1.65,1.65,0,0,0-.79-1.32,1.19,1.19,0,0,0-1.58.26,4.53,4.53,0,0,0-1-1.31c0.53,0.26,1-.53,1.32-0.79a1.45,1.45,0,0,0-.79-1.84,1.35,1.35,0,0,0-1.58.52l-0.53-1.31c0.53,0.26,1.32-1.58,1.58,0a1.09,1.09,0,0,0,1.32.52,1.4,1.4,0,0,0,.78-1.57l-0.53-.52c0.27-.26,1.06,0,1.58,0,0.52,0.26.79,0.79,1.58,0.52a1.34,1.34,0,0,1,1.05-.52c-0.27.52,0.52,1.05,0.79,1.31,0.79,0.52,1.31-.26,1.58-0.79l0.25-.79,0.79,0.26c-0.26.26-1,.79-0.52,1.31a2,2,0,0,0,1,1.05c0.53-.26.79-0.79,1.31-1.05,0.26-.79-0.52-1.05-0.52-1.31,0.52,0,1.06-.53,1.58-0.26a1.6,1.6,0,0,0,1.84.79l0.27-.26c0.26-.26.26,0.26,0.26,0.26a1.11,1.11,0,0,0,1.32.79c0.53,0.26.79-.52,1.06-0.79s0-.52.26-0.79h0.78a1.18,1.18,0,0,0-.52,1.58,2.07,2.07,0,0,0,1.06,1.05,3.19,3.19,0,0,0,1.31-1.31,3.51,3.51,0,0,0-.79-1.31c0.79,0,1.83-.53,2.1.52a6,6,0,0,0-1.32,1.32c0,0.79.79,1,1.32,1.31s1-.52,1.31-0.79a1.09,1.09,0,0,0-.52-1.31,1.76,1.76,0,0,0,1.31-1.05h0.26a1.28,1.28,0,0,0,.79,1.58,0.87,0.87,0,0,0,1.31-.26,4.06,4.06,0,0,0,1.06,1,1.4,1.4,0,0,0,1.57-.79c0.26-.52-0.26-1.05-0.78-1.58a6.15,6.15,0,0,1,3.15.52c0.53,0.26.8-.52,1.32-0.52-0.52.52,1.31,1.58,0,1.58-0.26.52-1,1.05-.52,1.58a1.27,1.27,0,0,0,1.57.79c0.26-.26,1-0.79.79-1.58a1,1,0,0,1-.53-0.52,1.74,1.74,0,0,0,1.31-1.05v-0.79c1.58,0,3.42-.53,4.47.52,0.78,0.53,1.57-1.05,1.57,0a1.77,1.77,0,0,0,1.84.79,3.57,3.57,0,0,0,.78-1.31h1.32c-0.27-.26-1.06.52-1.32,0.79a2,2,0,0,0,.53,1.31,3.1,3.1,0,0,0-1.31,1.32,1.84,1.84,0,0,0,1,1.31c0.79,0.26,1.06-.26,1.58-0.79a1.26,1.26,0,0,0-.53-1.31c0.53-.26,1.32-0.53,1.32-1.31,0-.53-0.53-0.79-0.53-1.31,0.53-.26,1.06.26,1.58,0.52a2,2,0,0,0-.8,2.1,1.52,1.52,0,0,0,1.85.52l0.26-.26a2.74,2.74,0,0,0,.79,1.05c0.79,0.79,1.84-1.05,2.1.26,0.79,1.57,2.64,0,3.43,1.31a6.26,6.26,0,0,1,2.36.79v0.26a0.9,0.9,0,0,0-1,.52c-0.52,0-.26-0.52-0.52-0.79-0.52-.26-0.78-0.79-1.31-0.53a1.44,1.44,0,0,0-.79,1.84,1.26,1.26,0,0,0,1.58.52l0.52-.52a2.22,2.22,0,0,0,.79,1.31c0.78,0.53,1.31-.26,1.84-0.79a0.86,0.86,0,0,0-.27-1.05l-0.26-.26c1.57-.53,2.36,1.31,4.2.79a1.63,1.63,0,0,0,1.84.52,0.9,0.9,0,0,1,.52-0.26c0.27,0.53.53,0.79,0.8,1.32a2.21,2.21,0,0,0-1.32.79,2,2,0,0,0,.79,1.84c1-.53.79,0.79,1,1-0.26,1.05.26,1.58,0.26,2.36,0.26,0.53.52,0.26,1,.26l0.52-.26c0-2.62.18-6,0-8.67a0.75,0.75,0,0,0-.76-0.49c-6.53-.81-11.44-1.9-19.46-8.44l-49.14.26a20.34,20.34,0,0,1-.79-2.37l47.29-.26c0.27,0,.27-0.26.27-0.52-4.16-2.77-6.28-11.7-6.3-16.29l-0.24-42.84a1.18,1.18,0,0,1,1.1-1.3h26.72c0.44,0,.8-0.1.79-0.53l-0.29-37.76a1.1,1.1,0,0,0-.92-0.93c-11.39.36-24.46,1.36-36.69,4-14.07,3-26.44,7.14-36.46,12.13l0-22.76c0.17-.09-0.05-1,0.6-1.28,20.57-9.74,50.91-14.17,74.2-14.26,21.69-.09,57.87,3.77,75,11.6" transform="translate(-221.57 -285.91)"/>
  <path class="cls-2" d="M297.61,348.92H273.06a2.78,2.78,0,0,1,2.1-1.55,16.38,16.38,0,0,0,2.89-1.08c0.79-.79-1.4-1-2.37-1.05a7.07,7.07,0,0,0-3.86.77c-1.69.83-2.49,2.19-3.76,3.74a1.5,1.5,0,0,1-1.14.57c-1.84,0-3.89.3-5.24,0.36a0.66,0.66,0,0,1-.45-0.6c0-1.09,1.41-3.1,2.64-4.31a12.47,12.47,0,0,1,2.63-1.84c0.32-.19.88-0.58,0.53-1.05s-1.61-.21-2.37,0a9.52,9.52,0,0,0-3.42,1.84c-2.3,2-2.51,3-3.42,5.78-0.18.56-.07,0.92-0.42,1-1.81.54-3.2,1-5.32,1.53-0.79.18-.88-0.45-0.83-1.36a9.59,9.59,0,0,1,1.06-3.55,26.17,26.17,0,0,1,2.63-3.15c0.17-.2.37-0.79,0-0.79a5.16,5.16,0,0,0-4.2,1.57,11.8,11.8,0,0,0-3.06,7.57,1,1,0,0,1-.19,1c-0.46.27-2.62,1-3.82,1.67s-1.63.35-1.61-.55a15.47,15.47,0,0,1,.3-3.81,8.86,8.86,0,0,1,2.06-3.81,0.46,0.46,0,0,0-.26-0.79c-4.83,0-5.19,7.08-5,10.3a1.56,1.56,0,0,1-.8,1.15l-2.78,1.54a1.28,1.28,0,0,1-1.07,0c-0.52-.79-0.78-1.82-1.92-2.47a2,2,0,0,0-2.26.32,1.83,1.83,0,0,0-.37,2,16.47,16.47,0,0,0,1.32,1.84c-0.26.52-1,.59-1.58,1.05-0.74.59-1.58,1-1.58,2.1s1.23,2.69,2.36,2.36,1.94-.36,2.47-1.15c0.79,0,1.1.77,1.74,1.15s2.1,0.79,2.89,0a2,2,0,0,0,.53-2.1c-0.29-1-1.32-1.32-.79-2.36a76.92,76.92,0,0,1,16.33-7c5.31-1.59,10.73-2.58,15.12-2.32,0.76,0,.62.22,0.62,0.66v12.56c-0.79,1.05-2.11,2.09-2.11,3.4-2.13.23-4.4,0.29-6.36,0.57-0.58.08-.72,0-0.78-0.29a3.05,3.05,0,0,1,0-1.66,9.24,9.24,0,0,1,1.37-3.83,11.11,11.11,0,0,1,3.65-3.18c0.44-.27-0.7-0.52-1.23-0.29-2.34,1-4.73,1.29-6.13,5-0.66,1.78-.33,3.38-0.79,5a0.76,0.76,0,0,1-.73.43c-1.3.33-3.34,0.94-4.44,1.19-0.57.13-.77,0.21-0.87-0.3a8.63,8.63,0,0,1,.66-5.81,7.36,7.36,0,0,1,2.57-3.15c0.25-.18.29-0.53-0.29-0.46a9,9,0,0,0-2.15.51,6.78,6.78,0,0,0-3.63,4.69,11.17,11.17,0,0,0,.27,5.53,0.81,0.81,0,0,1-.6.49,34,34,0,0,0-3.93,1.82,1,1,0,0,1-.77.05,0.61,0.61,0,0,1-.35-0.42,8.34,8.34,0,0,1-.31-5,6.54,6.54,0,0,1,1.57-3.27c0.4-.42.7-0.8,0.37-0.92a3.24,3.24,0,0,0-2,.49,5.26,5.26,0,0,0-2.29,2.42,9.74,9.74,0,0,0-.56,6.17,10.05,10.05,0,0,1,.41,2.19,0.76,0.76,0,0,1-.37.73A9.92,9.92,0,0,1,238,380c-0.52.53-.76,0.27-1.25-0.28-1.06-1.2-2.42-2.34-3.62-1.6a1.67,1.67,0,0,0-.95.79c-0.49.79-.1,1.73,0.42,2.6s1,1.52-.21,2.07a3.35,3.35,0,0,0-1.84,1.84,2.51,2.51,0,0,0,.14,1.89,2.29,2.29,0,0,0,2.75.74,10.89,10.89,0,0,0,2.36-1.84c1-.86,1.73,1.15,3,1.42a1.93,1.93,0,0,0,2-.37,1.71,1.71,0,0,0,.81-2.11,7,7,0,0,0-1.6-2.1,1,1,0,0,1,.21-0.53C243,380,253,376.5,255,375.82a57.24,57.24,0,0,1,14.4-2.47V392.8H226.56c-1.62-21.15-1.36-42.52-1.58-63.72a150.19,150.19,0,0,1,33.62-11.86,191.24,191.24,0,0,1,39-4.48" transform="translate(-221.57 -285.91)"/>
  <path class="cls-1" d="M274.77,319.25c0.52,0,.91.49,0.39,0.76-4.18,2.21-6.45,5.42-7.12,8.41a0.51,0.51,0,0,0,.46.66c2.39-.07,4.83,0,7.19.12a13.74,13.74,0,0,1,2.89-3.94,8.21,8.21,0,0,1,8.14-1.1c0.33,0.16.89,0.85,0.52,0.83-2.07-.09-4-0.7-6.64,1.92a6.79,6.79,0,0,0-1.19,2.29,1.76,1.76,0,0,0,.28.52c2.92,0.78,6.35,2.88,6.89,4.73,0,0.34-1.08,0-1.78-.19-10.93-3.59-18.57-2.13-28.3.18-6.23,1.49-15.81,5.09-18.92,7.71a1.17,1.17,0,0,0,.23.6c0.41,0.64,1.21,1.4,1.08,2.47a2.17,2.17,0,0,1-1.58,1.57c-1.49.56-2.63-.79-3.68-1.57-0.52,0-.58.5-1.31,0.79a6.16,6.16,0,0,1-2.63.52c-1.07-.15-1.13-1.29-1.32-2.1-0.35-1.56,1.84-2.1,2.63-2.89-0.26-1.05-1.23-2.29-.26-3.42a2.62,2.62,0,0,1,2.1-1.05c1.34,0,2.1,1.57,2.89,2.36,0.72-.49,2.71-1.31,3.94-2.1-0.64-1.94-.85-5.57,0-7.36,1.11-2.34,2.48-4.51,5.52-5.52,0.79-.26,2.57-0.31,2.1.26-0.73.88-3.39,3.26-3.94,4.73s-1.36,3.44-.55,5.47c0.13,0.35.21,0.73,0.68,0.5a58.67,58.67,0,0,1,7.83-2.8,0.77,0.77,0,0,0,.71-0.53c0.23-2.88.31-6,1.91-7.89,1.45-1.71,3.66-3.66,6.5-2.89,0.25,0.07.32,0.34,0,.52a8.83,8.83,0,0,0-4.47,5.26,10,10,0,0,0-.52,4.2c1.55-.39,7.85-1.95,8.67-2.13a9.61,9.61,0,0,1,1.87-4.83c1.91-2.66,4.42-4.94,8.77-5.11" transform="translate(-221.57 -285.91)"/>
  <polyline class="cls-3" points="83.29 46.98 83.29 47.24 83.03 46.98"/>
  <path class="cls-1" d="M326.93,334.2a0.91,0.91,0,0,0,.26.53c0.53-.26,1.05-0.78,1.58-0.26a1,1,0,0,1,.52,1.31,1.11,1.11,0,0,1-1.31.79,2.63,2.63,0,0,1-1.05-1.31c-0.53.26-1.05,0.79-1.57,0.52a1.36,1.36,0,0,1-.53-1.58c0.53-.79,1.84-1,2.1,0" transform="translate(-221.57 -285.91)"/>
  <path class="cls-1" d="M335.6,334.2a1.26,1.26,0,0,1-.52,1.32,1.6,1.6,0,0,1-1.05.26,1.36,1.36,0,0,1-.52-1.58,1.08,1.08,0,0,1,2.1,0" transform="translate(-221.57 -285.91)"/>
  <path class="cls-1" d="M353.2,334.2a1.57,1.57,0,0,1-.79,1.58c-0.26,0-.52,0-0.52.26a3.22,3.22,0,0,1,.52,1.32c0.52-.26.79-1.06,1.58-0.79,0.26,0.53,1,1.05.52,1.84a1.25,1.25,0,0,1-1.31.53,2.67,2.67,0,0,1-1-1.32c-0.26.26-1.05,1.05-1.57,0.26a1.23,1.23,0,0,1-.52-1.32,3.55,3.55,0,0,1,1.31-.79,2.72,2.72,0,0,1-.52-1.31,2,2,0,0,1,1-1.05,2.25,2.25,0,0,1,1.31.79" transform="translate(-221.57 -285.91)"/>
  <path class="cls-1" d="M338.23,335a1.42,1.42,0,0,1-.79,1.57,1.12,1.12,0,0,1-1.32-.79c-0.26-.53.27-1.05,0.79-1.58a1.46,1.46,0,0,1,1.32.79" transform="translate(-221.57 -285.91)"/>
  <path class="cls-1" d="M346.9,335a1.41,1.41,0,0,1-.78,1.57,1.59,1.59,0,0,1-1.58-.79c-0.27-.79.53-1.31,1-1.58,0.53,0,.79.53,1.31,0.79" transform="translate(-221.57 -285.91)"/>
  <path class="cls-1" d="M355.84,335a1,1,0,0,0,.26.79c0.26-.26.79-1.05,1.31-0.53a1.46,1.46,0,0,1,.79,1.32,1.28,1.28,0,0,1-1.58.79,2.25,2.25,0,0,1-.79-1.31c-0.52.26-.79,0.79-1.58,0.52-0.26-.52-1.05-0.79-0.52-1.57a1.18,1.18,0,0,1,.79-0.79,1.46,1.46,0,0,1,1.32.79" transform="translate(-221.57 -285.91)"/>
  <path class="cls-1" d="M364.51,335a2.17,2.17,0,0,1-1.05,1.57,0.81,0.81,0,0,0-.53.27,1.4,1.4,0,0,1,.79,1.05c0.52-.26,1.05-0.79,1.58-0.26a1.05,1.05,0,0,1,.52,1.58,1,1,0,0,1-1.58.26,2.75,2.75,0,0,1-.79-1,1,1,0,0,1-1.31.52c-0.52-.52-1.05-0.79-0.79-1.57,0.27-.52,1.06-0.52,1.31-1.05a1,1,0,0,1-.52-1.31,1.36,1.36,0,0,1,2.37,0" transform="translate(-221.57 -285.91)"/>
  <path class="cls-3" d="M341.91,334.73a0.9,0.9,0,0,0,.53.79l-1.05.79c0-.52-1.58-1.05-0.26-1.31,0.26,0,.52-0.79.78-0.26" transform="translate(-221.57 -285.91)"/>
  <path class="cls-1" d="M312.22,335.52c0.26,0,0,.52.26,0.52a1,1,0,0,1,1.32-.52,1.63,1.63,0,0,1,.79,1,1.35,1.35,0,0,1-.52,1.05c-0.26.26-.53,0-0.79,0.26a1.36,1.36,0,0,1,.52,1.58c-0.52.26-.79,1.05-1.58,0.53a2.24,2.24,0,0,1-.79-1.32,1.24,1.24,0,0,1-1.31.53,2.79,2.79,0,0,1-1.05-.79,1.75,1.75,0,0,1,1.05-1.32,0.52,0.52,0,0,0,.52-0.26,1,1,0,0,1-.52-1.31c0.27-1.05,1.58-1.05,2.1,0" transform="translate(-221.57 -285.91)"/>
  <path class="cls-1" d="M349.53,335.78a1.27,1.27,0,0,1-.52,1.58,1.25,1.25,0,1,1-.79-2.36,1.44,1.44,0,0,1,1.31.79" transform="translate(-221.57 -285.91)"/>
  <path class="cls-1" d="M367.13,335.78c0,0.26,0,.79.27,0.52a2,2,0,0,1,1.31-.52c0.27,0.26,1.05,1.05.79,1.58a1.41,1.41,0,0,1-1.58.79,2.68,2.68,0,0,1-1.05-1.31,1.25,1.25,0,0,1-1.31.52c-0.53-.52-1-1.05-0.53-1.58,0.27-1.05,1.58-.79,2.11,0" transform="translate(-221.57 -285.91)"/>
  <path class="cls-1" d="M306.18,336.3c0,0.79-.53,1.05-1.05,1.58a1.74,1.74,0,0,1-1.31-1.05,1.45,1.45,0,0,1,.79-1.31,1.42,1.42,0,0,1,1.58.79" transform="translate(-221.57 -285.91)"/>
  <path class="cls-1" d="M323.51,336.3c0.26,0.79-.26,1.05-0.79,1.58H322.2c0.26,0.53.79,0.79,0.79,1.32,0.52-.53.79-0.79,1.31-0.53,0.53,0.53,1.06.79,0.79,1.58-0.52.26-.79,1.05-1.57,0.53-0.79,0-.52-2.11-1.58-0.53a1.74,1.74,0,0,1-1.32-1,1,1,0,0,1,.52-1.32,1,1,0,0,0,.79-0.26c-0.27-.26-1.05-0.79-0.53-1.31,0-.52.53-0.52,0.79-0.79,0.53,0,1.32.26,1.32,0.79" transform="translate(-221.57 -285.91)"/>
  <path class="cls-1" d="M360.83,336.56a1.41,1.41,0,0,1-.79,1.58,1.11,1.11,0,0,1-1.31-.79,1.28,1.28,0,0,1,.79-1.58c0.52-.26,1.05.52,1.31,0.79" transform="translate(-221.57 -285.91)"/>
  <path class="cls-1" d="M308.8,337.09a1.24,1.24,0,0,1-2.36.79c-0.27-.79.52-1.31,1-1.58a1.12,1.12,0,0,1,1.31.79" transform="translate(-221.57 -285.91)"/>
  <path class="cls-1" d="M317.47,337.09a2.24,2.24,0,0,1-.79,1.32,1.27,1.27,0,0,1-1.57-.79,1.11,1.11,0,0,1,.79-1.31c0.79-.26,1,0.27,1.57.79" transform="translate(-221.57 -285.91)"/>
  <path class="cls-1" d="M326.4,337.09c0,0.26-.26.52,0,0.52,0.53-.26,1.05-0.79,1.58-0.52,0.26,0.52,1,.79.52,1.57a1,1,0,0,1-1.32.53c-0.52,0-.79-0.79-1.05-1.32a1,1,0,0,1-1.31.53,1.41,1.41,0,0,1-.79-1.58c0.53-1,1.84-.53,2.37.26" transform="translate(-221.57 -285.91)"/>
  <path class="cls-1" d="M334.81,337.09a1.45,1.45,0,0,1-.79,1.32c0,0.26-.52,0-0.52.52a0.89,0.89,0,0,1,.52,1.31c-0.52.53-1,1.05-1.84,0.53-0.27-.53-0.79-1.05-0.27-1.58a2.2,2.2,0,0,1,1.32-.79,1,1,0,0,1-.53-1.58,1.11,1.11,0,0,1,2.11.26" transform="translate(-221.57 -285.91)"/>
  <path class="cls-2" d="M312.74,337.62a2.79,2.79,0,0,0-1,.79c0.26-.52-1.31-1.31-0.27-1.31a1.42,1.42,0,0,1,.79-0.53,2,2,0,0,0,.53,1.05" transform="translate(-221.57 -285.91)"/>
  <path class="cls-1" d="M372.13,337.35a1.28,1.28,0,0,1-.79,1.57,1.59,1.59,0,0,1-1.57-.79,1.78,1.78,0,0,1,1-1.58,1.46,1.46,0,0,1,1.32.79" transform="translate(-221.57 -285.91)"/>
  <path class="cls-1" d="M320.1,337.88a1.43,1.43,0,0,1-.79,1.31,1.15,1.15,0,0,1-1.31-.26,1.59,1.59,0,0,1-.26-1.05,1.28,1.28,0,0,1,2.36,0" transform="translate(-221.57 -285.91)"/>
  <path class="cls-1" d="M337.7,337.88a0.36,0.36,0,0,0,0,.52,1.26,1.26,0,0,1,1.58-.52,1.37,1.37,0,0,1,.52,1.58,1.48,1.48,0,0,1-1.57.52,5.52,5.52,0,0,1-.79-1.31c-0.52.26-.79,0.79-1.32,0.52a2.2,2.2,0,0,1-.79-0.79c-0.26-.79.52-1,0.79-1.31a1.42,1.42,0,0,1,1.58.79" transform="translate(-221.57 -285.91)"/>
  <path class="cls-1" d="M346.11,337.88c0,0.79-.26,1.31-0.79,1.31-0.26,0-.26.26-0.52,0.26a1.25,1.25,0,0,1,.52,1.32,1.42,1.42,0,0,1-1.58.79c-0.53-.53-1.05-1.05-0.53-1.58a2.24,2.24,0,0,1,1.31-.79c-0.27-.52-1.05-0.79-0.52-1.31,0.26-1.32,1.84-.79,2.1,0" transform="translate(-221.57 -285.91)"/>
  <path class="cls-1" d="M331.4,338.67a2.8,2.8,0,0,1-1.05,1.58,1.74,1.74,0,0,1-1.32-1.05,1.45,1.45,0,0,1,.79-1.31,1.42,1.42,0,0,1,1.58.79" transform="translate(-221.57 -285.91)"/>
  <path class="cls-1" d="M349,338.67c0,0.26-.27.26,0,0.52,0.52-.26.78-0.78,1.58-0.52,0.27,0.52,1,.79.53,1.58a1.26,1.26,0,0,1-1.32.53,2.7,2.7,0,0,1-1-1.32c-0.53.26-.78,1.05-1.31,0.52a1.11,1.11,0,0,1-.79-1.31,1.13,1.13,0,0,1,.79-0.79c0.79-.26,1.05.26,1.58,0.79" transform="translate(-221.57 -285.91)"/>
  <path class="cls-1" d="M357.41,338.67a1.45,1.45,0,0,1-.79,1.31c0,0.27-.52,0-0.52.53a0.89,0.89,0,0,1,.52,1.05,1.28,1.28,0,0,1-2.37,0,1.44,1.44,0,0,1,.79-1.32,1,1,0,0,0,.79-0.27c-0.27-.52-1.05-0.79-0.53-1.31a0.84,0.84,0,0,1,.79-0.79,1.11,1.11,0,0,1,1.31.79" transform="translate(-221.57 -285.91)"/>
  <path class="cls-1" d="M342.7,339.46a1.77,1.77,0,0,1-1,1.58,2.19,2.19,0,0,1-1.31-.79,1.24,1.24,0,1,1,2.36-.79" transform="translate(-221.57 -285.91)"/>
  <path class="cls-1" d="M360,339.46a1.27,1.27,0,0,1-.79,1.58,2.26,2.26,0,0,1-1.32-.79,1.29,1.29,0,0,1,.8-1.58,1,1,0,0,1,1.31.79" transform="translate(-221.57 -285.91)"/>
  <path class="cls-1" d="M368.71,339.46a1.46,1.46,0,0,1-.79,1.32c-0.26.26-.79,0-0.53,0.52a1.25,1.25,0,0,1,.53,1.32c-0.53.26-1.05,1-1.57,0.52a1.43,1.43,0,0,1-.79-1.31,1.74,1.74,0,0,1,1.31-1.05,1.48,1.48,0,0,1-.51-1.58,1.36,1.36,0,0,1,2.36.26" transform="translate(-221.57 -285.91)"/>
  <path class="cls-1" d="M308,339.72c0,0.26,0,.52.27,0.52a1.24,1.24,0,0,1,1.31-.52c0.53,0.52,1.05,1.05.79,1.58-0.53.53-1.05,1.05-1.58,0.53a1.44,1.44,0,0,1-.79-1.05c-0.52.26-1,.79-1.57,0.52a1.87,1.87,0,0,1-.79-1.58,3.73,3.73,0,0,1,1.05-.79,3.43,3.43,0,0,1,1.32.79" transform="translate(-221.57 -285.91)"/>
  <path class="cls-1" d="M316.68,339.72a1.59,1.59,0,0,1-.79,1.58c-0.27,0-.79-0.26-0.79.26,0.52,0.26,1,.79.52,1.31a1.11,1.11,0,0,1-1.31.79c-0.52-.52-1-1-0.79-1.58a1.8,1.8,0,0,1,1.31-.79c-0.26-.52-0.79-1.05-0.53-1.58l0.79-.79a3,3,0,0,1,1.57.79" transform="translate(-221.57 -285.91)"/>
  <path class="cls-1" d="M354,340.25a1.44,1.44,0,0,1-.79,1.31c-0.79.26-1-.26-1.57-0.52a1.28,1.28,0,0,1,.79-1.58,1.41,1.41,0,0,1,1.58.79" transform="translate(-221.57 -285.91)"/>
  <path class="cls-1" d="M362.93,340.25c-0.27.26,0,.26,0,0.52a1.18,1.18,0,0,1,2.1,1.05c-0.27.26-.79,1.05-1.32,0.52-0.79-.26-0.53-1-1.05-1.31a1,1,0,0,1-1.31.52,1.1,1.1,0,0,1-.78-1.31,2,2,0,0,1,1-1.05,2.66,2.66,0,0,1,1.31,1.05" transform="translate(-221.57 -285.91)"/>
  <path class="cls-1" d="M371.34,340.25a1.1,1.1,0,0,1-.79,1.31,1.24,1.24,0,0,1-1.31-.52,1.48,1.48,0,0,1,.53-1.58,1.27,1.27,0,0,1,1.57.79" transform="translate(-221.57 -285.91)"/>
  <path class="cls-1" d="M319.31,340.51V341c0.53-.26,1-0.78,1.58-0.26a1.1,1.1,0,0,1,.79,1.31c-0.52.53-1,1.05-1.58,0.53a4,4,0,0,1-1.05-1.05,0.88,0.88,0,0,1-1.31.26,1.45,1.45,0,0,1-.79-1.32,1.28,1.28,0,0,1,2.37,0" transform="translate(-221.57 -285.91)"/>
  <path class="cls-1" d="M328,340.51c0.26,0.79-.52,1.05-1.05,1.57H326.4c0.53,0.53,1.05,1.05.53,1.58a1.44,1.44,0,0,1-1.31.78c-0.53-.52-1-1-0.79-1.57a2.57,2.57,0,0,1,1.31-1c-0.27-.26-1.05-0.79-0.52-1.32a1.36,1.36,0,0,1,2.37,0" transform="translate(-221.57 -285.91)"/>
  <path class="cls-1" d="M336.39,340.77a1.44,1.44,0,0,1-.79,1.31c-0.26,0-.52,0-0.52.26a1.25,1.25,0,0,1,.52,1.32c-0.26.26-.79,1-1.31,0.79-0.52-.53-1.05-0.79-1.05-1.58-0.53.26-.78,1.05-1.31,0.79-0.52-.53-1.31-1.05-0.79-1.58a1.11,1.11,0,0,1,1.32-.79c0.78,0.26.78,1.84,1.31,1.05l1-.52c-0.26-.26-1-0.79-0.52-1.32,0.26-1.05,1.84-.79,2.1.26" transform="translate(-221.57 -285.91)"/>
  <path class="cls-3" d="M303.55,340.25c0,0.26-.27,0-0.53.26V340c0.26,0.27.26,0,.53,0.27" transform="translate(-221.57 -285.91)"/>
  <path class="cls-1" d="M313,341.3a1.28,1.28,0,0,1-.79,1.58,1.45,1.45,0,0,1-1.31-.79,1.41,1.41,0,0,1,.79-1.57,1.11,1.11,0,0,1,1.32.79" transform="translate(-221.57 -285.91)"/>
  <path class="cls-1" d="M330.61,341.3a1.28,1.28,0,0,1-.79,1.58,1.59,1.59,0,0,1-1.57-.79c-0.26-.79.53-1.31,1-1.57a2.24,2.24,0,0,1,1.32.79" transform="translate(-221.57 -285.91)"/>
  <path class="cls-1" d="M339,341.3a1.08,1.08,0,0,1-.53,1.31c-0.26.26-.52,0-0.79,0.26,0.26,0.52,1,1.05.53,1.58a1.18,1.18,0,0,1-1.58.53,1.27,1.27,0,0,1-.53-1.32,2.67,2.67,0,0,1,1.32-1.05,1.24,1.24,0,0,1-.52-1.31,1.62,1.62,0,0,1,1-.79,1.64,1.64,0,0,1,1.05.79" transform="translate(-221.57 -285.91)"/>
  <path class="cls-1" d="M348,341.3a0.91,0.91,0,0,0,.26.52c0.53-.26.79-0.79,1.57-0.52,0.27,0.52.79,1,.52,1.58a1.44,1.44,0,0,1-1.31.79c0.26,0.53,1.05.79,0.52,1.58-0.26.52-.79,1.05-1.31,0.52a1.1,1.1,0,0,1-.79-1.31,2.62,2.62,0,0,1,1.31-1.05c-0.53-.26-0.53-1.05-1.05-1.05a1.15,1.15,0,0,1-1.31.26,1,1,0,0,1-.52-1.31,1.14,1.14,0,0,1,2.1,0" transform="translate(-221.57 -285.91)"/>
  <path class="cls-1" d="M324.3,342.08a1.24,1.24,0,0,1-.26,1.31,2,2,0,0,1-1.31.26,1.36,1.36,0,0,1-.53-1.58c0.26-1.05,1.84-.79,2.1,0" transform="translate(-221.57 -285.91)"/>
  <path class="cls-1" d="M341.91,342.08a2.76,2.76,0,0,1-.53,1.31,1.55,1.55,0,0,1-1,.26c-0.53-.52-1.05-1.05-0.8-1.58a1.36,1.36,0,0,1,2.37,0" transform="translate(-221.57 -285.91)"/>
  <path class="cls-1" d="M359.25,342.08c0,0.26.27,0.26,0.27,0.52,0.52-.26,1-0.78,1.57-0.52a1.36,1.36,0,0,1,.53,1.58,1.45,1.45,0,0,1-1.32.79c0.26,0.53,1,.79.52,1.32-0.26.53-.79,1.31-1.58,0.79a1,1,0,0,1-.52-1.31,2.6,2.6,0,0,1,1.31-1,2.34,2.34,0,0,1-.79-1.32c-0.52.52-.79,1.05-1.57,0.79-0.27-.52-0.79-1.05-0.53-1.58l0.79-.79a1.45,1.45,0,0,1,1.31.79" transform="translate(-221.57 -285.91)"/>
  <path class="cls-1" d="M344.53,342.87a0.52,0.52,0,0,0,.26.52,1.26,1.26,0,0,1,1.32-.52c0.52,0.52,1.05,1.05.78,1.58a1.17,1.17,0,0,1-1.57.53,1.41,1.41,0,0,1-.79-1.05c-0.52.26-1.05,0.79-1.58,0.26a1,1,0,0,1-.52-1.32c0.26-1,1.58-1,2.1,0" transform="translate(-221.57 -285.91)"/>
  <path class="cls-1" d="M353.2,342.87c0.27,0.52-.52,1.05-0.79,1.58a1.57,1.57,0,0,1-1.57-.79,1.58,1.58,0,0,1,.78-1.58,1.87,1.87,0,0,1,1.57.79" transform="translate(-221.57 -285.91)"/>
  <path class="cls-1" d="M370.55,342.87a0.91,0.91,0,0,0,.26.52c0.52-.26.79-0.78,1.32-0.52a1.27,1.27,0,0,1,.78,1.58,1.43,1.43,0,0,1-1.31.79,1.35,1.35,0,0,1,.53,1.57c-0.53.53-.79,0.79-1.32,0.53a1.42,1.42,0,0,1-1-1.31,3.48,3.48,0,0,1-1.32.78,1.61,1.61,0,0,1-.79-1,1.25,1.25,0,0,1,.53-1.32c0.26,0,.79,0,0.79-0.26a1.06,1.06,0,0,1-.53-1.58,1.16,1.16,0,0,1,2.1.26" transform="translate(-221.57 -285.91)"/>
  <path class="cls-1" d="M309.59,343.4a1.45,1.45,0,0,1-.79,1.32c-0.26,0-.52,0-0.52.26a1.25,1.25,0,0,1,.52,1.32,1.42,1.42,0,0,1-1.57.79,1.27,1.27,0,0,1-.79-1.58,3.51,3.51,0,0,1,1.31-.79c-0.26-.53-0.79-1.05-0.26-1.58,0.26-1,1.57-.79,2.1.26" transform="translate(-221.57 -285.91)"/>
  <path class="cls-1" d="M318.52,343.4s0,0.52.26,0.52a1,1,0,0,1,1.31-.52,1.11,1.11,0,0,1,.79,1.32c0,1-2.37.79-.79,1.58a1.24,1.24,0,0,1-1.05,1.57c-0.52.26-.79-0.26-1.31-0.79-0.27-.53.26-1.05,0.79-1.58,0.26,0.26.26,0,.52,0a5.83,5.83,0,0,1-.79-1.31,1.25,1.25,0,0,1-1.31.53c-0.52-.53-1-0.79-0.79-1.58,0.52-1,1.84-.79,2.37.26" transform="translate(-221.57 -285.91)"/>
  <path class="cls-1" d="M355.84,343.66c0,0.26,0,.52.26,0.52,0.52-.52,1.05-0.79,1.31-0.52,0.27,0.52.79,0.52,0.79,1.05a1.19,1.19,0,1,1-2.36.26c0.26,0,0-.26,0-0.26-0.52.26-1.05,0.79-1.58,0.26-0.26-.26-1.05-0.79-0.52-1.31a1.15,1.15,0,0,1,2.1,0" transform="translate(-221.57 -285.91)"/>
  <path class="cls-1" d="M364.51,343.66a2.17,2.17,0,0,1-1.05,1.58,1.45,1.45,0,0,1-1.31-.79c-0.27-.79.52-1.31,1-1.58a1.81,1.81,0,0,1,1.32.79" transform="translate(-221.57 -285.91)"/>
  <path class="cls-1" d="M312.22,344.19a1.11,1.11,0,0,1-.79,1.31c-0.26.26-.52,0-1-0.26a1.15,1.15,0,0,1-.27-1.31c0.27-1.05,1.84-.52,2.1.26" transform="translate(-221.57 -285.91)"/>
  <path class="cls-1" d="M329.82,343.92v0.79c0.53-.26,1.05-1,1.58-0.52a1.45,1.45,0,0,1,.79,1.31,2.61,2.61,0,0,1-1.32,1.05,1.25,1.25,0,0,1,.53,1.31c-0.53.53-1.05,1.05-1.58,0.79a1.28,1.28,0,0,1-.79-1.57,1.44,1.44,0,0,1,1.32-.79c0-.52-0.53-0.79-0.79-1.31-0.27.26-.79,1.05-1.32,0.52s-1.05-.79-0.79-1.58a1.47,1.47,0,0,1,2.36,0" transform="translate(-221.57 -285.91)"/>
  <path class="cls-1" d="M367.13,344.45a1.46,1.46,0,0,1-.78,1.31c-0.53.53-1.05-.26-1.58-0.79a1.75,1.75,0,0,1,1.05-1.31,1.45,1.45,0,0,1,1.31.79" transform="translate(-221.57 -285.91)"/>
  <path class="cls-3" d="M371.08,345a1.4,1.4,0,0,0-1.06.79c0-.53-0.52-0.79-0.78-1.31a1.37,1.37,0,0,0,1-.53c0.26,0.26.52,0.79,0.79,1.05" transform="translate(-221.57 -285.91)"/>
  <path class="cls-1" d="M315.11,345s-0.27.26,0,.26c0.52,0,1-.78,1.57-0.26,0.26,0.26,1.05.79,0.53,1.31a1.44,1.44,0,0,1-1.31.79,2.65,2.65,0,0,1-1.05-1.32,1.25,1.25,0,0,1-1.32.52c-0.52-.52-1-0.79-0.79-1.58a3.82,3.82,0,0,1,1.05-.79c0.52,0,.79.53,1.32,1.05" transform="translate(-221.57 -285.91)"/>
  <path class="cls-1" d="M323.51,345a1.11,1.11,0,0,1-.79,1.31,2.25,2.25,0,0,1-1.58-.79,1.75,1.75,0,0,1,1-1.31,1,1,0,0,1,1.32.79" transform="translate(-221.57 -285.91)"/>
  <path class="cls-1" d="M341.12,345v0.26c0.52,0,1-.78,1.57-0.26,0.53,0.26,1.05.79,0.53,1.31a1.46,1.46,0,0,1-1.32.79,1.45,1.45,0,0,1-.78-1.32c-0.53.26-.79,0.52-1.32,0.79a0.88,0.88,0,0,1,.26,1.32,1.1,1.1,0,0,1-1.31.78,1.87,1.87,0,0,1-.79-1.57c0.27-.53,1.05-0.53,1.32-1.05-0.26-.26-0.79-0.53-0.53-1.05a2.08,2.08,0,0,1,1.05-1.05,1.76,1.76,0,0,1,1.32,1.05" transform="translate(-221.57 -285.91)"/>
  <path class="cls-1" d="M326.4,345.76s-0.26.26,0,.26a2.82,2.82,0,0,1,1.58-.52c0.26,0.52,1,1,.52,1.57a1.27,1.27,0,0,1-1.58.79,5.84,5.84,0,0,1-.79-1.32,1.25,1.25,0,0,1-1.31.53,1.27,1.27,0,0,1-.79-1.57c0.53-1.05,1.84-.79,2.37.26" transform="translate(-221.57 -285.91)"/>
  <path class="cls-1" d="M334.81,345.76a1.45,1.45,0,0,1-.79,1.32c-0.52.26-1-.26-1.57-0.79,0-.78.52-1,1.05-1.57a1.75,1.75,0,0,1,1.31,1" transform="translate(-221.57 -285.91)"/>
  <path class="cls-1" d="M352.42,345.76a1.45,1.45,0,0,1-.79,1.32c-0.26,0-.78,0-0.52.26a1.26,1.26,0,0,1,.26,1.32,1.44,1.44,0,0,1-1.31.79,1.61,1.61,0,0,1-.79-1.05,2.2,2.2,0,0,1,.79-1.31,0.37,0.37,0,0,0,.52,0c-0.27-.53-0.79-1.05-0.52-1.57,0.52-1.05,1.84-.79,2.36.26" transform="translate(-221.57 -285.91)"/>
  <path class="cls-1" d="M337.7,346.55a1.73,1.73,0,0,1-1.05,1.31c-0.53.26-.79-0.26-1.31-0.79-0.26-.52.26-1,0.79-1.58a2.18,2.18,0,0,1,1.58,1.05" transform="translate(-221.57 -285.91)"/>
  <path class="cls-1" d="M346.11,346.55c0.26,0.52-.53,1.05-0.79,1.31a1.25,1.25,0,0,1-.79-2.36,1.78,1.78,0,0,1,1.58,1.05" transform="translate(-221.57 -285.91)"/>
  <path class="cls-1" d="M355,346.55a0.52,0.52,0,0,0,.27.52,1.05,1.05,0,0,1,1.57-.52,1.24,1.24,0,0,1,.53,1.31,1.27,1.27,0,0,1-1.57.79,1.45,1.45,0,0,1-.79-1.31c-0.52.26-1,.79-1.57,0.52-0.27-.52-1.05-1-0.53-1.57a2.29,2.29,0,0,1,.79-0.79,1.74,1.74,0,0,1,1.31,1.05" transform="translate(-221.57 -285.91)"/>
  <path class="cls-1" d="M363.72,346.55a1.73,1.73,0,0,1-1.05,1.31,0.25,0.25,0,0,0-.26.26,2,2,0,0,1,.52,1.32c-0.52.79-1.31,0.26-2.1,0.52a1.33,1.33,0,0,1-.26-1.31,1.79,1.79,0,0,1,1.31-.79c-0.26-.52-0.79-1-0.53-1.57,0.27-.26.79-0.52,1.06-0.79a1.75,1.75,0,0,1,1.31,1.05" transform="translate(-221.57 -285.91)"/>
  <path class="cls-1" d="M311.42,346.81c0.27,0,0,.52.27,0.52,0.52-.26,1-1,1.58-0.52a1.37,1.37,0,0,1,.52,1.58,1.27,1.27,0,0,1-1.58.53,2.27,2.27,0,0,1-.79-1.32,2.21,2.21,0,0,1-1.31.79,1.24,1.24,0,0,1,.52,1.32c-0.52.52-1.31,0-2.1,0-0.26-.26,0-0.53.26-1.05,0.27-.26.79-0.26,1.05-0.52-0.26-.53-1.05-1.05-0.52-1.58a1.15,1.15,0,0,1,2.1.26" transform="translate(-221.57 -285.91)"/>
  <path class="cls-1" d="M349,347.34a1.74,1.74,0,0,1-1,1.31,1.44,1.44,0,0,1-1.32-.79,1.11,1.11,0,0,1,.79-1.31c0.53-.52,1.05.26,1.58,0.79" transform="translate(-221.57 -285.91)"/>
  <path class="cls-1" d="M366.35,347.34v0.26c0.52,0,1-.79,1.57-0.53a3.53,3.53,0,0,1,.79,1.05,1.45,1.45,0,0,1-.79,1.32,1.86,1.86,0,0,1-1.57-.79c0-.26.26-0.52-0.27-0.52a1.23,1.23,0,0,1-1.31.52,1.28,1.28,0,0,1-.79-1.58,3.73,3.73,0,0,1,1.05-.79,1.77,1.77,0,0,1,1.32,1.05" transform="translate(-221.57 -285.91)"/>
  <path class="cls-1" d="M322.73,347.6a1,1,0,0,1-.79,1.31c-0.27,0-.27.26-0.53,0.26,0,0.26.53,0.26,0.53,0.52a2.92,2.92,0,0,1-2.1,0,2.25,2.25,0,0,1,1.31-.79c-0.26-.26-1-0.79-0.52-1.31a0.92,0.92,0,0,1,1-.79,1.11,1.11,0,0,1,1.05.79" transform="translate(-221.57 -285.91)"/>
  <path class="cls-1" d="M360,347.86a1.27,1.27,0,0,1-.79,1.58,1.34,1.34,0,0,1-1.57-1.05,1.74,1.74,0,0,1,1.05-1.31,1.45,1.45,0,0,1,1.31.79" transform="translate(-221.57 -285.91)"/>
  <path class="cls-1" d="M308,348.39c0.27,0.79-.52,1.05-0.79,1.57a1.78,1.78,0,0,1-1.58-1.05c-0.26-.26.26-0.52,0.26-1,0.53-.79,1.58-0.26,2.1.52" transform="translate(-221.57 -285.91)"/>
  <path class="cls-1" d="M316.68,348.39c0,0.79-.52,1.05-1.05,1.57a1.75,1.75,0,0,1-1.31-1.05,1.11,1.11,0,0,1,.79-1.31,1.41,1.41,0,0,1,1.57.79" transform="translate(-221.57 -285.91)"/>
  <path class="cls-1" d="M325.62,348.39c-0.26.26,0,.26,0,0.52,0.52-.26.79-0.79,1.05-0.52a1.44,1.44,0,0,1,1.31.79c-0.26.26,0,.52-0.52,0.79-0.53-.52-1.84.53-2.1-0.79-0.27.26-.79,1.05-1.32,0.52-0.26-.26-1-0.79-0.79-1.31,0-.52.52-0.52,0.79-0.79a1.59,1.59,0,0,1,1.58.79" transform="translate(-221.57 -285.91)"/>
  <path class="cls-1" d="M334,348.39c0.27,0.79-.52,1.05-0.79,1.57a1.74,1.74,0,0,1-1.32-1.05c-0.52-.52.27-1,0.53-1.31a1.27,1.27,0,0,1,1.57.79" transform="translate(-221.57 -285.91)"/>
  <path class="cls-1" d="M342.7,348.39a1.77,1.77,0,0,1-1,1.57,1.72,1.72,0,0,1-1.31-1.05c-0.27-.79.51-1,0.79-1.31a1.27,1.27,0,0,1,1.57.79" transform="translate(-221.57 -285.91)"/>
  <path class="cls-1" d="M371.34,348.65a1.08,1.08,0,0,1-.52,1.31c-0.52-.26-1.57.26-1.84-0.79a2.22,2.22,0,0,1,.79-1.31,1.59,1.59,0,0,1,1.57.79" transform="translate(-221.57 -285.91)"/>
  <path class="cls-1" d="M354,349.18a0.62,0.62,0,0,1-.52.79c-0.53-.26-1.32.26-1.84-0.26-0.26-.79.52-1,0.79-1.31a1.42,1.42,0,0,1,1.58.79" transform="translate(-221.57 -285.91)"/>
  <path class="cls-1" d="M319.31,349.18a1,1,0,0,1-.26.79c-0.79-.26-1.84.26-2.1-0.52a1.62,1.62,0,0,1,.79-1.05,1.28,1.28,0,0,1,1.58.79" transform="translate(-221.57 -285.91)"/>
  <path class="cls-1" d="M336.65,349.18c0,0.26.27,0.26,0.27,0.52a5.83,5.83,0,0,1-2.1.26,0.91,0.91,0,0,1-.26-1.05,1.1,1.1,0,0,1,2.1.26" transform="translate(-221.57 -285.91)"/>
  <path class="cls-1" d="M345.33,349.18c0,0.26,0,.79-0.26.79a5.14,5.14,0,0,1-2.11-.26,1.41,1.41,0,0,1,1.05-1.31,1.11,1.11,0,0,1,1.31.79" transform="translate(-221.57 -285.91)"/>
  <path class="cls-1" d="M330.35,349.71c-0.27.52-1.06,0-1.58,0.26l-0.27-.26c0.27-.52.79-1.05,1.31-0.52a0.57,0.57,0,0,1,.53.52" transform="translate(-221.57 -285.91)"/>
  <path class="cls-1" d="M339,349.71a2.91,2.91,0,0,1-2.1,0c0.52-.52,1-1.05,1.57-0.52a1,1,0,0,1,.53.52" transform="translate(-221.57 -285.91)"/>
  <path class="cls-1" d="M348,349.71c-0.27.52-1.32,0-1.84,0h-0.26c0.52-.52,1-1.05,1.57-0.52a1.05,1.05,0,0,1,.53.52" transform="translate(-221.57 -285.91)"/>
  <path class="cls-1" d="M356.36,349.71a2.26,2.26,0,0,1-1.84,0,1.06,1.06,0,0,1,1.58-.52,0.92,0.92,0,0,1,.26.52" transform="translate(-221.57 -285.91)"/>
  <path class="cls-1" d="M365,349.71a2.24,2.24,0,0,1-1.84,0c0.27-.52.79-1.05,1.32-0.52a1,1,0,0,1,.52.52" transform="translate(-221.57 -285.91)"/>
  <path class="cls-1" d="M304.07,349.71c-0.27.26-.79,0-1.05,0.26l-0.26-.26c0.26-.26,1-0.52,1.31,0" transform="translate(-221.57 -285.91)"/>
  <path class="cls-1" d="M312.48,349.71c-0.26.26-.53,0-1.06,0.26v-0.26c0-.52.79-0.52,1.06,0" transform="translate(-221.57 -285.91)"/>
  <path class="cls-1" d="M328.29,351.8c0.49,0,1,0,1,.68v43.19c0,5.62-2.67,10.45-6.63,14.32-5.8,5.67-14.36,9.3-21.38,10.36-15.36-1.4-29-11.2-28.84-27.56l0-40a1.13,1.13,0,0,1,1.16-1" transform="translate(-221.57 -285.91)"/>
  <path class="cls-2" d="M327.25,354.2V395c0,11.42-13.19,21.49-26.11,23.42-14.26-2.28-25-8.3-26.86-25.22l0.11-38.87a0.65,0.65,0,0,1,.47-0.66h52.08" transform="translate(-221.57 -285.91)"/>
  <path class="cls-2" d="M299.86,371.77c1.05,0.26.27,1.31,1.05,2.1,0.26,1.58-.26,2.89,0,4.47-0.53.52-.53,1.31-1.32,1.05l-0.26-.26c0-1.84.26-4.2-.53-5.78,0.26-1.05-.79-1.84-1.31-2.63l0.26-.52c0.79,0.26,2.1.26,2.1,1.57" transform="translate(-221.57 -285.91)"/>
  <path class="cls-2" d="M335.87,373.35c-0.26.26-1.05,0.26-1.05,0.79a2,2,0,0,1-.52-1.05,3.31,3.31,0,0,1,1.58.26" transform="translate(-221.57 -285.91)"/>
  <path class="cls-3" d="M349.53,373.09" transform="translate(-221.57 -285.91)"/>
  <path class="cls-1" d="M345.58,374.4c0,0.26.27,0.26,0.27,0.52,0.52-.26.79-0.78,1.31-0.52a1.12,1.12,0,0,1,.79,1.31c-0.27.53-.79,1.32-1.58,0.79a6.11,6.11,0,0,1-.79-1.32c-0.52.53-1,1.06-1.57,0.53a1,1,0,0,1-.53-1.31c0.53-1.05,1.84-1.05,2.1,0" transform="translate(-221.57 -285.91)"/>
  <path class="cls-1" d="M354.26,374.4c0.26,0.26,0,.79-0.52,1.05a0.65,0.65,0,0,1-1,.26,1,1,0,0,1-.53-1.31,1.19,1.19,0,0,1,.79-0.79,1.44,1.44,0,0,1,1.31.79" transform="translate(-221.57 -285.91)"/>
  <path class="cls-1" d="M356.88,375.19c0,0.27.26,0.27,0.26,0.53,0.53-.26.79-0.78,1.58-0.53,0.26,0.53.79,0.79,0.52,1.32a3.52,3.52,0,0,1-.79,1.05,1.41,1.41,0,0,1-1.31-1.05c0-.26-0.26-0.26-0.26-0.53a1,1,0,0,1-1.31.53,1.1,1.1,0,0,1-.79-1.57,1.15,1.15,0,0,1,2.1.26" transform="translate(-221.57 -285.91)"/>
  <path class="cls-1" d="M365.56,375.19c0.26,0.53-.26,1.05-0.79,1.58-0.79,0-1.05-.52-1.58-1.05-0.26-.53.53-1,1.05-1.31a1.45,1.45,0,0,1,1.31.79" transform="translate(-221.57 -285.91)"/>
  <path class="cls-1" d="M368.44,376a1.63,1.63,0,0,1-.79,1.31,1.27,1.27,0,0,1-1.58-.79,1.12,1.12,0,0,1,.79-1.31,1.28,1.28,0,0,1,1.58.79" transform="translate(-221.57 -285.91)"/>
  <path class="cls-1" d="M342.17,376.24c0,0.26,0,.79.26,0.52a2.79,2.79,0,0,1,1.31-.52c0.52,0.52,1.05,1.05.79,1.58a1.27,1.27,0,0,1-1.58.79,2.23,2.23,0,0,1-.78-1.31c-0.52.27-.79,0.52-1.32,0.79a1.24,1.24,0,0,1,.53,1.32,1.58,1.58,0,0,1-1.57.78c-0.27-.52-0.79-1-0.52-1.58,0-.79,2.1-0.79.52-1.58a1.78,1.78,0,0,1,1-1.58,1.46,1.46,0,0,1,1.32.79" transform="translate(-221.57 -285.91)"/>
  <path class="cls-1" d="M335.87,377a1.27,1.27,0,0,1-.52,1.58,1.6,1.6,0,0,1-1.58-.79,1.28,1.28,0,0,1,.79-1.58,1.45,1.45,0,0,1,1.31.79" transform="translate(-221.57 -285.91)"/>
  <path class="cls-1" d="M353.47,377a1.42,1.42,0,0,1-.79,1.58s-0.52,0-.52.26a1,1,0,0,1,.52,1.31c-0.52.53-.78,1.05-1.58,0.79a1.26,1.26,0,0,1-.53-1.57c0.27-.52.79-0.52,1.32-1.05a1,1,0,0,1-.53-1.31,1.15,1.15,0,0,1,2.11,0" transform="translate(-221.57 -285.91)"/>
  <path class="cls-1" d="M338.75,378.08a1.14,1.14,0,0,1-2.1.79,1.6,1.6,0,0,1-.26-1.05,1.24,1.24,0,0,1,2.36.26" transform="translate(-221.57 -285.91)"/>
  <path class="cls-1" d="M347.42,378.08a1.75,1.75,0,0,1-1.05,1.32c-0.26.26-.52-0.26-1-0.26a1.26,1.26,0,0,1-.25-1.32c0.25-1.31,2.1-.78,2.36.26" transform="translate(-221.57 -285.91)"/>
  <path class="cls-1" d="M356.36,378.08v0.26c0.27,0,.79-0.79,1.32-0.53a1.42,1.42,0,0,1,.79,1.58,1.28,1.28,0,0,1-1.58.79c-0.25-.53-0.79-0.79-0.79-1.32-0.26,0-.79.79-1.31,0.53a1.62,1.62,0,0,1-.79-1.05c-0.26-.53.26-0.79,0.79-1.31a1.43,1.43,0,0,1,1.57,1" transform="translate(-221.57 -285.91)"/>
  <path class="cls-1" d="M364.77,378.08c0.27,0.52-.26.79-0.79,1.32h-0.52c0,0.52.52,0.52,0.52,0.79,0.27,0.79-.52,1.05-0.79,1.31-0.53.52-1.32-.26-1.57-0.79,0-.79.52-1.05,1.31-1.31a0.26,0.26,0,0,0,.26-0.26c-0.26-.26-1-0.79-0.53-1.32,0.27-1.31,1.85-.78,2.11.26" transform="translate(-221.57 -285.91)"/>
  <path class="cls-1" d="M373.44,378.08a2.26,2.26,0,0,1-.79,1.32h-0.52c0.26,0.52.79,1.05,0.52,1.57-0.52.52-1.05,1-1.57,0.52a1.11,1.11,0,0,1-.8-1.31c0.26-.79,1-0.53,1.31-1.05a1.26,1.26,0,0,1-.52-1.32,1.24,1.24,0,0,1,2.36.26" transform="translate(-221.57 -285.91)"/>
  <path class="cls-1" d="M350.05,378.61a2.24,2.24,0,0,1-.79,1.58,1.78,1.78,0,0,1-1.58-1.05,1.45,1.45,0,0,1,.79-1.31,1.88,1.88,0,0,1,1.58.79" transform="translate(-221.57 -285.91)"/>
  <path class="cls-1" d="M367.66,378.61c0,0.26-.26.52,0,0.52,0.52-.26.79-0.78,1.58-0.52,0.26,0.52,1,1.05.53,1.58a1.45,1.45,0,0,1-1.32.79,2.65,2.65,0,0,1-1-1.32c-0.53.26-.79,0.79-1.58,0.52a1.62,1.62,0,0,1-.52-1.83,1.49,1.49,0,0,1,2.36.26" transform="translate(-221.57 -285.91)"/>
  <path class="cls-1" d="M361.35,379.4a1.59,1.59,0,0,1-.78,1.57,1.87,1.87,0,0,1-1.58-.79,1.27,1.27,0,0,1,.79-1.58,1.57,1.57,0,0,1,1.57.79" transform="translate(-221.57 -285.91)"/>
  <path class="cls-1" d="M343.75,379.92a1.44,1.44,0,0,1-.79,1.31c0,0.26-.52,0-0.52.26a1.36,1.36,0,0,1,.52,1.58c-0.52.26-.78,0.79-1.58,0.53a1.28,1.28,0,0,1-.53-1.32,1.65,1.65,0,0,1,.79-1.05h0.26c0.27-.26-0.78-0.79-0.26-1.58a1.1,1.1,0,0,1,2.1.26" transform="translate(-221.57 -285.91)"/>
  <path class="cls-1" d="M338,380.71a0.8,0.8,0,0,0,.27.52c0.26-.52.79-1,1.31-0.52,0.52,0.26,1.05.79,0.52,1.31-0.26.79-.78,1.05-1.31,0.79a1.46,1.46,0,0,1-.79-1.32c-0.52.26-1,1.05-1.57,0.52a2.37,2.37,0,0,1-.79-1.31,1.28,1.28,0,0,1,2.37,0" transform="translate(-221.57 -285.91)"/>
  <path class="cls-1" d="M346.37,380.45c0.53,0.79-.26,1.31-0.79,1.58a0.8,0.8,0,0,0-.52.26,1,1,0,0,1,.52,1.58,1.25,1.25,0,0,1-1.32.52,1.28,1.28,0,0,1-.79-1.57,1.45,1.45,0,0,1,1.32-.79c-0.26-.53-1.05-1.05-0.53-1.58a1.14,1.14,0,0,1,2.1,0" transform="translate(-221.57 -285.91)"/>
  <path class="cls-1" d="M355,380.71a1.43,1.43,0,0,1-.79,1.31c-0.26.26-.52,0-0.52,0.26a1.25,1.25,0,0,1,.52,1.32,1.11,1.11,0,0,1-1.32.79,1.42,1.42,0,0,1-.79-1.57,1.45,1.45,0,0,1,1.32-.79c-0.27-.52-1.05-0.79-0.53-1.57a1.1,1.1,0,0,1,2.1.26" transform="translate(-221.57 -285.91)"/>
  <path class="cls-1" d="M349.27,381.5a0.52,0.52,0,0,0,.26.52c0.26-.52.79-1,1.32-0.52a1,1,0,0,1,.52,1.58,1.25,1.25,0,0,1-1.32.53c-0.79-.26-0.53-1.05-1.05-1.32a1,1,0,0,1-1.32.53,1.46,1.46,0,0,1-.79-1.32,3.87,3.87,0,0,1,1.05-1,1.75,1.75,0,0,1,1.31,1" transform="translate(-221.57 -285.91)"/>
  <path class="cls-1" d="M357.68,381.5a1,1,0,0,1-.53,1.32c-0.26.26-.53,0-0.79,0.26,0.52,0.53,1,1.05.52,1.58a1.26,1.26,0,0,1-1.31.52,1.4,1.4,0,0,1-.79-1.58,1.43,1.43,0,0,1,1.31-.79c-0.26-.53-0.79-0.79-0.52-1.32a2,2,0,0,1,1-1,1.42,1.42,0,0,1,1.05,1" transform="translate(-221.57 -285.91)"/>
  <path class="cls-1" d="M366.35,381.5a1.47,1.47,0,0,1-.79,1.32c-0.26,0-.52,0-0.52.26,0.52,0.53.79,1.05,0.26,1.58a1.26,1.26,0,0,1-1.32.52,1.45,1.45,0,0,1-.79-1.31,3.8,3.8,0,0,1-1,.52,1.45,1.45,0,0,1-1.31-.79c0-.79.52-1.05,1-1.58,0.53-.26,1.05.53,1.32,1.05a0.82,0.82,0,0,0,.26.53,1.44,1.44,0,0,1,1.31-.79c-0.52-.53-1.05-0.79-0.79-1.58a3.74,3.74,0,0,0,1.05-.79,1.77,1.77,0,0,1,1.32,1" transform="translate(-221.57 -285.91)"/>
  <path class="cls-3" d="M333.5,381.24h-0.27L333,381c0.26,0,.53,0,0.53.26" transform="translate(-221.57 -285.91)"/>
  <path class="cls-1" d="M360.57,382a1.25,1.25,0,0,1-2.37.79c-0.26-.26.27-0.79,0.27-1.05,0.52-.78,1.57-0.26,2.1.26" transform="translate(-221.57 -285.91)"/>
  <path class="cls-1" d="M369,382.28c0.27,0.52-.27.79-0.52,1.31-0.26.26-.79-0.26-0.79,0.26a1,1,0,0,1,.53,1.32,1.12,1.12,0,0,1-1.32.79,1.43,1.43,0,0,1-.79-1.58,1.46,1.46,0,0,1,1.32-.79c-0.53-.52-1-1.31-0.53-1.84,0.53-.79,1.84-0.26,2.11.52" transform="translate(-221.57 -285.91)"/>
  <path class="cls-1" d="M371.86,383.07c0.27,0.52-.53,1.05-0.78,1.32a1.28,1.28,0,0,1-1.58-.79c-0.26-.78.52-1,0.79-1.58,0.79-.26,1,0.53,1.58,1.05" transform="translate(-221.57 -285.91)"/>
  <path class="cls-1" d="M339.54,384.39a1.61,1.61,0,0,1-.79,1,1.27,1.27,0,0,1-1.57-.78,1.45,1.45,0,0,1,.79-1.32c0.79-.26,1.32.53,1.58,1.05" transform="translate(-221.57 -285.91)"/>
  <path class="cls-1" d="M348.48,384.12a0.81,0.81,0,0,0,.26.53,1.26,1.26,0,0,1,1.31-.53,1.44,1.44,0,0,1,.79,1.31c-0.53.53-1.06,1.32-1.58,0.79a2.68,2.68,0,0,1-1.05-1.32,0.89,0.89,0,0,1-1.31.52c-0.26-.26-1-0.79-0.78-1.31a1.39,1.39,0,0,1,1-.79,1.81,1.81,0,0,1,1.31.79" transform="translate(-221.57 -285.91)"/>
  <path class="cls-1" d="M342.17,384.91c0.26,0.79-.27,1.05-0.79,1.58a2.77,2.77,0,0,1-1.57-1.05,1.76,1.76,0,0,1,1-1.31,0.92,0.92,0,0,1,1.32.79" transform="translate(-221.57 -285.91)"/>
  <path class="cls-1" d="M359.78,384.91s0,0.52.26,0.52a1,1,0,0,1,1.31-.52c0.53,0.52,1.06.79,0.79,1.58-0.52.26-1.05,0.79-1.57,0.53-1.05,0-.79-2.11-1.84-0.53a1.19,1.19,0,0,1-.26-2.36,1.12,1.12,0,0,1,1.31.79" transform="translate(-221.57 -285.91)"/>
  <path class="cls-1" d="M344.8,385.44c0.27,0.26,0,.79.52,0.79,0.26-.26.53-0.79,1-0.52s1.32,0.79.79,1.58a1.49,1.49,0,0,1-1.58.52,2.23,2.23,0,0,1-.79-1.31c-0.26.26-.79,1.05-1.31,0.52a1.12,1.12,0,0,1-.79-1.31,1.16,1.16,0,0,1,2.11-.26" transform="translate(-221.57 -285.91)"/>
  <path class="cls-1" d="M353.47,385.44a1.28,1.28,0,0,1-.79,1.58c-0.52.26-1.05-.26-1.58-0.79a1.41,1.41,0,0,1,1.05-1.31,2,2,0,0,1,1.31.52" transform="translate(-221.57 -285.91)"/>
  <path class="cls-1" d="M371.08,385.44c0,0.26-.27.79,0.26,0.79a1.05,1.05,0,0,1,1.58-.52c0.27,0.52.79,1,.27,1.58a1,1,0,0,1-1.32.52,2.67,2.67,0,0,1-1.06-1.31c-0.26.52-.79,0.52-1,1.05a0.87,0.87,0,0,1,.26,1.31,1,1,0,0,1-1.31.52,1.44,1.44,0,0,1-.79-1.31,1.74,1.74,0,0,1,1.32-1.05,1.28,1.28,0,1,1,1.84-1.58" transform="translate(-221.57 -285.91)"/>
  <path class="cls-1" d="M356.36,386.49V387a1.36,1.36,0,0,1,1.57-.52,1.05,1.05,0,0,1,.53,1.58,1.27,1.27,0,0,1-1.58.53c-0.52-.26-0.52-1.05-0.79-1.32a1.36,1.36,0,0,1-1.58.52c-0.26-.52-0.78-0.79-0.52-1.31a2,2,0,0,1,1-1.05,2.65,2.65,0,0,1,1.31,1.05" transform="translate(-221.57 -285.91)"/>
  <path class="cls-1" d="M364.77,386.49c0.27,0.79-.52,1.05-0.79,1.31-0.79.26-1-.26-1.57-0.79a2.24,2.24,0,0,1,.78-1.31,1.27,1.27,0,0,1,1.58.79" transform="translate(-221.57 -285.91)"/>
  <path class="cls-1" d="M338.75,387a1.44,1.44,0,0,1-.79,1.31c-0.26,0-.52,0-0.52.26a2,2,0,0,1,.52,1.05c-0.79.26-1.84,0.52-2.37,0a2.23,2.23,0,0,1,.79-1.32c0.26,0,.53,0,0.53-0.26a1.24,1.24,0,0,1-.53-1.32,1.29,1.29,0,0,1,2.36.26" transform="translate(-221.57 -285.91)"/>
  <path class="cls-1" d="M367.66,387.28a2.76,2.76,0,0,1-1.05,1.57,1.72,1.72,0,0,1-1.31-1.05,1.1,1.1,0,0,1,.78-1.31c0.53-.26,1.06.26,1.58,0.79" transform="translate(-221.57 -285.91)"/>
  <path class="cls-1" d="M341.38,387.54c0,0.26,0,.52.27,0.52a1.24,1.24,0,0,1,1.31-.52c0.53,0.52,1.05.79,0.79,1.58a1.27,1.27,0,0,1-1.57.79c-0.79-.26-0.52-2.36-1.58-0.79a0.53,0.53,0,0,0-.53.26l0.53,0.26c-0.79.26-1.58,0.52-2.11,0a1.25,1.25,0,0,1,1.32-.53c-0.27-.52-1.05-1.05-0.52-1.58,0-.52.52-0.52,0.79-0.79a1.63,1.63,0,0,1,1.31.79" transform="translate(-221.57 -285.91)"/>
  <path class="cls-1" d="M350.05,387.54a1.6,1.6,0,0,1-.79,1.58c-0.26,0-.53,0-0.53.26l0.26,0.26a1.59,1.59,0,0,1-1.84,0,1,1,0,0,1,1-.53c-0.26-.52-0.79-1.05-0.52-1.58a2.84,2.84,0,0,1,1.05-.79,2.24,2.24,0,0,1,1.31.79" transform="translate(-221.57 -285.91)"/>
  <path class="cls-1" d="M352.68,388.33c0.26,0.79-.27,1.05-0.52,1.57a1.31,1.31,0,0,1-1.05-2.36,1.58,1.58,0,0,1,1.58.79" transform="translate(-221.57 -285.91)"/>
  <path class="cls-1" d="M361.35,388.33a1.76,1.76,0,0,1-1,1.57,1.73,1.73,0,0,1-1.31-1.05,2.27,2.27,0,0,1,.79-1.31,2.22,2.22,0,0,1,1.57.79" transform="translate(-221.57 -285.91)"/>
  <path class="cls-1" d="M346.37,389.12c0.27,0.52.27,0.79-.26,0.79-0.53-.26-1.58.26-1.84-0.26a1.45,1.45,0,0,1,.79-1.31c0.79-.26,1,0.52,1.31.79" transform="translate(-221.57 -285.91)"/>
  <path class="cls-1" d="M355.57,389.12c0,0.26,0,.79-0.26.79-0.79,0-1.84.26-2.11-.26a1.44,1.44,0,0,1,.79-1.31c0.79-.26,1,0.52,1.57.79" transform="translate(-221.57 -285.91)"/>
  <path class="cls-1" d="M364,389.12c0,0.26.27,0.79-.26,0.79s-1.57.26-2.09-.26a1.74,1.74,0,0,1,1-1.31c0.52-.26,1,0.52,1.31.79" transform="translate(-221.57 -285.91)"/>
  <path class="cls-1" d="M372.65,389.38c0,1.05-1.57.26-2.1,0.52a1,1,0,0,1-.26-0.79,1.29,1.29,0,0,1,2.36.26" transform="translate(-221.57 -285.91)"/>
  <path class="cls-1" d="M357.68,389.64a1.58,1.58,0,0,1-1.84,0,0.88,0.88,0,0,1,1.31-.26c0.26,0.26.53,0,.53,0.26" transform="translate(-221.57 -285.91)"/>
  <path class="cls-1" d="M366.61,389.64a2.28,2.28,0,0,1-1.84,0,1.25,1.25,0,0,1,1.32-.52c0,0.26.52,0.26,0.52,0.52" transform="translate(-221.57 -285.91)"/>
  <path class="cls-2" d="M373.7,394.37C371,419,361.81,434.68,352,447.49c-8.5,11.08-15.58,16.49-25.13,23.06a140.81,140.81,0,0,1-22.61,12.81c-0.33.15-.52,0.15-0.52-0.44l-0.18-59.38a1.79,1.79,0,0,1,2,.44,1.45,1.45,0,0,0,1.49.18,1.76,1.76,0,0,0,1-1.4c0.51-.13.92,0.84,1.66,1.3,0.95,0.61,2.22.55,2.55-1.92,0-.26-0.63-0.73.16-1,4.29-1.35,8.87-4.81,12.46-8.35,0.79-1.32,2.38-1.51,3.65-1.92,13.78-4.47,24.57-1.47,32.09,4a6.22,6.22,0,0,0,.79.79c0.94,0.53.52-.92,0.53-1.84a9,9,0,0,0-3.55-4.89c-0.7-.36-0.56-0.29-0.31-1.09,0.32-1,2-1.44,3.33-1.9a19.25,19.25,0,0,1,2.62-1.05c0.37-.07.68-0.31,0.53-0.52-1.19-1.67-3.41-1.19-5.26-1.05s-3.28,1.81-4.48,3.32a1.93,1.93,0,0,1-1.21.23,24.75,24.75,0,0,1-4.18-1.63,0.76,0.76,0,0,1-.3-0.81,11.61,11.61,0,0,1,5.72-5.31c0.24-.1.42-0.32,0.26-0.53-0.93-1.16-3.17-1.14-4.73-.79-2.49.57-4.31,3-5.57,5.36-0.42.78-.81,1.72-1.39,1.63a22,22,0,0,0-3.55.1c-0.37,0-.52.26-0.79,0-0.53-.52,0-1.31.26-2.1a8.3,8.3,0,0,1,1.05-2.1,6,6,0,0,1,2.62-2.36,0.74,0.74,0,0,0,.52-0.79c-0.67-1.13-1.79-.2-2.62-0.26-2.88-.2-5.45,2.39-6.56,5a8.19,8.19,0,0,0-.79,3.42,1.31,1.31,0,0,1-1,.76c-0.79.23-1.85,0.48-2.69,0.82a7.48,7.48,0,0,0-1.13.26,24.77,24.77,0,0,0,3.9-9.82c0.2-1.16.18-2.33,0.28-3.48a0.58,0.58,0,0,1,.39-0.63h39.39a1,1,0,0,1,1.05.79" transform="translate(-221.57 -285.91)"/>
  <path class="cls-3" d="M259.4,415.92c-0.26,0-.26.52-0.52,0.52v-0.52" transform="translate(-221.57 -285.91)"/>
  <path class="cls-1" d="M269.91,417v0.26c0.53,0,1.05-.79,1.58-0.53,0.53,0.53,1.05,1.05.79,1.57-0.52.53-1.05,1.05-1.58,0.79a4.81,4.81,0,0,1-1.05-1.32c-0.26.26-1,1.05-1.57,0.26a1.25,1.25,0,0,1-.52-1.32,1.29,1.29,0,0,1,2.36.26" transform="translate(-221.57 -285.91)"/>
  <path class="cls-3" d="M232.87,415.92c0.26,0.26,0,.26,0,0.52" transform="translate(-221.57 -285.91)"/>
  <path class="cls-1" d="M263.61,417.76a1.12,1.12,0,0,1-.79,1.32c-0.79.26-1.05-.53-1.58-0.79a2.24,2.24,0,0,1,.79-1.57c0.79-.26,1.31.53,1.58,1.05" transform="translate(-221.57 -285.91)"/>
  <path class="cls-1" d="M237.59,418a1.44,1.44,0,0,1-.79,1.31,0.8,0.8,0,0,0-.52.26,1.38,1.38,0,0,1,.52,1.05,1.61,1.61,0,0,1-.79,1c-0.79.26-1.05-.26-1.58-0.78-0.26-.79.52-1.05,1-1.32a0.93,0.93,0,0,1,.53-0.26c-0.26-.52-1.05-0.79-0.53-1.58a2.24,2.24,0,0,1,.79-0.79,2.62,2.62,0,0,1,1.31,1.05" transform="translate(-221.57 -285.91)"/>
  <path class="cls-1" d="M246.26,418a1.41,1.41,0,0,1-1.05,1.31l-0.26.26a0.88,0.88,0,0,1,.26,1.32c-0.26.78-.79,1-1.31,0.78-0.79-.52-1.05-1.31-0.53-1.83a2,2,0,0,1,1.05-.53c-0.26-.52-0.79-0.79-0.52-1.58A3.52,3.52,0,0,1,245,417a2.62,2.62,0,0,1,1.31,1.05" transform="translate(-221.57 -285.91)"/>
  <path class="cls-1" d="M274.9,418.55a1.08,1.08,0,1,1-2.1.52,1.4,1.4,0,0,1,.79-1.58,1.76,1.76,0,0,1,1.31,1.05" transform="translate(-221.57 -285.91)"/>
  <path class="cls-1" d="M332.45,419.34c-1.6,1.6-3.07,3.68-2.89,6,0.08,1.08-.65,2.62.53,2.62s2.24-.24,3.42-0.26a1.44,1.44,0,0,0,1.31-.79,27.38,27.38,0,0,1,1.58-3.77c1.52-3,4-4.41,6.57-4.12,0.59,0.07.61,0.65,0.27,0.79a8.75,8.75,0,0,0-3.69,3.68,17.65,17.65,0,0,0-1.13,2.63,1,1,0,0,0,.44,1.14,38,38,0,0,0,4.64.44,1.53,1.53,0,0,0,1.26-.89,10.65,10.65,0,0,1,2.5-2.79,3.1,3.1,0,0,1,3.33-.52,2.19,2.19,0,0,1,1.32,1c0,0.46-1.68,0-2.45.52-1.43,1-2.37,2.13-2.37,3.25a2.19,2.19,0,0,0,.75,1.75c0.44,0.35.81,1,1.44,1.48a4.22,4.22,0,0,1,1.84,3.77c-0.07.58-.58,0.09-1-0.26a16,16,0,0,0-6.74-3.54c-3.9-.93-8.23-0.49-13.1.09-6.62.79-11.34,2.26-16,5.82-0.66.5,0.79,0.78,1.05,1.57a3.36,3.36,0,0,1,.26,2.37,1.9,1.9,0,0,1-2.62,1,5.11,5.11,0,0,1-1.84-1.93c-0.3-.41-0.65-0.39-0.79-0.17a4,4,0,0,1-1.84,1.31,2.37,2.37,0,0,1-2.63-1,1.94,1.94,0,0,1-.52-1.84,4.9,4.9,0,0,1,1.4-1.79,4.84,4.84,0,0,0,1-.84c0.3-.5-1-0.81-1.31-1.32a2,2,0,0,1,.6-2.9,1.9,1.9,0,0,1,2.29-.16,8.8,8.8,0,0,1,1.84,1.74,1.18,1.18,0,0,0,1.58.53c1.37-.68,2.12-1.48,3.59-1.93a1,1,0,0,0,.6-1.07c-0.1-1.27-.76-2.46-0.51-3.83,0.59-3.25,1.55-4.83,4.47-5.78,0.58-.19,1.47.07,0.79,0.52a5.34,5.34,0,0,0-2,3.89,9.19,9.19,0,0,0,.2,3.47c0.29,1.05.78,0.92,1.66,0.7,1.7-.44,2.7-0.77,4.12-1,0.93-.19.29-2.27,0.52-3.33,0.78-3.52,1.27-4.83,4.47-6.83,0.95-.59,2.51-1.16,3-0.79s-0.59.76-1.14,1.31" transform="translate(-221.57 -285.91)"/>
  <path class="cls-1" d="M240.22,418.81a0.52,0.52,0,0,0,.26.52,1.13,1.13,0,0,1,2.1.79,1.28,1.28,0,0,1-1.58.79c-0.79,0-.52-2.36-1.57-0.79a1.44,1.44,0,0,1-1.31-.79c-0.26-.52,0-1,0.79-1.31a1.11,1.11,0,0,1,1.31.79" transform="translate(-221.57 -285.91)"/>
  <path class="cls-1" d="M248.89,418.81a1.44,1.44,0,0,1-.79,1.31s-0.52,0-.52.26c0.26,0.53.79,0.79,0.52,1.31a1.27,1.27,0,0,1-1.57.79,1.44,1.44,0,0,1-.79-1.31,2.05,2.05,0,0,1,1.05-1.05c0.26,0,.26.26,0.52,0-0.52-.52-1.05-1-0.52-1.57a1.1,1.1,0,0,1,2.1.26" transform="translate(-221.57 -285.91)"/>
  <path class="cls-1" d="M257.56,418.81a1.2,1.2,0,0,1-1,1.31c-0.26.26-.26,0-0.26,0.26,0,0.53.79,0.79,0.26,1.58a1.26,1.26,0,0,1-1.32.52c-0.79-.26-0.53-1.05-1.05-1.31a1,1,0,0,1-1.31.53,1.11,1.11,0,0,1-.79-1.31,1.27,1.27,0,0,1,1.57-.79,2.23,2.23,0,0,1,.79,1.32c0.26-.53,1.05-0.53,1.31-0.79a1.35,1.35,0,0,1-.52-1.57,1.29,1.29,0,0,1,2.36.26" transform="translate(-221.57 -285.91)"/>
  <path class="cls-1" d="M251.52,419.6a0.92,0.92,0,0,1-.79,1.32c-0.79,0-1.05-.53-1.58-1.05a2.05,2.05,0,0,1,1.05-1.05,1,1,0,0,1,1.31.79" transform="translate(-221.57 -285.91)"/>
  <path class="cls-1" d="M260.19,419.6a1.45,1.45,0,0,1-.79,1.32c-0.26.26-.79,0-0.52,0.52,0.52,0,.52.53,0.52,1.05a1.28,1.28,0,0,1-1.58.79,1.06,1.06,0,0,1-.53-1.58,1.41,1.41,0,0,1,1.05-.79c0-.53-0.79-0.79-0.52-1.32a1.23,1.23,0,0,1,2.36,0" transform="translate(-221.57 -285.91)"/>
  <path class="cls-1" d="M268.86,419.6a1.25,1.25,0,0,1-1.32,1.32l-0.27.26a1.25,1.25,0,0,1,.52,1.31,1.11,1.11,0,0,1-1.31.79,1.74,1.74,0,0,1-1-1.31c-0.53.26-.79,0.79-1.32,0.52a1.28,1.28,0,0,1-.79-1.58,1.06,1.06,0,0,1,1.58-.53,1.44,1.44,0,0,1,.79,1.31,1.78,1.78,0,0,1,1.31-.79,1.48,1.48,0,0,1-.52-1.58c0.52-1.05,1.84-.79,2.37.26" transform="translate(-221.57 -285.91)"/>
  <path class="cls-1" d="M262.82,420.39a1.11,1.11,0,0,1-.79,1.31c-0.79.26-1.32-.52-1.58-1.05a2.66,2.66,0,0,1,1.05-1.31,1.75,1.75,0,0,1,1.32,1.05" transform="translate(-221.57 -285.91)"/>
  <path class="cls-1" d="M271.49,420.39a1.44,1.44,0,0,1-.79,1.31c0,0.26-.53,0-0.53.26,0.27,0.53,1.05,1.05.27,1.58a1,1,0,0,1-1.31.52,1.4,1.4,0,0,1-.79-1.57,2.4,2.4,0,0,1,1.31-.79c-0.26-.52-0.79-0.79-0.52-1.57,0.26-.26.79-0.52,1-0.79a1.75,1.75,0,0,1,1.32,1.05" transform="translate(-221.57 -285.91)"/>
  <path class="cls-1" d="M280.42,420.39a0.26,0.26,0,0,0,.26.26,0.88,0.88,0,0,1,1.31-.26,1,1,0,0,1,.53,1.57c-0.27.26-.79,0.53-1.05,0.79a2,2,0,0,1,.52,1.31c-0.52.26-1.05,1.32-1.57,0.79s-1.05-1-.79-1.57a1.79,1.79,0,0,1,1.31-.79c-0.52-.26-0.26-1.05-0.79-1.31a1,1,0,0,1-1.31.52c-0.53-.52-1.05-0.79-0.79-1.57a1.37,1.37,0,0,1,2.36.26" transform="translate(-221.57 -285.91)"/>
  <path class="cls-1" d="M274.11,421.18c0.26,0.52-.52,1.05-0.79,1.31a1.44,1.44,0,0,1-1.31-.79,1,1,0,0,1,.52-1.31,1.1,1.1,0,0,1,1.57.79" transform="translate(-221.57 -285.91)"/>
  <path class="cls-1" d="M239.43,421.44a0.92,0.92,0,0,0,.26.52c0.52-.26.79-0.79,1.31-0.52a1.1,1.1,0,0,1,.79,1.31,2,2,0,0,1-1.05,1.05,1.6,1.6,0,0,1-1-.79,0.91,0.91,0,0,0-.26-0.52,6.68,6.68,0,0,1-1.31.52c-0.53-.52-1.05-1.05-0.79-1.57a1.1,1.1,0,0,1,2.11,0" transform="translate(-221.57 -285.91)"/>
  <path class="cls-1" d="M277,422c-0.26,0,0,.26,0,0.53,0.52-.26.79-1,1.57-0.53a1.25,1.25,0,0,1,.53,1.31,1.11,1.11,0,0,1-1.32.79,2.64,2.64,0,0,1-1-1.31,1.39,1.39,0,0,1-1.05.52,1.41,1.41,0,0,1-1.05-.79c-0.26-.79.26-1,0.79-1.58A2.8,2.8,0,0,1,277,422" transform="translate(-221.57 -285.91)"/>
  <path class="cls-1" d="M285.41,422a1.11,1.11,0,0,1-.79,1.31c-0.27.26-.79,0-1.05-0.52a0.66,0.66,0,0,1-.26-1.06,1.11,1.11,0,0,1,2.1.26" transform="translate(-221.57 -285.91)"/>
  <path class="cls-1" d="M250.73,422.23c0.26,0.26,0,.53.52,0.53,0-.53.79-0.53,1.32-0.53,0.52,0.53.79,1.05,0.52,1.31a1.74,1.74,0,0,1-1.32,1.05c-0.52-.52-1-0.79-1-1.58-0.52.26-.79,1.05-1.58,0.52a1.25,1.25,0,0,1-.53-1.31,1.14,1.14,0,0,1,2.1,0" transform="translate(-221.57 -285.91)"/>
  <path class="cls-1" d="M244.69,423.27a3.46,3.46,0,0,1-.79,1.31,1.77,1.77,0,0,1-1.58-1.05,1.11,1.11,0,0,1,.79-1.31c0.79-.26,1.31.53,1.57,1.05" transform="translate(-221.57 -285.91)"/>
  <path class="cls-1" d="M262,423a0.52,0.52,0,0,0,.26.52c0.52-.26.79-0.78,1.31-0.52a1.27,1.27,0,0,1,.79,1.58,1.17,1.17,0,0,1-1.58.53,1.45,1.45,0,0,1-.79-1.31,1.36,1.36,0,0,1-1.58.53,1,1,0,0,1-.52-1.32,1.09,1.09,0,0,1,2.1,0" transform="translate(-221.57 -285.91)"/>
  <path class="cls-1" d="M247.32,423.8s0,0.53.26,0.53a1,1,0,0,1,1.31-.53c0.52,0.53,1.05.79,0.79,1.58a1.18,1.18,0,0,1-1.58.52,2.74,2.74,0,0,1-.79-1.05,1.73,1.73,0,0,1-1.58.26,1,1,0,0,1-.53-1.58,1.16,1.16,0,0,1,2.1.26" transform="translate(-221.57 -285.91)"/>
  <path class="cls-1" d="M255.73,423.8a1,1,0,0,1-.52,1.32,1.1,1.1,0,0,1-1.58-.79c-0.26-.53.26-0.79,0.79-1.32a1.12,1.12,0,0,1,1.31.79" transform="translate(-221.57 -285.91)"/>
  <path class="cls-1" d="M273.33,423.8c0.26,0,0,.53.52,0.53,0.26-.53.53-0.79,1.05-0.53a1.11,1.11,0,0,1,.79,1.32c-0.26.52-1.05,1.31-1.58,0.79-0.52-.26-0.52-1.05-1.05-1.05,0,0.53-.79.26-1,0.79a1,1,0,0,1,.52,1.32,1.26,1.26,0,0,1-1.32.52,1.11,1.11,0,0,1-.79-1.31,2.6,2.6,0,0,1,1.31-1.05c-0.26-.53-0.79-0.79-0.53-1.58,0.26,0,.53-0.53.79-0.53a1.12,1.12,0,0,1,1.31.79" transform="translate(-221.57 -285.91)"/>
  <path class="cls-1" d="M258.35,424.06c0.52,0.26,0,1.05.52,1.05a1.26,1.26,0,0,1,1.32-.53,1.12,1.12,0,0,1,.79,1.32c-0.53.52-1.05,1.31-1.58,0.79a2.63,2.63,0,0,1-1.05-1.31c-0.26.26-.79,1-1.31,0.52-0.53-.26-1.05-0.79-0.53-1.32a1.16,1.16,0,0,1,1.84-.52" transform="translate(-221.57 -285.91)"/>
  <path class="cls-1" d="M267,424.59a1,1,0,0,1-.52,1.32,1.28,1.28,0,0,1-1.58-.79,1.12,1.12,0,0,1,.79-1.32,1.45,1.45,0,0,1,1.31.79" transform="translate(-221.57 -285.91)"/>
  <path class="cls-1" d="M284.63,424.59a1.11,1.11,0,0,1-.79,1.32c0,0.26-.52,0-0.52.52a1,1,0,0,1,.52,1.32,1.27,1.27,0,0,1-1.58.53,1.17,1.17,0,0,1-.53-1.58,2.74,2.74,0,0,1,1.05-.79,1.26,1.26,0,0,1-.26-1.32c0.26-1,1.58-1,2.1,0" transform="translate(-221.57 -285.91)"/>
  <path class="cls-1" d="M293.3,424.59a1.46,1.46,0,0,1-.79,1.32,1,1,0,0,1-.79.26c0.27,0.52,1.05.79,0.53,1.57a1,1,0,0,1-1.32.53,1.28,1.28,0,0,1-.79-1.58,2.22,2.22,0,0,1,1.31-.79,1.38,1.38,0,0,1-.52-1.05,1.18,1.18,0,0,1,.79-1.05,1.6,1.6,0,0,1,1.58.79" transform="translate(-221.57 -285.91)"/>
  <path class="cls-1" d="M241,424.85a1.4,1.4,0,0,1-.79,1.57c0,0.26-.53-0.26-0.53.26a1,1,0,0,1,.53,1.32c-0.53.52-1.05,1-1.57,0.52a1.26,1.26,0,0,1-.53-1.58c0.26-.53,1.05-0.26,1.32-0.79a1,1,0,0,1-.53-1.32,1.15,1.15,0,0,1,2.1,0" transform="translate(-221.57 -285.91)"/>
  <path class="cls-1" d="M269.91,425.38c0.26,0.79-.52,1-0.79,1.31a1.28,1.28,0,0,1-1.58-.79,1.45,1.45,0,0,1,.79-1.32,1.28,1.28,0,0,1,1.58.79" transform="translate(-221.57 -285.91)"/>
  <path class="cls-1" d="M278.58,425.38a1.41,1.41,0,0,1-1.05,1.31,1.08,1.08,0,0,1-.52-2.1,1.41,1.41,0,0,1,1.57.79" transform="translate(-221.57 -285.91)"/>
  <path class="cls-1" d="M287.52,425.38c0,0.26-.26.52,0,0.52,0.52-.26.79-1.05,1.31-0.52a1.1,1.1,0,0,1,.79,1.31c-0.26.52-.79,1.32-1.58,0.79a2.25,2.25,0,0,1-.78-1.31,1.25,1.25,0,0,1-1.32.52,2.21,2.21,0,0,1-.79-0.79,1.45,1.45,0,0,1,.79-1.32,1.41,1.41,0,0,1,1.58.79" transform="translate(-221.57 -285.91)"/>
  <path class="cls-1" d="M295.93,425.38c0.26,0.79-.27,1-0.79,1.31-0.26,0-.26.26-0.52,0.26a1.25,1.25,0,0,1,.52,1.31c-0.52.52-.79,1.32-1.57,0.79-0.53-.52-1.05-0.79-0.53-1.31,0-1.05,2.1-.79.53-1.84a1.45,1.45,0,0,1,.79-1.32c0.79-.26,1.31.53,1.58,0.79" transform="translate(-221.57 -285.91)"/>
  <path class="cls-1" d="M243.9,425.9v0.26c0.52,0,.79-0.79,1.58-0.53,0.52,0.53,1.05,1.05.52,1.58a1.12,1.12,0,0,1-1.31.79c-0.53-.53-1.05-0.79-0.79-1.32a4.43,4.43,0,0,1-1.31.53c-0.26.53,0.26,0.53,0.52,0.79,0.26,0.78-.52,1-0.79,1.57a1.59,1.59,0,0,1-1.58-.79,1.28,1.28,0,0,1,.79-1.58c0.26,0,.52,0,0.52-0.26a0.88,0.88,0,0,1-.26-1.32c0.26-1.31,1.58-.79,2.1.26" transform="translate(-221.57 -285.91)"/>
  <path class="cls-1" d="M252.31,425.9a1.11,1.11,0,0,1-.79,1.31s-0.52,0-.52.26a1,1,0,0,1,.52,1.31,1.44,1.44,0,0,1-1.31.79,3.87,3.87,0,0,1-1.05-1,2.61,2.61,0,0,1,1.05-1.31,0.53,0.53,0,0,0,.52-0.26,1,1,0,0,1-.52-1.32,1.1,1.1,0,0,1,2.1.26" transform="translate(-221.57 -285.91)"/>
  <path class="cls-1" d="M281.21,426.17a1.22,1.22,0,1,1-2.37.52,1.44,1.44,0,0,1,.79-1.31,1.27,1.27,0,0,1,1.58.79" transform="translate(-221.57 -285.91)"/>
  <path class="cls-1" d="M255.2,426.42a1.45,1.45,0,0,1-1,1.58,0.26,0.26,0,0,0-.26.26,1.54,1.54,0,0,1,.52,1.31c-0.52.26-.79,1.05-1.58,0.79a1.27,1.27,0,0,1-.79-1.58,2.22,2.22,0,0,1,1.31-.78c-0.26-.53-0.79-1.06-0.53-1.58,0.27-.26.79-0.52,1.05-0.79a2.27,2.27,0,0,1,1.31.79" transform="translate(-221.57 -285.91)"/>
  <path class="cls-1" d="M263.61,426.69c0.26,0.53-.52,1.05-0.79,1.32a0.52,0.52,0,0,0-.52.26,1,1,0,0,1,.52,1.32,1,1,0,0,1-1.58.53,1.25,1.25,0,0,1-.53-1.32l0.79-.78H262c-0.26-.53-1.05-1.06-0.53-1.58a2.3,2.3,0,0,1,.79-0.79,1.18,1.18,0,0,1,1.31,1.05" transform="translate(-221.57 -285.91)"/>
  <path class="cls-1" d="M248.89,427.21a2.22,2.22,0,0,1-.79,1.58,1.21,1.21,0,0,1-1.31-.78,1.41,1.41,0,0,1,.79-1.58,2.26,2.26,0,0,1,1.31.79" transform="translate(-221.57 -285.91)"/>
  <path class="cls-1" d="M257.82,427.21c0,0.26,0,.53.26,0.53a1.25,1.25,0,0,1,1.31-.53c0.53,0.53,1.05,1.05.79,1.58a1.87,1.87,0,0,1-1.58.79,3.68,3.68,0,0,1-.79-1.05v-0.26c-0.52.26-1.05,0.79-1.58,0.52a1.86,1.86,0,0,1-.79-1.58,1.63,1.63,0,0,1,1.05-.79,2.26,2.26,0,0,1,1.31.79" transform="translate(-221.57 -285.91)"/>
  <path class="cls-1" d="M266.49,427.21a1.76,1.76,0,0,1-1.05,1.58h-0.53a8.2,8.2,0,0,1,.79,1.32,2.81,2.81,0,0,1-1.58,1c-0.53-.53-1.05-1-0.79-1.57a2.63,2.63,0,0,1,1.32-1.05,1.26,1.26,0,0,1-.52-1.58c0.52-1.05,1.84-.53,2.36.26" transform="translate(-221.57 -285.91)"/>
  <path class="cls-1" d="M274.9,427.21c0.26,0.53-.26,1.05-0.79,1.58h-0.52c0,0.53.79,0.79,0.52,1.05a1.74,1.74,0,0,1-1.05,1.31,1.76,1.76,0,0,1-1.31-1,2.63,2.63,0,0,1,1.05-1.32,0.53,0.53,0,0,0,.52-0.26,1,1,0,0,1-.52-1.32,1.14,1.14,0,0,1,2.1,0" transform="translate(-221.57 -285.91)"/>
  <path class="cls-1" d="M286.2,428.27a1.46,1.46,0,0,1-.79,1.32c-0.79.26-1.05-.53-1.58-1.05a1.75,1.75,0,0,1,1.05-1.31,1.34,1.34,0,0,1,1.31,1.05" transform="translate(-221.57 -285.91)"/>
  <path class="cls-1" d="M269.12,428c0,0.26,0,.52.26,0.52a1.23,1.23,0,0,1,1.31-.52,1.4,1.4,0,0,1,.79,1.57c-0.52.26-.79,1-1.58,0.79a2.22,2.22,0,0,1-.79-1.32,3.73,3.73,0,0,1-1.58.53,2.78,2.78,0,0,1-.79-1.05,2.24,2.24,0,0,1,.79-1.31,1.86,1.86,0,0,1,1.58.79" transform="translate(-221.57 -285.91)"/>
  <path class="cls-1" d="M277.79,428.27a2.24,2.24,0,0,1-.79,1.32c-0.53,0-.79-0.27-1.05,0,0.26,0.53.79,0.53,1.05,1a2.85,2.85,0,0,1-.79,1,5.66,5.66,0,0,1-2.11,0l0.79-.27c-0.26-.53-0.52-1,0-1.31,0.26-.53,1.05-0.53,1.05-0.79a1,1,0,0,1-.52-1.31,1.24,1.24,0,0,1,2.36.26" transform="translate(-221.57 -285.91)"/>
  <path class="cls-1" d="M280.42,428.79v0.79a2.74,2.74,0,0,1,1.05-.79,2.62,2.62,0,0,1,1.31,1.05,1.73,1.73,0,0,1-1.05,1.31,1.47,1.47,0,0,1-1.31-1.57,3.51,3.51,0,0,1-1.31.79,2,2,0,0,1-1.05-1.05,1.33,1.33,0,0,1,1.05-1.31,2.24,2.24,0,0,1,1.31.78" transform="translate(-221.57 -285.91)"/>
  <path class="cls-1" d="M288.83,428.79c0.26,0.79-.26,1.05-0.79,1.58a1.21,1.21,0,0,1-1.32-1.05,1.08,1.08,0,0,1,2.1-.53" transform="translate(-221.57 -285.91)"/>
  <path class="cls-1" d="M297.5,428.79a1.28,1.28,0,0,1-.79,1.58c-0.79.26-1.32-.53-1.58-1.05s0.52-1.05,1-1.31a1.44,1.44,0,0,1,1.32.78" transform="translate(-221.57 -285.91)"/>
  <path class="cls-1" d="M245.48,429.32c0.26,0.53-.52,1.05-0.79,1.32a0.92,0.92,0,0,0-.52.27,2,2,0,0,1,.52,1.31,3.57,3.57,0,0,1-2.36,0,1,1,0,0,1,.79-1.31c0.26,0,.26-0.27.52-0.27-0.26-.52-0.79-0.79-0.52-1.32a2,2,0,0,1,1.05-1.05,2.64,2.64,0,0,1,1.31,1.05" transform="translate(-221.57 -285.91)"/>
  <path class="cls-1" d="M291.72,429.84a2.6,2.6,0,0,1-1,1.31,2.56,2.56,0,0,1-1.31-1,1.75,1.75,0,0,1,1-1.32,2.62,2.62,0,0,1,1.31,1.05" transform="translate(-221.57 -285.91)"/>
  <path class="cls-1" d="M248.1,430.11a1.46,1.46,0,0,1-.79,1.32,1.59,1.59,0,0,1-1.58-.79,1.64,1.64,0,0,1,.79-1.32,1.27,1.27,0,0,1,1.57.79" transform="translate(-221.57 -285.91)"/>
  <path class="cls-1" d="M256.78,430.11a1.76,1.76,0,0,1-1.05,1.32c0,0.26-.79,0-0.52.52h0.26v0.26a2.38,2.38,0,0,1-1.32-.26,1.4,1.4,0,0,1,.79-0.52c-0.26-.52-1.05-1.05-0.52-1.58,0.52-1.05,1.84-.53,2.36.26" transform="translate(-221.57 -285.91)"/>
  <path class="cls-1" d="M285.41,430.63a1.4,1.4,0,0,1-.52.79c-0.53,0-1.58.27-1.58-.53-0.26-.79.53-1,0.79-1.31a2.61,2.61,0,0,1,1.31,1" transform="translate(-221.57 -285.91)"/>
  <path class="cls-1" d="M294.09,430.37c0,0.53.26,0.79,0,1.05a2.23,2.23,0,0,1-1.84-.52,0.92,0.92,0,0,1,.79-1.06,1,1,0,0,1,1.05.53" transform="translate(-221.57 -285.91)"/>
  <path class="cls-1" d="M250.73,430.89a0.92,0.92,0,0,1,.26.53c0.52-.26.78-1,1.31-0.53a1.1,1.1,0,0,1,.79,1,5,5,0,0,1-2.1.27c-0.26-.27,0-0.79-0.26-0.53a1.27,1.27,0,0,1-1.58.53c-0.53,0-.26-0.79-0.53-1.05-0.26-.53.53-0.79,0.79-1.31a1.75,1.75,0,0,1,1.32,1" transform="translate(-221.57 -285.91)"/>
  <path class="cls-1" d="M259.4,430.89a1.36,1.36,0,0,1-.52,1c-0.53-.26-1.84.79-1.84-0.52a1.65,1.65,0,0,1,.79-1.32,1.28,1.28,0,0,1,1.58.79" transform="translate(-221.57 -285.91)"/>
  <path class="cls-1" d="M267.81,430.89c0.26,0.26-.26.79-0.52,1-0.53-.26-1.58.27-1.58-0.79a1.1,1.1,0,0,1,.79-1.06c0.52,0,1.31.27,1.31,0.79" transform="translate(-221.57 -285.91)"/>
  <path class="cls-1" d="M296.19,430.89c0.26,0.26,0,.26-0.26.53-0.27-.26-0.79,0-1.06-0.26a0.57,0.57,0,0,1,.53-0.53,1,1,0,0,1,.79.26" transform="translate(-221.57 -285.91)"/>
  <path class="cls-1" d="M262,431.68a3,3,0,0,1-2.1.26,1.17,1.17,0,0,1,.79-1c0.52,0,1.31.26,1.31,0.79" transform="translate(-221.57 -285.91)"/>
  <path class="cls-1" d="M270.44,431.42c0,0.27,0,.27.26,0.27a2.92,2.92,0,0,1-2.1,0,1.39,1.39,0,0,1,.53-0.79,1,1,0,0,1,1.31.53" transform="translate(-221.57 -285.91)"/>
  <path class="cls-1" d="M279.11,431.42a1.17,1.17,0,0,1-1.32,0,0.88,0.88,0,0,1,1.32-.26s0.26,0,0,.26" transform="translate(-221.57 -285.91)"/>
  <path class="cls-1" d="M287.78,431.42a2.15,2.15,0,0,1-1.31,0H286.2a0.91,0.91,0,0,1,1.31-.26,0.26,0.26,0,0,1,.26.26" transform="translate(-221.57 -285.91)"/>
  <line class="cls-4" x1="42.3" y1="145.78" x2="42.04" y2="145.78"/>
  <path class="cls-1" d="M246.79,432.21a1.42,1.42,0,0,1-1.05,0v-0.27c0.53,0,.79-0.26,1.05.27" transform="translate(-221.57 -285.91)"/>
  <path class="cls-1" d="M239.69,432.47h-0.26v-0.26a0.26,0.26,0,0,0,.26.26" transform="translate(-221.57 -285.91)"/>
  <path class="cls-1" d="M324,444.73a11.55,11.55,0,0,0-2.28,3.76,4.6,4.6,0,0,0,.44,3.07c0.23,0.53.44,0.66,0.79,0.52a8,8,0,0,1,3-.5,0.73,0.73,0,0,0,.47-0.72,10.46,10.46,0,0,1,.79-2.46,8.25,8.25,0,0,1,5-4.11,3.94,3.94,0,0,1,2.36,0c0.5,0.32-.79.79-1.32,1.05a7.25,7.25,0,0,0-3.59,3.67c-0.29.78-.41,2.07,0.52,2.18,1.43,0.19,1.47.53,2.8,0.53a1.58,1.58,0,0,0,1.32-.62,17.88,17.88,0,0,1,3.95-3.16c0.73-.27,2.42-0.58,2.89-0.17s-0.86.6-1.32,1c-0.67.53-3.65,3.57-3.06,4.55,0.47,0.8,3.38,2.6,3.06,3.85-0.14.57-.88,0.34-1,0a3.25,3.25,0,0,0-1.58-1.31c-3.09-1.93-8.22-2-12.8-.83a24.52,24.52,0,0,0-10.58,5.82,0.49,0.49,0,0,0,.22.84,4.37,4.37,0,0,1,1.35,1.17c0.47,0.63,1,1.22.35,2.19a1.46,1.46,0,0,1-2,.36,11.26,11.26,0,0,1-1.88-1.46c-0.35-.28-0.32-0.17-0.84.23-1,.8-1.38,1.84-2.45,1.93-0.58,0-1.87-.25-2.1-0.79-0.56-1.3.17-2.1,1.22-2.89a1.48,1.48,0,0,1,.62-0.27,1.22,1.22,0,0,0-.54-0.47c-0.34-.52-0.84-0.81-1.13-1.28-0.73-1.18-.93-1.94.18-2.71a2.17,2.17,0,0,1,2,0A8.28,8.28,0,0,1,310,459c0.34,0.34.43,0.36,0.77,0.13a10.21,10.21,0,0,0,2.19-1.84,0.85,0.85,0,0,0,0-1.14,6.48,6.48,0,0,1-1.06-3.33,4.61,4.61,0,0,1,2.63-4c0.25-.07.72,0.08,0.26,0.53-0.67.67-.52,1.84-0.52,2.89a2.93,2.93,0,0,0,.88,2.44,0.82,0.82,0,0,0,1.31.18c0.64-.51,1.35-0.59,1.86-1,0.3-.21.88-0.28,0.68-0.88a8.08,8.08,0,0,1,.26-5.08,6.79,6.79,0,0,1,4.21-3.85c0.46-.16.87,0.26,0.44,0.7" transform="translate(-221.57 -285.91)"/>
  <path class="cls-2" d="M267.81,458.75c0.52,0.26,1.32-1.32,1.58.26a1.25,1.25,0,0,0,1.31.52c0.79-.26.52-1.57,1.31-1.32,0,0.53-.52,1.05,0,1.58s1.05,0.79,1.32.53c0.79-.27,1.31-1.05.79-1.58a1.91,1.91,0,0,1,.22-1.18c0.59-.29,1.67.86,2.61,1a1.9,1.9,0,0,0,1.11-.52c-0.26.52,0.53,1,.79,1.53h0.79l0.53-.52a3.2,3.2,0,0,0,1.31,1.32c0.53,0.26,1.05-.53,1.31-1.05,0.26-.26-0.26-0.52-0.26-1.05,0.52,0,1.31-.9,1.84-0.38a2.73,2.73,0,0,1-.53.92,2.26,2.26,0,0,0-.79,1.58c0.53,0.26,1.05,1,1.58.79,0.53-.52,1-0.77.79-1.58-0.06-.25-1-0.5-0.52-0.78,0.66-.44,1.21-0.9,1.58-0.53a9.18,9.18,0,0,0,1.05,1.32c0.74,0.37,1-.3,1.32-0.78,0.2-.31,0-0.53.26-0.53h0.52c0.6,0-.44,1,0,1.58a1,1,0,0,0,1.32.53,1.5,1.5,0,0,0,.79-1.58c-0.08-.25-0.49-0.41-0.26-0.53,0.48-.23,1.61-0.44,1.84.27,0.12,0.35-1.1.51-1.31,1-0.31.77,0.52,1.32,1,1.58,0.53,0,.72-0.69,1.05-0.52,0.53,0.26.79,1.05,1.32,1.31,0.79,0.27,1.05-.52,1.31-0.79,0.26-.52.11-1.31-0.26-1.31h-0.26c-0.26,0,.52-0.27.52-0.27a1.07,1.07,0,0,1,1.22-.52c1.22,0.08,1.29.8,0.64,1.07s-0.78.9-1.33,1c0,0.26-.26.79-0.26,1.05l1.44,0.78a3,3,0,0,0-2.22,1.05,3.46,3.46,0,0,0,.79,1.32H298c0.26,0.52,0,1,.26,1.58a2.65,2.65,0,0,0-1.58-1.31,2.15,2.15,0,0,0-1.31,1.31,1.63,1.63,0,0,0,.79,1.05c0.79,0.53,1,0,1.57-.26l0.53,1.32c-0.53.52-1.58,1-1.05,1.83,0.26,0.53,1.05.53,1.05,1a1.67,1.67,0,0,0-1.58.53,0.86,0.86,0,0,0-.26,1L297,474a2.68,2.68,0,0,0-1.58,1.32,1.74,1.74,0,0,0,1.05,1.31c0.79,0.52,1-.52,1.58-0.78a2,2,0,0,0-.53-1.32c0-.26.53-0.26,0.79-0.26a1.2,1.2,0,0,1,0,1.31c0,0.53-.79.79-0.26,1.32,0,0.26.26,0.53,0.26,0.78-0.26.27-.79,0.27-1.05,0.53a2.32,2.32,0,0,0-1-1.31c-0.26-.27-0.79.26-1.05,0.53a0.88,0.88,0,0,0-.26,1.31,1,1,0,0,0,1.58.53c0.26,0,.26-0.27.52-0.27a2.16,2.16,0,0,0,1.31,1.31h0.26v0.26a3.22,3.22,0,0,0-1.57,0,1.27,1.27,0,0,0-.52,1.58c0,0.26.26,0.26,0.26,0.53-0.52.26-.79-0.53-1-0.53,0-.53.79-1.05,0.52-1.58-0.52-.52-1.05-1.31-1.84-0.79-0.26,0-.26,0-0.26.26h-0.26a1.63,1.63,0,0,0-.79-1c-0.78-.52-1.31,0-1.83.52v0.79c-0.27-.53,0-1-0.27-1.58a2,2,0,0,0-1.84-.78,3.74,3.74,0,0,0-.79,1c0-.52.26-1.32-0.26-1.84,0.26-.26,1.32-0.79,1.05-1.57-0.52-.52-1.05-1.31-1.58-1a5.66,5.66,0,0,0-1.05,1.32l0.53,1c-0.53-.27-0.79.53-1.32,0.26a1.12,1.12,0,0,0-1.05-1c-0.52-.53-1.31.52-1.58-0.26a2.87,2.87,0,0,0-1-.79,3.68,3.68,0,0,1-1.05.52l-0.79-1c0.26-.26,1.05-0.53,1.05-1.05a1.29,1.29,0,0,0-.79-1.58,1,1,0,0,0-1.31.53c-0.26,0,0-.53-0.26-0.53a1.87,1.87,0,0,0-1.57-.78,1.54,1.54,0,0,0-.79,1.84H275.7a1.74,1.74,0,0,0,.52-1.84,1.44,1.44,0,0,0-1.84-.79,1.63,1.63,0,0,0-.79,1.05h-0.26a1.58,1.58,0,0,0,0-1.84c0.53-.52,1.31-1,0.79-1.84a1.28,1.28,0,0,0-1.58-.79l-0.52.53a1.74,1.74,0,0,0-1-1.32c-0.53-.26-1.05.26-1.58,0.79s0.79,1.05-.26,1.05c-0.26.26-.53-0.26-0.79-0.26,0-.52.79-0.79,1.05-1.32,0.26-.78-1.31-1.32,0-1.57a1.17,1.17,0,0,0,.53-1.58c-0.53-.26-1.05-1-1.58-0.52a1.11,1.11,0,0,0-.79,1.31l0.53,0.79c-0.53-.26-1.32,1.31-1.58,0,0-.52-0.53-0.52-0.79-0.79a1.26,1.26,0,0,0-1.32.27h-0.26a3.16,3.16,0,0,0-1.31-1.32c-0.52,0-1.05.26-1.32-.52a3.67,3.67,0,0,0,.79-1.05,2.27,2.27,0,0,0-.79-1.58c-0.52,0-1.31-.27-1.31.26-0.52,0-.52-0.79-1.31-1,0.79,0,1.05-.79,1.57-0.79,0,0.53.53,0.79,0.79,1.32,0.79,0.52,1.1-.69,1.62-1.22-0.52-1,1,.17,1.27-0.1,1.05,0.27,2.89-.52,3.68.53" transform="translate(-221.57 -285.91)"/>
  <path class="cls-2" d="M258.09,458.49c0.26,0.27-.26.27-0.26,0.27a0.57,0.57,0,0,1-.52-0.53,1,1,0,0,1,.79.27" transform="translate(-221.57 -285.91)"/>
  <line class="cls-5" x1="59.12" y1="172.58" x2="59.12" y2="172.31"/>
  <path class="cls-1" d="M265.71,459.27c-0.26,0,0,.26,0,0.53,0.52-.27.79-1,1.57-0.53a1.24,1.24,0,0,1,.52,1.32c0,1.05-2.36.79-.79,1.58a1.27,1.27,0,0,1-.52,1.58,1.28,1.28,0,0,1-1.58-.79c0-.26,0-0.52-0.26-0.52a1.26,1.26,0,0,1-1.32.52c-0.52-.52-1-1-0.78-1.57s1-.52,1.31-1a1.26,1.26,0,0,1-.53-1.32c0.53-1,1.84-.79,2.37.26" transform="translate(-221.57 -285.91)"/>
  <path class="cls-2" d="M295.66,459.27a1.41,1.41,0,0,0-1,.79,2.9,2.9,0,0,0-.79-1v-0.26c0.79,0.52,1-1.05,1.31,0" transform="translate(-221.57 -285.91)"/>
  <path class="cls-1" d="M277,459.8c0.26,0.52-.26.79-0.52,1.31a3.67,3.67,0,0,1-1.05.53,1.41,1.41,0,0,1,.79,1.05,2.22,2.22,0,0,1,1.57-.53c0.26,0.53,1.05,1.05.53,1.58a1.11,1.11,0,0,1-1.31.79,2.66,2.66,0,0,1-1.05-1.31,1.19,1.19,0,0,1-1.58.26,1,1,0,0,1-.52-1.32,1.78,1.78,0,0,1,1.31-.78c-0.26-.52-0.79-1.05-0.52-1.58a1.47,1.47,0,0,1,2.36,0" transform="translate(-221.57 -285.91)"/>
  <path class="cls-1" d="M270.7,460.58a1.25,1.25,0,0,1-2.36.79c-0.26-.79.52-1.05,0.79-1.58a2.25,2.25,0,0,1,1.57.79" transform="translate(-221.57 -285.91)"/>
  <path class="cls-1" d="M279.64,460.58v0.79c0.52-.52,1.05-1.05,1.58-0.52a1.43,1.43,0,0,1,.79,1.31c-0.52.53-1.05,1.05-1.57,0.79a2.62,2.62,0,0,1-1.05-1.32c-0.26.26-.79,1.05-1.31,0.52s-1.05-1-.53-1.58c0.26-.79,1.58-0.79,2.1,0" transform="translate(-221.57 -285.91)"/>
  <path class="cls-1" d="M288,460.58a1.27,1.27,0,0,1-.79,1.58,0.52,0.52,0,0,0-.52.27c0.26,0.26,1,.79.52,1.32a1.11,1.11,0,0,1-1.31.78c-0.53,0-.53-0.52-0.79-1.05a1.36,1.36,0,0,1,.53-1,1,1,0,0,1,.79-0.27c-0.26-.52-0.79-0.78-0.52-1a1.44,1.44,0,0,1,.79-1.31c0.79-.26,1,0.52,1.31.79" transform="translate(-221.57 -285.91)"/>
  <path class="cls-3" d="M266.23,461.11c-0.52.27-.79,0.53-1.31,0.79,0.26-.79-1.31-1.31,0-1.31a1,1,0,0,1,.53-0.53,0.92,0.92,0,0,0,.79,1.05" transform="translate(-221.57 -285.91)"/>
  <path class="cls-1" d="M273.33,461.37a1.41,1.41,0,0,1-.79,1.58c-0.52,0-1.32-.26-1.32-0.79a1.28,1.28,0,0,1,.79-1.58,2.24,2.24,0,0,1,1.31.79" transform="translate(-221.57 -285.91)"/>
  <path class="cls-1" d="M290.93,461.37c0,0.26,0,.79.27,0.53a1.15,1.15,0,0,1,1.31-.26,1.45,1.45,0,0,1,.79,1.32c-0.52.52-1,1.05-1.58,0.79a2.68,2.68,0,0,1-1-1.32,1.24,1.24,0,0,1-1.31.52c-0.52-.52-1.05-1.05-0.79-1.58a1.36,1.36,0,0,1,2.36,0" transform="translate(-221.57 -285.91)"/>
  <path class="cls-1" d="M284.63,462.16a1.41,1.41,0,0,1-.79,1.58c-0.52.26-1.05-.27-1.58-0.79,0-.79.52-1.05,1.05-1.57a1.44,1.44,0,0,1,1.31.78" transform="translate(-221.57 -285.91)"/>
  <path class="cls-1" d="M295.93,463.21a1.12,1.12,0,0,1-.79,1.32,1.57,1.57,0,0,1-1-.26,1.16,1.16,0,0,1-.26-1.32c0.26-1.05,1.84-.79,2.1.26" transform="translate(-221.57 -285.91)"/>
  <path class="cls-1" d="M272.54,464.27c0,0.26,0,.52.26,0.52a1.26,1.26,0,0,1,1.57-.52,1.35,1.35,0,0,1,.52,1.57,1.26,1.26,0,0,1-1.58.52,5.53,5.53,0,0,1-.79-1.32c-0.52.27-.79,0.79-1.58,0.53-0.26-.53-0.79-0.79-0.52-1.32a2,2,0,0,1,1.05-1.05,1.42,1.42,0,0,1,1,1.05" transform="translate(-221.57 -285.91)"/>
  <path class="cls-1" d="M281.21,464.27c0,0.52-.26,1.32-0.79,1.32a0.93,0.93,0,0,0-.53.26,2,2,0,0,1,.53,1.05,1.42,1.42,0,0,1-1.05,1.05,1.11,1.11,0,0,1-1.32-.79,2.26,2.26,0,0,1,.79-1.32,0.93,0.93,0,0,0,.53-0.26c-0.26-.53-0.79-0.79-0.53-1.32a4.07,4.07,0,0,1,1.05-1.05,2.62,2.62,0,0,1,1.32,1.05" transform="translate(-221.57 -285.91)"/>
  <path class="cls-1" d="M289.88,464.27a1.43,1.43,0,0,1-1.05,1.32c-0.26,0-.26.26-0.52,0.26a1.7,1.7,0,0,1,.52,1.58,1.49,1.49,0,0,1-1.58.52,5.48,5.48,0,0,1-.79-1.31,1.26,1.26,0,0,1-1.32.52,1.13,1.13,0,0,1-.79-0.79,1.23,1.23,0,0,1,.79-1.32c0.53-.26,1.05.27,1.57,0.79,0,0.26-.26.26,0,0.52,0.53-.52,1.05-0.52,1.32-1a1,1,0,0,1-.53-1.32,3.68,3.68,0,0,1,1.05-.79,4.58,4.58,0,0,1,1.32,1.05" transform="translate(-221.57 -285.91)"/>
  <path class="cls-1" d="M283.84,465c0.26,0.53-.26,1.05-0.79,1.58a1.76,1.76,0,0,1-1.32-1,1,1,0,0,1,.53-1.32,1.28,1.28,0,0,1,1.58.78" transform="translate(-221.57 -285.91)"/>
  <path class="cls-1" d="M292.25,464.79c0.52,0.8-.26,1.58-0.79,1.85,0,0-.26-0.27-0.26,0,0,0.52.79,0.78,0.52,1.31-0.52.52-.79,1.32-1.58,0.79a1.44,1.44,0,0,1-.79-1.31,2.65,2.65,0,0,1,1.32-1.05,1.19,1.19,0,0,1-.26-1.58,1,1,0,0,1,1.84,0" transform="translate(-221.57 -285.91)"/>
  <path class="cls-1" d="M277.79,465.84a2.25,2.25,0,0,1-.79,1.32c-0.53.52-.79,0-1.32-0.27a1.15,1.15,0,0,1-.26-1.31c0.52-1.05,1.84-.53,2.36.26" transform="translate(-221.57 -285.91)"/>
  <path class="cls-1" d="M295.14,465.84a1.46,1.46,0,0,1-.79,1.32c-0.52.52-.79,0-1-0.27a0.87,0.87,0,0,1-.27-1.31,1.15,1.15,0,0,1,2.1.26" transform="translate(-221.57 -285.91)"/>
  <path class="cls-1" d="M283.05,467.68a0.92,0.92,0,0,0,.26.52,1.26,1.26,0,0,1,1.32-.52c0.52,0.52,1.05,1,.79,1.58-0.52.52-.79,1-1.58,0.79-0.53-.27-0.53-1-1.05-1.32a0.89,0.89,0,0,1-1.05.53c-0.52-.53-1-1.05-0.79-1.58a2.29,2.29,0,0,1,.79-0.79,2.25,2.25,0,0,1,1.32.79" transform="translate(-221.57 -285.91)"/>
  <path class="cls-1" d="M277,468.47a2,2,0,0,1-.52,1.32,1.59,1.59,0,0,1-1.05.26c-0.26-.52-1.05-0.79-0.79-1.32a1.65,1.65,0,0,1,.79-1.05,1.88,1.88,0,0,1,1.58.79" transform="translate(-221.57 -285.91)"/>
  <path class="cls-1" d="M294.34,468.47a0.52,0.52,0,0,0,.27.52,1.35,1.35,0,0,1,1-.52,2.7,2.7,0,0,1,1,.79,1.27,1.27,0,0,1-.79,1.57c-0.79.27-1.05-.52-1.58-0.79v-0.52c-0.52.26-1,.79-1.57,0.52a3,3,0,0,1-.79-1.58c0.26-.26.79-0.52,1.05-0.79a1.45,1.45,0,0,1,1.31.79" transform="translate(-221.57 -285.91)"/>
  <path class="cls-2" d="M272,469c-0.26,0-.52.53-0.79,0.53l-0.53-1.05c0.53,0.26.53-.52,1.05-0.52" transform="translate(-221.57 -285.91)"/>
  <path class="cls-1" d="M279.64,469.26v0.53c0.52-.26,1.05-0.79,1.58-0.53,0.52,0.53,1.05,1,.79,1.57-0.52.53-1.05,1-1.57,0.53a4,4,0,0,1-1.05-1.05,1.16,1.16,0,0,1-1.31.26c-0.53-.26-1.05-0.79-0.53-1.31a0.84,0.84,0,0,1,.79-0.79,1.79,1.79,0,0,1,1.32.79" transform="translate(-221.57 -285.91)"/>
  <path class="cls-1" d="M288,469.26c0.26,0.53-.26,1-0.79,1.57-0.52.27-1.05-.52-1.31-0.79a1.28,1.28,0,0,1,.79-1.58,1.11,1.11,0,0,1,1.31.79" transform="translate(-221.57 -285.91)"/>
  <path class="cls-1" d="M290.93,470c0,0.26,0,.53.27,0.53a1,1,0,0,1,1.31-.53,2.28,2.28,0,0,1,.79,1.58,4.5,4.5,0,0,1-1.58.79,3.43,3.43,0,0,1-1-1.58c-0.26.53-.78,1-1.31,0.53a1.11,1.11,0,0,1-.79-1.32c0.52-.26.52-0.79,1-0.79a1.44,1.44,0,0,1,1.31.79" transform="translate(-221.57 -285.91)"/>
  <path class="cls-1" d="M284.63,471.1a1.4,1.4,0,0,1-.79,1.58c0,0.26-.52,0-0.52.26a1,1,0,0,1,.52,1.31c-0.52.53-1.05,1-1.58,0.79-0.53-.52-1.05-1.05-0.53-1.58,0.26-.53,1.05-0.53,1.05-1a1.16,1.16,0,0,1-.26-1.32,1.14,1.14,0,0,1,2.1,0" transform="translate(-221.57 -285.91)"/>
  <path class="cls-1" d="M287.52,472.15a2.25,2.25,0,0,1-.79,1.32c-0.26,0-.79,0-0.79.26a1,1,0,0,1,.53,1.32,1.46,1.46,0,0,1-1.32.79,1.28,1.28,0,0,1-.79-1.58,2.23,2.23,0,0,1,1.31-.79c-0.26-.53-0.79-1-0.52-1.58,0.52-1,1.84-.78,2.36.27" transform="translate(-221.57 -285.91)"/>
  <path class="cls-1" d="M295.93,471.88a1.28,1.28,0,0,1-.53,1.58c-0.27,0-.79,0-0.79.26,0.52,0.53.79,0.79,0.52,1.32a1.11,1.11,0,0,1-1.31.78c-0.52-.53-1.31-1-0.79-1.57,0.27-.53,1.05-0.53,1.05-1.05a1.16,1.16,0,0,1-.26-1.32c0.26-.78,1.58-0.78,2.1,0" transform="translate(-221.57 -285.91)"/>
  <path class="cls-1" d="M290.15,472.94c0.26,0.79,1.05-.79,1.57,0,0.53,0.26,1.06.79,0.53,1.32a1.11,1.11,0,0,1-1.32.79,1.45,1.45,0,0,1-.78-1.32c-0.53.27-1.06,0.79-1.58,0.53-0.52-.53-1.05-0.79-0.79-1.58,0.26-.26.79-0.52,1.05-0.79a1.75,1.75,0,0,1,1.32,1.05" transform="translate(-221.57 -285.91)"/>
  <path class="cls-2" d="M278.85,473.2c-0.26.52,0.52,0.52,0.52,1.05a2.2,2.2,0,0,1-1.84-.53,6.84,6.84,0,0,1,1.31-.52" transform="translate(-221.57 -285.91)"/>
  <path class="cls-1" d="M291.72,476.35a1.41,1.41,0,0,1-1,1.32,1.1,1.1,0,0,1-1.31-.79,1.44,1.44,0,0,1,.79-1.32c0.53-.26,1.05.26,1.58,0.79" transform="translate(-221.57 -285.91)"/>
  <path class="cls-1" d="M294.34,477.14a1.11,1.11,0,0,1-.79,1.32c-0.52.26-1-.26-1.58-0.79-0.27-.79.53-1,1.05-1.32a1.11,1.11,0,0,1,1.31.79" transform="translate(-221.57 -285.91)"/>
  <path class="cls-2" d="M291.46,480.55c0,0.27,0,.27-0.26.27v-0.27c0-.26.26,0,0.26,0" transform="translate(-221.57 -285.91)"/>
  <path class="cls-2" d="M293.56,481.08v0.26c-0.26,0-.53-0.26-0.26-0.52a0.26,0.26,0,0,1,.26.26" transform="translate(-221.57 -285.91)"/>
  <path class="cls-2" d="M298.55,482.92c-0.26.26-.79,0.26-0.79,0,0.27,0,.79-0.79.79,0" transform="translate(-221.57 -285.91)"/>
  <path class="cls-1" d="M306.37,360.6c-0.42,1-.67,1.81-1.51,1.81-1.12,0-1.73-1-1.73-2.85s0.83-2.75,1.67-2.77a1.12,1.12,0,0,1,.67.18,1.59,1.59,0,0,1,.49.58,1.66,1.66,0,0,0,.33.4,0.52,0.52,0,0,0,.39.15,0.45,0.45,0,0,0,.39-0.23,0.87,0.87,0,0,0,.17-0.56,2,2,0,0,0-1-1.49,2.21,2.21,0,0,0-1.44-.43c-1.66.05-2.92,1.45-2.93,4.18s1.21,4.28,2.9,4.21,2.62-1.09,2.82-3.79a0.77,0.77,0,0,0-.17-0.6,0.9,0.9,0,0,0-.57-0.15h-1.36a0.54,0.54,0,0,0-.54.65,0.74,0.74,0,0,0,.16.51,0.44,0.44,0,0,0,.39.2" transform="translate(-221.57 -285.91)"/>
  <path class="cls-1" d="M293.54,357h0.79v5.78a0.7,0.7,0,1,0,1.36,0V357h0.8a0.6,0.6,0,0,0,.66-0.7,0.61,0.61,0,0,0-.66-0.71h-2.94a0.61,0.61,0,0,0-.66.71,0.6,0.6,0,0,0,.66.7" transform="translate(-221.57 -285.91)"/>
  <path class="cls-1" d="M298.32,357h0.78v5.78a0.7,0.7,0,1,0,1.37,0V357h0.79a0.7,0.7,0,0,0,0-1.41h-2.94a0.61,0.61,0,0,0-.66.71,0.6,0.6,0,0,0,.66.7" transform="translate(-221.57 -285.91)"/>
  <path class="cls-1" d="M321.48,357h0.79v5.78a0.7,0.7,0,1,0,1.37,0V357h0.79a0.6,0.6,0,0,0,.66-0.7,0.61,0.61,0,0,0-.66-0.71h-2.94a0.61,0.61,0,0,0-.66.71,0.6,0.6,0,0,0,.66.7" transform="translate(-221.57 -285.91)"/>
  <path class="cls-1" d="M287.14,356.35v4.39c0,2,.9,3,2.65,3s2.63-1,2.63-3v-4.39a0.7,0.7,0,1,0-1.36,0v4.21c0,1.19-.41,1.78-1.29,1.78s-1.28-.58-1.28-1.78v-4.21a0.7,0.7,0,1,0-1.36,0" transform="translate(-221.57 -285.91)"/>
  <path class="cls-1" d="M282.6,357h1.12v5.78a0.7,0.7,0,1,0,1.36,0V357H286a0.6,0.6,0,0,0,.66-0.7,0.61,0.61,0,0,0-.66-0.71H282.6a0.61,0.61,0,0,0-.67.71,0.6,0.6,0,0,0,.67.7" transform="translate(-221.57 -285.91)"/>
  <path class="cls-1" d="M281.7,357.09a2.4,2.4,0,0,0-2.27-1.72,2,2,0,0,0-1.57.63,2.7,2.7,0,0,0-.72,1.76,2.52,2.52,0,0,0,2,2.4c0.62,0.17,1.61.32,1.61,1.2a1,1,0,0,1-1.14,1,1.37,1.37,0,0,1-1.42-1.09,0.56,0.56,0,0,0-.87-0.17,0.74,0.74,0,0,0-.19.6,2.41,2.41,0,0,0,2.4,2,2.31,2.31,0,0,0,2.43-2.57,2.64,2.64,0,0,0-2.2-2.37c-0.51-.16-1.42-0.32-1.42-1.1a1.11,1.11,0,0,1,1-1.14,1.46,1.46,0,0,1,1.37,1,0.72,0.72,0,0,0,.62.16c0.35-.05.45-0.23,0.35-0.69" transform="translate(-221.57 -285.91)"/>
  <path class="cls-1" d="M316.22,356.87h1.5a1.08,1.08,0,0,1,1.12,1.14,0.91,0.91,0,0,1-1,1.06h-1.6m0,3.71v-2.33l0.18,0.09,2.67,2.65a0.92,0.92,0,0,0,1.1.31,0.66,0.66,0,0,0,0-1l-2-2.21a2.46,2.46,0,0,0,2-2.39c0-1.51-1.29-2.25-2.71-2.25h-1.79a0.71,0.71,0,0,0-.66.29,1.86,1.86,0,0,0-.17,1v5.94a0.7,0.7,0,1,0,1.36,0" transform="translate(-221.57 -285.91)"/>
  <path class="cls-1" d="M311.25,357.17l0.92,3.4h-1.83m-0.67,2.49,0.3-1.14h2.56l0.32,1.14a0.66,0.66,0,0,0,.65.59,0.7,0.7,0,0,0,.49-0.21,0.75,0.75,0,0,0,.17-0.51,1.22,1.22,0,0,0-.07-0.41l-1.86-6.22a1.44,1.44,0,0,0-.3-0.65,1.07,1.07,0,0,0-.68-0.17,1,1,0,0,0-.66.17,0.63,0.63,0,0,0-.18.25,3.94,3.94,0,0,0-.16.42l-1.82,6.2a1.2,1.2,0,0,0-.07.41,0.7,0.7,0,0,0,.18.51,0.65,0.65,0,0,0,1.13-.39" transform="translate(-221.57 -285.91)"/>
  <path class="cls-1" d="M309.58,291.72l0,3.17A73.21,73.21,0,0,0,297,295a1.14,1.14,0,0,0-1,1.16v0.69a0.93,0.93,0,0,0,1.08.76,66.57,66.57,0,0,1,11.79.32,2,2,0,0,1,1.36,1.55,10.81,10.81,0,0,1,.09,5.17,2.65,2.65,0,0,1-2.08,1.9c-5.24.07-9.89,0-15.14,0.23V303.6c4.21-.26,8.93-0.17,13.13-0.11a1,1,0,0,0,.8-0.8,1.16,1.16,0,0,0-.07-0.58,1.19,1.19,0,0,0-.79-1.16,93.11,93.11,0,0,0-11.5-.12,2.46,2.46,0,0,1-2.16-2.17,20.41,20.41,0,0,1-.07-4.43c0.2-1.29,1-2.5,2-2.58a93.79,93.79,0,0,1,15.23.08" transform="translate(-221.57 -285.91)"/>
  <path class="cls-1" d="M330.81,293.35l0.08,3.2a89.45,89.45,0,0,0-12.9-1.11c-0.37,0-1,.15-0.79.79v7c0,0.71.47,0.74,1,.78,2.72,0.18,9.81,1.06,12.69,1.44v3.23c-2.48-.65-12.87-1.68-16.08-1.81a1.57,1.57,0,0,1-1.31-1.31v-11.2a2.65,2.65,0,0,1,2.18-2.41,134.53,134.53,0,0,1,15.1,1.37" transform="translate(-221.57 -285.91)"/>
  <path class="cls-1" d="M288.43,293.21c1,1.47.62,4.7,0.26,6.37a3,3,0,0,1-1.31,1.74c1.57,0.47,2.32,4,2.66,5.61-1.19.06-2.5,0.21-3.69,0.21C286,306,286,303.49,284.1,303a63.75,63.75,0,0,0-9.32.84v4.36a25.81,25.81,0,0,1-3.61.55l-0.06-15.28a142.66,142.66,0,0,1,14.52-1.31,3.12,3.12,0,0,1,2.79,1.05" transform="translate(-221.57 -285.91)"/>
  <path class="cls-1" d="M337,294.15v5.55c1.92,0.34,8.79,1.77,10.07,2.23l0.07-5.89a26.47,26.47,0,0,1,3.46.62l0,15.75c-1.1-.26-2.64-0.71-3.5-0.81l0-6.41A60,60,0,0,0,337,303l0,6.5c-0.71,0-2.59-.54-3.59-0.57l0-15.36c1,0.11,2.64.38,3.58,0.54" transform="translate(-221.57 -285.91)"/>
  <path class="cls-1" d="M267.91,297.2v9.43c0,0.94-.78,2.9-2.09,3.12-4.07.68-9.14,2.13-13.48,3.25a2.46,2.46,0,0,1-2.6-2.17l-0.25-9.53c0-1.58.14-3.36,1.77-3.86a116.3,116.3,0,0,1,13.42-2.78,2.63,2.63,0,0,1,3.23,2.54" transform="translate(-221.57 -285.91)"/>
  <path class="cls-2" d="M285.12,298.36c-0.15.92-1,1.25-2.29,1.29-2.59.08-5.54,0.52-7.91,0.81v-4.31a50.22,50.22,0,0,1,8.68-.9c0.62,0,1.47.06,1.51,0.92a7.35,7.35,0,0,1,0,2.19" transform="translate(-221.57 -285.91)"/>
  <path class="cls-1" d="M371.88,302.41l-0.08,3.34a138.8,138.8,0,0,0-13.73-3.89v2.66c5.11,1.22,12.19,3.36,13.79,4.38v3.22c-3.43-1.85-10-3.62-13.73-4.38l0,3c4,1.06,10.24,2.86,13.74,4.54v3.45A136.23,136.23,0,0,0,354,313.3V297.46a132.32,132.32,0,0,1,17.88,5" transform="translate(-221.57 -285.91)"/>
  <path class="cls-2" d="M264.29,299.51l0.05,6.38a1.3,1.3,0,0,1-1.16,1c-2.16.52-6.44,1.56-8.86,2.28-0.68.21-.85-0.62-1-1.15l0-6A2.26,2.26,0,0,1,254.9,300a72,72,0,0,1,7.78-1.54,1.4,1.4,0,0,1,1.61,1.08" transform="translate(-221.57 -285.91)"/>
  <path class="cls-1" d="M247.05,301.26l0,6.22a2.75,2.75,0,0,1-1.93,2.47,98,98,0,0,0-13.07,4.89V319l-3.94,1.58-0.26-.26V304.64c6.87-2.91,13-5,15.79-5.36,1.55-.22,3.39.73,3.39,2" transform="translate(-221.57 -285.91)"/>
  <path class="cls-2" d="M242.93,306.72c-1.74.5-9,3.17-10.84,3.88L232,306.75c1.33-.72,9.55-3.89,11.07-3.68a0.93,0.93,0,0,1,.79.91l0,1.77a1.1,1.1,0,0,1-.95,1" transform="translate(-221.57 -285.91)"/>
  <path class="cls-1" d="M292,368.64c-0.23,0-.19.23-0.09,0.45a3.44,3.44,0,0,0,1.06,1,1.24,1.24,0,0,1,.42.74c0,0.1-.19,0-0.39,0a3.82,3.82,0,0,0-1.94.31,9.63,9.63,0,0,0-1.52,1.09c-0.13.08-.49,0.15-0.62,0.23a2.34,2.34,0,0,0-.36.62,2,2,0,0,1-.38.42,1.08,1.08,0,0,1-.35.15,2.85,2.85,0,0,0-.59.43,3.9,3.9,0,0,0-.35.2c-0.1.13,0,.28,0.16,0.4a1.31,1.31,0,0,0,.78.46c0.36,0,.77-0.09,1.13-0.07,0.08,0,0,.1,0,0.18a1.51,1.51,0,0,0-.24.41c0,0.17.06,0.13,0.17,0.25a0.9,0.9,0,0,0,.41.2,0.53,0.53,0,0,0,.42,0c0.16-.07.31-0.2,0.46-0.28s0.51-.08.75-0.21,0.4-.27.61-0.4a0.52,0.52,0,0,1,.4,0c0.36,0.11.51,0.25,0.82,0.31s0.41,0,.4.21a2.93,2.93,0,0,1-.36.81c-0.08.18-.12,0.4-0.21,0.64s-0.2.46-.27,0.64a0.59,0.59,0,0,1-.27.33c-0.37.31-.88,0.62-1.24,0.94a10.44,10.44,0,0,0-1.69,2.05,5.45,5.45,0,0,0-.43,1.1c-0.09.24-.25,0.54-0.34,0.8a2.33,2.33,0,0,1-.6,1.25,0.62,0.62,0,0,1-.82.18,5.47,5.47,0,0,1-1.33-.83,2.22,2.22,0,0,1-.45-0.7c-0.07-.16-0.09-0.42-0.17-0.57a2.36,2.36,0,0,0-.79-0.92,1.42,1.42,0,0,0-1,.11,2.2,2.2,0,0,0-.88.68,2.75,2.75,0,0,0-.25.57c-0.21.34-.48,0.64-0.7,1s-0.36.66-.57,1c-0.5.75-1,1.3-1.47,2.08a2.93,2.93,0,0,0-.17.65c0,0.16-.2.18-0.25,0.33a5,5,0,0,1-.24,1c-0.18.37-.22,0.76-0.41,1.12a16.5,16.5,0,0,0-1.06,1.58,1.34,1.34,0,0,0,.08,1.19c0.12,0.18.45,0,.66-0.08s0.56-.37.84-0.52,0.38-.09.56-0.19a1.07,1.07,0,0,0,.35-0.31,0.42,0.42,0,0,0,.16-0.19,0.79,0.79,0,0,0,0-.21,1.34,1.34,0,0,0-.31-0.33c-0.05-.08,0-0.25-0.07-0.33s0,0,0-.11a0.31,0.31,0,0,1,0-.13,8.6,8.6,0,0,0,.64-1.64,0.65,0.65,0,0,1,.2-0.21,0.66,0.66,0,0,1,.2-0.25,0.71,0.71,0,0,0,.37-0.48c0.09-.24-0.14-0.33,0-0.57a20.48,20.48,0,0,1,1.92-3.1,2,2,0,0,1,.41-0.29,0.67,0.67,0,0,1,.17-0.13,0.71,0.71,0,0,1,.44,0,0.66,0.66,0,0,1,.32.29,26.41,26.41,0,0,1,1.6,2.47,7.74,7.74,0,0,0,.48,1.62,2.55,2.55,0,0,0,1.14.58,5.25,5.25,0,0,1,1,.29,0.56,0.56,0,0,1,.19.36,1.69,1.69,0,0,1,.24,1,0.72,0.72,0,0,1-.65.31c-0.24.05-.33,0.13-0.47,0.16-0.59.13-1.11,0.16-1.7,0.28a7.62,7.62,0,0,0-2.12.41,1,1,0,0,0-.51.86,5.58,5.58,0,0,0,.14,1c0,0.2,0,.74,0,0.95,0,0.8.16,3.8,0.3,5.45a2.41,2.41,0,0,0,.17.79,2.35,2.35,0,0,0,.86.76,0.66,0.66,0,0,1,.49.34,3,3,0,0,0,.61,1.16c0.38,0.24.65,0.35,0.78,0.19a0.53,0.53,0,0,0,.16-0.23l0.08-.18a2.31,2.31,0,0,1,.25-0.33,1.6,1.6,0,0,0,.08-0.15,0.67,0.67,0,0,1,.25-0.16,1.1,1.1,0,0,0,.21-0.39,3.94,3.94,0,0,1,.29-0.36,0.52,0.52,0,0,0,0-.41,0.58,0.58,0,0,0-.42,0,2.64,2.64,0,0,1-.53.07,4.71,4.71,0,0,1-.69,0c-0.1-.22-0.65-0.61-0.74-0.85a1.37,1.37,0,0,1-.24-0.37c-0.1-1.4-.43-3.26-0.43-3.48s0.08-.25.08-0.37a14.26,14.26,0,0,1,0-1.67,2.9,2.9,0,0,1,.45-1,0.25,0.25,0,0,1,.16-0.17,2.73,2.73,0,0,1,1.32-.18c0.51,0.13,1.15.33,1.65,0.47s0.76,0.11,1.12.2a6.11,6.11,0,0,0,.78.2,5.57,5.57,0,0,0,3.81-1.06c0.11-.09.12-0.11,0.24,0,0.45,0.27.72,0.56,1.16,0.85a11.85,11.85,0,0,0,3.25,1.48c1.51,0.38,3.11-.09,4.66,0a4.23,4.23,0,0,1,1.15.25,0.2,0.2,0,0,1,.14.2c0,0.57-.26,1.11-0.26,1.68a2.1,2.1,0,0,0,.32.86c0.14,0.26.23,0.62,0.39,0.87a6.93,6.93,0,0,1,1,1.58,1.22,1.22,0,0,1-.25,1,15,15,0,0,1-1.63,1.92c-0.16.17-.37,0.29-0.53,0.45a3.23,3.23,0,0,1-.37.45c-1,.72-2.07,1.37-3.11,2a6.09,6.09,0,0,0-.77.49,1.86,1.86,0,0,0-.47.64c0,0.08-.18.42-0.23,0.51-0.14.25-.42,0.41-0.57,0.65a3.65,3.65,0,0,0-.17.53,4.42,4.42,0,0,0-.28.45c0,0.07,0,.21.08,0.2a4,4,0,0,0,.94-0.24,9.19,9.19,0,0,0,1.23-.37,0.39,0.39,0,0,0,.2-0.29,3.12,3.12,0,0,0,0-.69,0.86,0.86,0,0,1,0-.37,0.83,0.83,0,0,1,.33-0.33c0.73-.42,1.53-0.71,2.25-1.14,0.17-.1.37-0.33,0.54-0.43,0.69-.4,1.33-0.69,2-1.08l1-.57,0.61-.37a16.54,16.54,0,0,0,2-1.49,0.88,0.88,0,0,0,.05-0.56,18.52,18.52,0,0,1,0-1.88,2.41,2.41,0,0,1,.45-0.94,0.46,0.46,0,0,1,.5-0.17c0.46,0.31.52,0.81,1,1.15a12.5,12.5,0,0,0,2.16,1.27c0.18,0.09.41,0,.57,0.08a0.76,0.76,0,0,1,.37.45,2.08,2.08,0,0,1,0,1.06,10.45,10.45,0,0,1-.78,1.88,5.88,5.88,0,0,1-.77,1.31c-0.51.6-1.05,1.06-1.59,1.62s-0.89,1-1.35,1.48a2,2,0,0,0-.33.12,2.09,2.09,0,0,0-.25.69,1,1,0,0,1,0,.41c-0.36.55-1.34,1.19-1.26,1.85a0.74,0.74,0,0,0,.12.42l0.82-.1c0.29,0,.59-0.19.88-0.22a4.84,4.84,0,0,0,.87-0.13c0.18-.06.15-0.12,0.15-0.3a2.42,2.42,0,0,0-.15-0.57,1.41,1.41,0,0,1,.08-0.74,2.27,2.27,0,0,1,.58-1.06,5.4,5.4,0,0,1,1-.51c0.49-.25,1-0.55,1.49-0.8a2.27,2.27,0,0,0,.78-0.33,4.65,4.65,0,0,0,.16-0.82,12.9,12.9,0,0,1,1.14-1.67,8.63,8.63,0,0,1,.62-0.66,8.71,8.71,0,0,0,.9-0.93c0.12-.18,0-0.29.11-0.48a2.59,2.59,0,0,0,.37-0.54,1.78,1.78,0,0,0-.08-1,0.89,0.89,0,0,0-.36-0.16A1.33,1.33,0,0,1,317,401a11.08,11.08,0,0,1-1.5-3,3.53,3.53,0,0,1,.39-2.11,6.14,6.14,0,0,1,1-1.12,11.09,11.09,0,0,0,1-1.36,11.43,11.43,0,0,0,.68-1.94,7.67,7.67,0,0,0,0-1.59,1.07,1.07,0,0,1,.24-0.53,1.87,1.87,0,0,1,.89-0.68,1.92,1.92,0,0,1,1.12.07c0.67,0.19,1.11.45,1.79,0.61a2.06,2.06,0,0,0,1.07-.06,2.11,2.11,0,0,0,1-.56c0.07-.08.09-0.27,0-0.27a2.21,2.21,0,0,1-.84,0A1.1,1.1,0,0,1,323,388a1.67,1.67,0,0,1-.37-0.7,0.55,0.55,0,0,1,.29-0.4,4.18,4.18,0,0,0,1.06-1.15,3,3,0,0,0,.35-1.32,0.15,0.15,0,0,0-.23-0.07,6.19,6.19,0,0,1-.8.9,1.7,1.7,0,0,1-1,.29,1,1,0,0,1-.66-0.32,2.1,2.1,0,0,1-.36-0.71c-0.08-.22.26-0.38,0.49-0.43a3.18,3.18,0,0,0,1.38-.41,1.58,1.58,0,0,0,.63-0.68,2.32,2.32,0,0,0,.13-0.71c0-.11.06-0.18,0-0.14-0.26.09-.44,0.24-0.66,0.3a1.66,1.66,0,0,1-1.26-.08,3.3,3.3,0,0,1-.95-1.09,0.19,0.19,0,0,1,.09-0.26,2,2,0,0,0,1-1,2,2,0,0,0,.17-0.33c0.06-.15.24-0.3,0.25-0.38a3.38,3.38,0,0,0,.08-0.94,1.15,1.15,0,0,0-.37-0.7,0.27,0.27,0,0,0-.31,0c-0.17.33-.07,0.74-0.26,1.06a3.13,3.13,0,0,1-.81.86,0.64,0.64,0,0,1-.57.2,1.18,1.18,0,0,1-.62-0.78,1.85,1.85,0,0,1,.25-1.14,12.74,12.74,0,0,1,1.3-2c0.37-.47.76-0.79,1.09-1.28,0.23-.34.41-1.06,0.09-1.18s-0.48.6-.76,0.76c-1,.57-2.16.78-3,1.63a5,5,0,0,0-.89,1.88c-0.14.36,0,.92-0.2,1.27a0.39,0.39,0,0,1-.46.18,2.59,2.59,0,0,1-.74-1.17,1.47,1.47,0,0,1,.06-0.93c0-.12,0-0.24-0.14-0.18a2,2,0,0,0-.9,1.06,2.5,2.5,0,0,0,.15,1.84,24.22,24.22,0,0,0,1.69,2.45c0.45,0.75,1,1.54,1.41,2.25a2.9,2.9,0,0,1,.47,2,3.88,3.88,0,0,1-1.1,1.94,0.35,0.35,0,0,1-.28.07,21,21,0,0,0-1.8-1.51,7.33,7.33,0,0,0-2.49-1,16.2,16.2,0,0,0-3.31,0c-1.16,0-2.32.2-3.47,0.16a8.1,8.1,0,0,1-2.78-.37,3.09,3.09,0,0,1-1.58-1.36,3.86,3.86,0,0,1-.35-2.13,4.12,4.12,0,0,1,.52-1.69,2.74,2.74,0,0,1,1.08-1.1,2.43,2.43,0,0,1,1.7-.23,2.93,2.93,0,0,1,.79.5,4.77,4.77,0,0,1,.65.63,0.17,0.17,0,0,0,.19,0,4.62,4.62,0,0,0-.32-2.29,10.23,10.23,0,0,0-1-1.59c0-.12.33-0.11,0.46-0.12a2.69,2.69,0,0,1,1.75.52,2.9,2.9,0,0,1,.85.9s0.12,0,.12,0a3.56,3.56,0,0,0-.89-2.58,2.89,2.89,0,0,0-1.1-1c-0.25-.1.19-0.29,0.42-0.3a3.12,3.12,0,0,1,1.46.21,1.51,1.51,0,0,1,.45.32,2.06,2.06,0,0,0,.3.23c0.08,0,.17-0.11.14-0.19a2.14,2.14,0,0,0-.32-0.78,23.68,23.68,0,0,0-2.35-2,1.56,1.56,0,0,1-.27-0.2,3.5,3.5,0,0,1-.53-1c-0.05-.14-0.27-0.28-0.34-0.48a0.85,0.85,0,0,1,.06-0.6,1.55,1.55,0,0,1,1-.76,5.68,5.68,0,0,1,1.19-.25,2.64,2.64,0,0,0,.37.08c0.07,0,.1-0.2-0.09-0.33a2.87,2.87,0,0,0-1.62-.52,4.86,4.86,0,0,0-2.3.17,4.13,4.13,0,0,1-1.78.51,2.43,2.43,0,0,1-1.18-.23,0.94,0.94,0,0,1-.53-0.65,2.58,2.58,0,0,1,.33-1.35,1.69,1.69,0,0,1,.78-0.67,0.43,0.43,0,0,0,.35-0.35c0-.12-0.32-0.08-0.44,0a6.91,6.91,0,0,0-2,.76,8.17,8.17,0,0,0-1.18,1.36,0.74,0.74,0,0,1-.29.2c-0.14.06-.27,0-0.41,0.08-0.49.19-1,.44-1.47,0.66a14.41,14.41,0,0,1-1.35.78,4.25,4.25,0,0,1-1.38.19,6.41,6.41,0,0,1-1.16-.21,1.33,1.33,0,0,0-.51-0.05m5.57,1a0.15,0.15,0,0,0-.07.2,5.31,5.31,0,0,0,.58.42,1.45,1.45,0,0,1,.29.38c0.08,0.16.2,0.34,0.27,0.49,0.15,0.35.27,0.66,0.38,1a10.31,10.31,0,0,1,.42,1.74c0.07,0.48.05,1,.07,1.46,0,0.23,0,.45,0,0.67s0,0.38,0,.57,0.09,0.54.09,0.82a1.37,1.37,0,0,1-.09.77,0.71,0.71,0,0,0,.34.89,1.49,1.49,0,0,0,.69-0.15,1.47,1.47,0,0,0,.71-1.24,16.77,16.77,0,0,0,0-4.78,4.24,4.24,0,0,0-1.57-3,1.81,1.81,0,0,0-2.09-.26" transform="translate(-221.57 -285.91)"/>
</svg>
