<svg id="Layer_1" data-name="Layer 1" xmlns="http://www.w3.org/2000/svg" xmlns:xlink="http://www.w3.org/1999/xlink" viewBox="0 0 257.95 160.37">
  <defs>
    <style>
      .cls-1 {
        fill: #231f20;
      }

      .cls-2 {
        fill: url(#linear-gradient);
      }

      .cls-3 {
        fill: url(#linear-gradient-2);
      }

      .cls-4 {
        fill: url(#linear-gradient-3);
      }

      .cls-5 {
        fill: url(#linear-gradient-4);
      }

      .cls-6 {
        fill: #414042;
      }

      .cls-7 {
        fill: url(#linear-gradient-5);
      }

      .cls-8 {
        fill: #fff;
      }

      .cls-9 {
        fill: url(#linear-gradient-6);
      }

      .cls-10 {
        fill: url(#linear-gradient-7);
      }

      .cls-11 {
        fill: url(#linear-gradient-8);
      }

      .cls-12 {
        fill: url(#linear-gradient-9);
      }

      .cls-13 {
        fill: url(#linear-gradient-10);
      }

      .cls-14 {
        fill: url(#linear-gradient-11);
      }

      .cls-15 {
        fill: url(#linear-gradient-12);
      }
    </style>
    <linearGradient id="linear-gradient" x1="419.08" y1="312.98" x2="419.08" y2="222.33" gradientUnits="userSpaceOnUse">
      <stop offset="0" stop-color="#d1d3d4"/>
      <stop offset="0.16" stop-color="#f1f2f2"/>
      <stop offset="0.16" stop-color="#f0f1f1"/>
      <stop offset="0.26" stop-color="#e8e9ea"/>
      <stop offset="0.44" stop-color="#e6e7e8"/>
      <stop offset="0.56" stop-color="#cfd0d1"/>
      <stop offset="0.81" stop-color="#949596"/>
      <stop offset="1" stop-color="#636466"/>
    </linearGradient>
    <linearGradient id="linear-gradient-2" x1="435.43" y1="234.89" x2="404.67" y2="209.08" gradientUnits="userSpaceOnUse">
      <stop offset="0" stop-color="#e6e7e8"/>
      <stop offset="0.44" stop-color="#e6e7e8"/>
      <stop offset="0.56" stop-color="#cfd0d1"/>
      <stop offset="0.81" stop-color="#949596"/>
      <stop offset="1" stop-color="#636466"/>
    </linearGradient>
    <linearGradient id="linear-gradient-3" x1="438.4" y1="277.3" x2="393.9" y2="251.61" xlink:href="#linear-gradient-2"/>
    <linearGradient id="linear-gradient-4" x1="419.08" y1="243.91" x2="419.08" y2="194.79" xlink:href="#linear-gradient-2"/>
    <linearGradient id="linear-gradient-5" x1="419.08" y1="170.73" x2="419.08" y2="329.84" gradientUnits="userSpaceOnUse">
      <stop offset="0" stop-color="#c7c8ca"/>
      <stop offset="0.04" stop-color="#d4d5d6"/>
      <stop offset="0.12" stop-color="#e6e7e8"/>
      <stop offset="0.12" stop-color="#e8e9ea"/>
      <stop offset="0.15" stop-color="#eff0f0"/>
      <stop offset="0.21" stop-color="#f1f2f2"/>
      <stop offset="0.55" stop-color="#f1f2f2"/>
      <stop offset="0.61" stop-color="#cdcece"/>
      <stop offset="0.69" stop-color="#a7a8a9"/>
      <stop offset="0.77" stop-color="#898a8c"/>
      <stop offset="0.85" stop-color="#747577"/>
      <stop offset="0.93" stop-color="#67686a"/>
      <stop offset="1" stop-color="#636466"/>
    </linearGradient>
    <linearGradient id="linear-gradient-6" x1="419.08" y1="170.72" x2="419.08" y2="329.83" xlink:href="#linear-gradient-5"/>
    <linearGradient id="linear-gradient-7" x1="419.08" y1="170.73" x2="419.08" y2="329.85" xlink:href="#linear-gradient-5"/>
    <linearGradient id="linear-gradient-8" x1="419.08" y1="203.72" x2="419.08" y2="249.07" gradientUnits="userSpaceOnUse">
      <stop offset="0.01" stop-color="#e6e7e8"/>
      <stop offset="1" stop-color="#6d6e71"/>
    </linearGradient>
    <linearGradient id="linear-gradient-9" x1="434.79" y1="170.73" x2="434.79" y2="248.62" xlink:href="#linear-gradient-2"/>
    <linearGradient id="linear-gradient-10" x1="403.37" y1="170.73" x2="403.37" y2="248.62" xlink:href="#linear-gradient-2"/>
    <linearGradient id="linear-gradient-11" x1="402.44" y1="170.72" x2="402.44" y2="299.55" xlink:href="#linear-gradient-2"/>
    <linearGradient id="linear-gradient-12" x1="435.72" y1="170.72" x2="435.72" y2="299.55" xlink:href="#linear-gradient-2"/>
  </defs>
  <title>logo-toyota</title>
  <path class="cls-1" d="M290.1,250.29c0,44.21,57.86,80.18,129,80.18s129-36,129-80.18-57.86-80.19-129-80.19S290.1,206.07,290.1,250.29Zm1.25,0c0-43.53,57.3-78.94,127.73-78.94S546.8,206.76,546.8,250.29s-57.3,78.93-127.72,78.93S291.35,293.81,291.35,250.29Z" transform="translate(-290.1 -170.1)"/>
  <path class="cls-1" d="M406.84,184.92c-29.5,1.8-51.7,9.72-55.23,19.7a8.68,8.68,0,0,0-.51,2.89,9,9,0,0,0,1.34,4.61c4,6.85,16.82,12.57,35.12,15.69l0.62,0.11,0.1-.62c3.13-19.05,10.05-34.09,19-41.25l1.54-1.23Zm-53.33,26.56a7.8,7.8,0,0,1-1.16-4,7.3,7.3,0,0,1,.44-2.46h0c3.25-9.16,24.68-16.78,52.38-18.73-8.42,7.64-14.93,22.06-18,40.15C369.82,223.42,357.25,217.85,353.51,211.48Zm-1.9-6.87h0Z" transform="translate(-290.1 -170.1)"/>
  <path class="cls-1" d="M402.54,228.95l-0.12.68,0.69,0.05c5.2,0.4,10.57.6,16,.6s10.77-.2,16-0.6l0.69-.05-0.12-.68c-2.84-15.95-9.18-25.85-16.54-25.85S405.38,213,402.54,228.95Zm16.54-24.6c6.61,0,12.38,9.24,15.16,24.13-4.95.36-10,.55-15.16,0.55s-10.21-.2-15.16-0.55C406.7,213.59,412.47,204.35,419.08,204.35Z" transform="translate(-290.1 -170.1)"/>
  <path class="cls-1" d="M430.88,186c8.94,7.17,15.87,22.2,19,41.25l0.1,0.62,0.62-.11c18.3-3.11,31.11-8.83,35.12-15.69a8.57,8.57,0,0,0,.82-7.5c-3.54-10-25.73-17.89-55.23-19.7l-2-.12ZM433,186.3c27.7,2,49.12,9.57,52.37,18.73a7.4,7.4,0,0,1,.44,2.46,7.78,7.78,0,0,1-1.16,4c-3.73,6.37-16.3,11.94-33.66,15C447.92,208.37,441.41,193.95,433,186.3Z" transform="translate(-290.1 -170.1)"/>
  <path class="cls-1" d="M331.9,213.06c-13.39,11.21-20.46,24.49-20.46,38.4,0,33,40.57,60.91,94.37,64.93l1.9,0.14-1.45-1.24C394,304.82,386.42,280.18,386.42,251l0.11-5.69-0.52-.1c-29.68-5.33-50-17.51-53.09-31.78l-0.22-1Zm-19.21,38.4c0-13.27,6.69-26,19.3-36.79,3.86,14.25,24.06,26.29,53.27,31.64,0,0.86-.09,4.67-0.09,4.67,0,28.46,7.22,52.67,18.93,64C351.86,310.51,312.68,283.43,312.68,251.46Z" transform="translate(-290.1 -170.1)"/>
  <path class="cls-1" d="M400.93,247.87v0.72c0,25.58,8,45.62,18.16,45.62s18.16-20,18.16-45.62l0-1.4-0.67.06c-5.7.5-11.57,0.75-17.47,0.75s-11.78-.25-17.47-0.75l-0.67-.06v0.68Zm1.24,0.72v-0.05c5.52,0.46,11.2.71,16.91,0.71s11.38-.25,16.91-0.71v0.05c0,24.88-7.43,44.37-16.91,44.37S402.17,273.47,402.17,248.59Z" transform="translate(-290.1 -170.1)"/>
  <path class="cls-1" d="M505.24,213.41c-3.07,14.27-23.41,26.45-53.09,31.78l-0.52.09,0.1,5.7c0,29.2-7.6,53.84-19.84,64.32l-1.45,1.24,1.9-.14c53.8-4,94.37-31.93,94.37-64.93,0-13.91-7.08-27.19-20.47-38.4l-0.79-.67Zm0.93,1.27c12.61,10.83,19.3,23.52,19.3,36.79,0,32-39.18,59-91.41,63.5,11.7-11.31,18.92-35.52,18.92-64,0,0-.07-3.81-0.08-4.67C482.11,241,502.31,228.92,506.17,214.67Z" transform="translate(-290.1 -170.1)"/>
  <path class="cls-2" d="M505.31,202.82c0.18,0.52.35,1,.48,1.56a15.22,15.22,0,0,1-.37,8.8c13,10.73,20.68,24,20.68,38.29,0,35.79-47.92,64.8-107,64.8s-107-29-107-64.8c0-14.32,7.68-27.56,20.68-38.29a15.26,15.26,0,0,1-.37-8.8,9.66,9.66,0,0,1,.62-1.65c-17.74,12.64-28.51,29.21-28.51,47.36,0,39.63,51.31,71.76,114.61,71.76s114.61-32.13,114.61-71.76C533.69,232,523,215.44,505.31,202.82Z" transform="translate(-290.1 -170.1)"/>
  <path class="cls-3" d="M403.15,229.06l-3.31,2.39c2.72-20.55,10.3-33.71,19.24-33.71s16.52,13.16,19.24,33.71L435,229.06h0c-2.78-15.59-8.86-25.34-15.93-25.34s-13.15,9.75-15.93,25.34h0Z" transform="translate(-290.1 -170.1)"/>
  <path class="cls-4" d="M439.29,243l-2.69,4.85h0c0,0.24,0,.47,0,0.71,0,25.6-7.86,45-17.54,45s-17.53-19.39-17.53-45c0-.28,0-0.56,0-0.84L398.86,243q-0.11,2.72-.11,5.56c0,29,9.1,51,20.32,51s20.32-22,20.32-51C439.4,246.69,439.36,244.83,439.29,243Z" transform="translate(-290.1 -170.1)"/>
  <path class="cls-5" d="M435,229.06c-5.05.38-10.37,0.59-15.92,0.59s-10.87-.21-15.92-0.59h0l-3.3,2.39c6.09,0.54,12.52.84,19.24,0.84s13.14-.3,19.23-0.84L435,229.06h0Zm58.54-25.14c-4-13.29-37.19-23.06-74.46-23.06s-70.44,9.77-74.46,23.06c-3.49,11.54,15.57,22.21,45.65,26.45l-2.61-3.17h0c-24.33-4.14-38.79-13-35.45-22.36,4-11.39,33.41-19.65,66.87-19.65s62.84,8.27,66.88,19.65c3.33,9.39-11.12,18.22-35.46,22.36h0l-2.61,3.17C478,226.13,497,215.45,493.54,203.92Z" transform="translate(-290.1 -170.1)"/>
  <path class="cls-6" d="M505.42,213.17a66.16,66.16,0,0,1,12.44,13.34,45.92,45.92,0,0,0-8.75-20.82q-1.85-1.46-3.8-2.87c0.18,0.52.35,1,.48,1.56A15.22,15.22,0,0,1,505.42,213.17Z" transform="translate(-290.1 -170.1)"/>
  <path class="cls-6" d="M332.74,213.17a15.26,15.26,0,0,1-.37-8.8,9.66,9.66,0,0,1,.62-1.65q-2,1.45-3.93,3a45.92,45.92,0,0,0-8.75,20.82A66.14,66.14,0,0,1,332.74,213.17Z" transform="translate(-290.1 -170.1)"/>
  <path class="cls-7" d="M290.73,250.29c0-43.94,57.46-79.56,128.35-79.56s128.35,35.62,128.35,79.56S490,329.84,419.08,329.84,290.73,294.23,290.73,250.29Zm128.35,71.56c63.29,0,114.61-32.13,114.61-71.76s-51.31-71.76-114.61-71.76-114.61,32.13-114.61,71.76S355.78,321.85,419.08,321.85Z" transform="translate(-290.1 -170.1)"/>
  <path class="cls-8" d="M303.72,250.08c0,40,51.75,72.51,115.36,72.51s115.36-32.53,115.36-72.51-51.75-72.51-115.36-72.51S303.72,210.1,303.72,250.08Zm1.5,0c0-39.16,51.08-71,113.86-71s113.86,31.86,113.86,71-51.07,71-113.86,71S305.22,289.24,305.22,250.08Z" transform="translate(-290.1 -170.1)"/>
  <path class="cls-9" d="M388.93,251c0-38.32,13.5-70.12,30.15-70.12s30.15,31.8,30.15,70.12c0,38.73-13.5,70.12-30.15,70.12S388.93,289.71,388.93,251Zm30.15,48.57c11.22,0,20.32-22,20.32-51,0-30.1-9.1-50.83-20.32-50.83s-20.32,20.73-20.32,50.83C398.76,277.58,407.86,299.55,419.08,299.55Z" transform="translate(-290.1 -170.1)"/>
  <path class="cls-10" d="M332.36,204.38c3.31-13.11,43.31-32.17,86.72-32.17s82,13.62,86.71,32.17C511,225.16,472.49,244,419.08,244S327.11,225.16,332.36,204.38Zm86.72-23.52c-37.27,0-70.44,9.77-74.46,23.06-4.51,14.9,28.59,28.37,74.46,28.37s79-13.47,74.46-28.37C489.52,190.62,456.35,180.86,419.08,180.86Z" transform="translate(-290.1 -170.1)"/>
  <path class="cls-11" d="M398.84,243h0l2.75,4.85c5.61,0.49,11.43.76,17.46,0.76s11.9-.27,17.53-0.76l2.68-4.85h0c-6.45.61-13.2,0.95-20.23,0.95S405.29,243.62,398.84,243Zm107.41-34.15c-0.7,14.87-23.53,28-57.3,33h0l3.3,3.94C485.3,239.85,507,225.28,506.25,208.86Zm-174.34,0c-0.79,16.42,20.95,31,54,36.93l3.3-3.94h0C355.43,236.89,332.6,223.73,331.91,208.86Z" transform="translate(-290.1 -170.1)"/>
  <path class="cls-12" d="M447.88,230.37h0l2.61-3.17c-4.55-27.71-16.91-46.34-31.41-46.34C432.62,180.86,444.08,201.9,447.88,230.37Z" transform="translate(-290.1 -170.1)"/>
  <path class="cls-13" d="M390.27,230.37c3.8-28.47,15.26-49.51,28.8-49.51-14.51,0-26.87,18.63-31.42,46.34l2.61,3.17h0Z" transform="translate(-290.1 -170.1)"/>
  <path class="cls-14" d="M388.93,251q0-4.63.27-9.12h0l-3.3,3.93c-0.06,1.71-.09,3.44-0.09,5.19,0,41,14.62,70.12,33.29,70.12C402.43,321.1,388.93,289.71,388.93,251Z" transform="translate(-290.1 -170.1)"/>
  <path class="cls-15" d="M452.27,245.79l-3.3-3.93h0c0.17,3,.27,6,0.27,9.12,0,38.73-13.5,70.12-30.15,70.12,18.66,0,33.29-29.11,33.29-70.12C452.36,249.23,452.33,247.5,452.27,245.79Z" transform="translate(-290.1 -170.1)"/>
</svg>
